const PROGMEM int melody1[] = {
	NOTE_A3, 0, NOTE_D4, 0, NOTE_FS4, 0, NOTE_D4, 0, NOTE_B3, 0, 
	NOTE_D4, 0, NOTE_FS4, 0, NOTE_D4, 0, NOTE_A3, 0, NOTE_D4, 0, 
	NOTE_FS4, 0, NOTE_D4, 0, NOTE_B3, 0, NOTE_D4, 0, NOTE_FS4, 0, 
	NOTE_D4, 0, NOTE_A3, 0, NOTE_D4, 0, NOTE_FS4, 0, NOTE_D4, 0, 
	NOTE_B3, 0, NOTE_D4, 0, NOTE_FS4, 0, NOTE_D4, 0, NOTE_A3, 0, 
	NOTE_D4, 0, NOTE_FS4, 0, NOTE_D4, 0, NOTE_B3, 0, NOTE_D4, 0, 
	NOTE_FS4, 0, NOTE_D4, 0, NOTE_A3, 0, NOTE_E4, 0, NOTE_G4, 0, 
	NOTE_E4, 0, NOTE_A3, 0, NOTE_E4, 0, NOTE_G4, 0, NOTE_E4, 0, 
	NOTE_A3, 0, NOTE_D4, 0, NOTE_FS4, 0, NOTE_D4, 0, NOTE_B3, 0, 
	NOTE_D4, 0, NOTE_FS4, 0, NOTE_D4, 0, NOTE_A3, 0, NOTE_D4, 0, 
	NOTE_FS4, 0, NOTE_D4, 0, NOTE_B3, 0, NOTE_D4, 0, NOTE_FS4, 0, 
	NOTE_D4, 0
};
const PROGMEM int delays1[] = {
	244, 14, 244, 14, 244, 14, 244, 14, 244, 14, 
	244, 14, 244, 14, 244, 14, 244, 14, 244, 14, 
	244, 14, 244, 14, 244, 14, 244, 14, 244, 14, 
	244, 14, 244, 14, 244, 14, 244, 14, 244, 14, 
	244, 14, 244, 14, 244, 14, 244, 14, 244, 14, 
	244, 14, 244, 14, 244, 14, 244, 14, 244, 14, 
	244, 14, 244, 14, 244, 14, 244, 14, 244, 14, 
	244, 14, 244, 14, 244, 14, 244, 14, 244, 14, 
	244, 14, 244, 14, 244, 14, 244, 14, 244, 14, 
	244, 14, 244, 14, 244, 14, 244, 14, 244, 14, 
	244, 14, 244, 14, 244, 14, 244, 14, 244, 14, 
	244, 0
};
const PROGMEM int melody2[] = {
	NOTE_G5, 0, NOTE_FS5, 0, NOTE_E5, 0, NOTE_E5, 0, NOTE_FS5, 0, 
	NOTE_A4, 0, NOTE_G5, 0, NOTE_FS5, 0, NOTE_E5, 0, NOTE_E5, 0, 
	NOTE_FS5, 0, NOTE_D5, 0, NOTE_E5, 0, NOTE_A4, 0, NOTE_D5, 0, 
	NOTE_E5, 0, NOTE_FS5, 0, NOTE_G5, 0, NOTE_E5, 0, NOTE_CS5, 0, 
	NOTE_D5, 0, NOTE_E5, 0, NOTE_A4, 0, NOTE_A4, 0, NOTE_FS5, 0
};
const PROGMEM int delays2[] = {
	244, 14, 244, 14, 244, 14, 244, 14, 490, 2354, 
	244, 14, 244, 14, 244, 14, 244, 14, 490, 26, 
	735, 39, 490, 26, 244, 14, 1227, 841, 244, 14, 
	490, 26, 244, 14, 735, 39, 244, 14, 490, 26, 
	735, 39, 490, 26, 244, 14, 490, 26, 735, 0
};
