const PROGMEM unsigned long melody1[] = {
  NOTE_E4, 0, NOTE_E4, 0, NOTE_GS4, 0, NOTE_GS4, 0, NOTE_FS4, 0, 
  NOTE_DS4, 0, NOTE_DS4, 0, NOTE_FS4, 0, NOTE_FS4, 0, NOTE_E4, 0, 
  NOTE_CS4, 0, NOTE_CS4, 0, NOTE_E4, 0, NOTE_E4, 0, NOTE_DS4, 0, 
  NOTE_B3, 0, NOTE_B3, 0, NOTE_CS4, 0, NOTE_CS4, 0, NOTE_GS3, 0, 
  NOTE_E4, 0, NOTE_E4, 0, NOTE_GS4, 0, NOTE_GS4, 0, NOTE_FS4, 0, 
  NOTE_B4, 0, NOTE_B4, 0, NOTE_FS4, 0, NOTE_FS4, 0, NOTE_GS4, 0, 
  NOTE_GS4, 0, NOTE_FS4, 0, NOTE_GS4, 0, NOTE_B4, 0, NOTE_CS5, 0, 
  NOTE_E5, 0, NOTE_E5, 0, NOTE_DS5, 0, NOTE_E5, 0, NOTE_DS5, 0, 
  NOTE_CS5, 0, NOTE_B4, 0, NOTE_DS5, 0, NOTE_CS5, 0, NOTE_E4, 0, 
  NOTE_GS4, 0, NOTE_FS4, 0, NOTE_GS4, 0, NOTE_CS4, 0, NOTE_DS4, 0, 
  NOTE_E4, 0, NOTE_GS4, 0, NOTE_E4, 0, NOTE_GS4, 0, NOTE_FS4, 0, 
  NOTE_GS4, 0, NOTE_CS4, 0, NOTE_E4, 0, NOTE_B4, 0, NOTE_GS4, 0, 
  NOTE_GS4, 0, NOTE_A4, 0, NOTE_B4, 0, NOTE_CS5, 0, NOTE_E4, 0, 
  NOTE_FS4, 0, NOTE_GS4, 0, NOTE_B4, 0, NOTE_CS5, 0, NOTE_DS5, 0, 
  NOTE_E5, 0, NOTE_DS5, 0, NOTE_B4, 0, NOTE_CS5, 0, NOTE_A4, 0, 
  NOTE_GS4, 0, NOTE_FS4, 0, NOTE_E4, 0, NOTE_GS4, 0, NOTE_FS4, 0, 
  NOTE_GS4, 0, NOTE_CS4, 0, NOTE_DS4, 0, NOTE_E4, 0, NOTE_GS4, 0, 
  NOTE_E4, 0, NOTE_GS4, 0, NOTE_FS4, 0, NOTE_GS4, 0, NOTE_CS4, 0, 
  NOTE_E4, 0, NOTE_B4, 0, NOTE_GS4, 0, NOTE_GS4, 0, NOTE_A4, 0, 
  NOTE_B5, 0, NOTE_CS6, 0, NOTE_E5, 0, NOTE_FS5, 0, NOTE_GS5, 0, 
  NOTE_B5, 0, NOTE_CS6, 0, NOTE_DS6, 0, NOTE_E6, 0, NOTE_DS6, 0, 
  NOTE_B5, 0, NOTE_GS5, 0, NOTE_A5, 0, NOTE_GS5, 0, NOTE_FS5, 0, 
  NOTE_E4, 0, NOTE_DS4, 0, NOTE_CS4, 0, NOTE_E4, 0, NOTE_DS4, 0, 
  NOTE_E4, 0, NOTE_CS4, 0, NOTE_CS4, 0, NOTE_DS4, 0, NOTE_E4, 0, 
  NOTE_B4, 0, NOTE_GS4, 0, NOTE_CS4, 0, NOTE_E4, 0, NOTE_DS4, 0, 
  NOTE_E4, 0, NOTE_CS4, 0, NOTE_CS4, 0, NOTE_DS4, 0, NOTE_E4, 0, 
  NOTE_B4, 0, NOTE_GS4, 0, NOTE_CS4, 0, NOTE_E4, 0, NOTE_DS4, 0, 
  NOTE_E4, 0, NOTE_CS4, 0, NOTE_CS4, 0, NOTE_DS4, 0, NOTE_E4, 0, 
  NOTE_B4, 0, NOTE_GS4, 0, NOTE_B3, 0, NOTE_FS4, 0, NOTE_E4, 0, 
  NOTE_DS4, 0, NOTE_CS4, 0, NOTE_B3, 0, NOTE_DS4, 0, NOTE_CS4, 0, 
  NOTE_E4, 0, NOTE_DS4, 0, NOTE_E4, 0, NOTE_CS4, 0, NOTE_CS4, 0, 
  NOTE_DS4, 0, NOTE_E4, 0, NOTE_B4, 0, NOTE_GS4, 0, NOTE_CS4, 0, 
  NOTE_E4, 0, NOTE_DS4, 0, NOTE_E4, 0, NOTE_CS4, 0, NOTE_CS4, 0, 
  NOTE_DS4, 0, NOTE_E4, 0, NOTE_B4, 0, NOTE_GS4, 0, NOTE_CS4, 0, 
  NOTE_E4, 0, NOTE_DS4, 0, NOTE_E4, 0, NOTE_CS4, 0, NOTE_CS4, 0, 
  NOTE_DS4, 0, NOTE_E4, 0, NOTE_B4, 0, NOTE_GS4, 0, NOTE_B3, 0, 
  NOTE_FS4, 0, NOTE_E4, 0, NOTE_DS4, 0, NOTE_CS4, 0, NOTE_B3, 0, 
  NOTE_DS4, 0, NOTE_CS5, 0, NOTE_E5, 0, NOTE_DS5, 0, NOTE_E5, 0, 
  NOTE_CS5, 0, NOTE_CS5, 0, NOTE_DS5, 0, NOTE_E5, 0, NOTE_B5, 0, 
  NOTE_GS5, 0, NOTE_CS5, 0, NOTE_E5, 0, NOTE_DS5, 0, NOTE_E5, 0, 
  NOTE_CS5, 0, NOTE_CS5, 0, NOTE_DS5, 0, NOTE_E5, 0, NOTE_B5, 0, 
  NOTE_GS5, 0, NOTE_CS5, 0, NOTE_E5, 0, NOTE_DS5, 0, NOTE_E5, 0, 
  NOTE_CS5, 0, NOTE_CS5, 0, NOTE_DS5, 0, NOTE_E5, 0, NOTE_B5, 0, 
  NOTE_GS5, 0, NOTE_B4, 0, NOTE_FS5, 0, NOTE_E5, 0, NOTE_DS5, 0, 
  NOTE_CS5, 0, NOTE_B4, 0, NOTE_DS5, 0, NOTE_CS5, 0, NOTE_E5, 0, 
  NOTE_DS5, 0, NOTE_E5, 0, NOTE_CS5, 0, NOTE_CS5, 0, NOTE_DS5, 0, 
  NOTE_E5, 0, NOTE_B5, 0, NOTE_GS5, 0, NOTE_CS5, 0, NOTE_E5, 0, 
  NOTE_DS5, 0, NOTE_E5, 0, NOTE_CS5, 0, NOTE_CS5, 0, NOTE_DS5, 0, 
  NOTE_E5, 0, NOTE_B5, 0, NOTE_GS5, 0, NOTE_CS5, 0, NOTE_E5, 0, 
  NOTE_DS5, 0, NOTE_E5, 0, NOTE_CS5, 0, NOTE_CS5, 0, NOTE_DS5, 0, 
  NOTE_E5, 0, NOTE_B5, 0, NOTE_GS5, 0, NOTE_C5, 0, NOTE_FS5, 0, 
  NOTE_E5, 0, NOTE_DS5, 0, NOTE_CS5, 0, NOTE_C5, 0, NOTE_DS5, 0, 
  NOTE_CS5, 0, NOTE_E5, 0, NOTE_DS5, 0, NOTE_E5, 0, NOTE_CS5, 0, 
  NOTE_CS5, 0, NOTE_DS5, 0, NOTE_E5, 0, NOTE_B5, 0, NOTE_GS5, 0, 
  NOTE_CS5, 0, NOTE_E5, 0, NOTE_DS5, 0, NOTE_E5, 0, NOTE_CS5, 0, 
  NOTE_CS5, 0, NOTE_DS5, 0, NOTE_E5, 0, NOTE_B5, 0, NOTE_GS5, 0, 
  NOTE_CS5, 0, NOTE_E5, 0, NOTE_DS5, 0, NOTE_E5, 0, NOTE_CS5, 0, 
  NOTE_CS5, 0, NOTE_DS5, 0, NOTE_E5, 0, NOTE_B5, 0, NOTE_GS5, 0, 
  NOTE_B4, 0, NOTE_FS5, 0, NOTE_E5, 0, NOTE_DS5, 0, NOTE_CS5, 0, 
  NOTE_B4, 0, NOTE_DS5, 0, NOTE_CS5, 0, NOTE_E5, 0, NOTE_DS5, 0, 
  NOTE_E5, 0, NOTE_CS5, 0, NOTE_CS5, 0, NOTE_DS5, 0, NOTE_E5, 0, 
  NOTE_B5, 0, NOTE_GS5, 0, NOTE_CS5, 0, NOTE_E5, 0, NOTE_DS5, 0, 
  NOTE_E5, 0, NOTE_CS5, 0, NOTE_CS5, 0, NOTE_DS5, 0, NOTE_E5, 0, 
  NOTE_B5, 0, NOTE_GS5, 0, NOTE_CS5, 0, NOTE_E5, 0, NOTE_DS5, 0, 
  NOTE_E5, 0, NOTE_CS5, 0, NOTE_CS5, 0, NOTE_DS5, 0, NOTE_E5, 0, 
  NOTE_B5, 0, NOTE_GS5, 0, NOTE_C5, 0, NOTE_FS5, 0, NOTE_E5, 0, 
  NOTE_DS5, 0, NOTE_CS5, 0, NOTE_C5, 0, NOTE_DS5, 0, NOTE_CS5, 0, 
  NOTE_GS4, 0, NOTE_B4, 0, NOTE_CS5, 0, NOTE_E5, 0, NOTE_FS5, 0, 
  NOTE_E5, 0, NOTE_DS5, 0, NOTE_E5, 0, NOTE_CS5, 0, NOTE_GS4, 0, 
  NOTE_GS4, 0, NOTE_B4, 0, NOTE_B4, 0, NOTE_E5, 0, NOTE_DS5, 0, 
  NOTE_CS5, 0, NOTE_E5, 0, NOTE_FS5, 0, NOTE_GS5, 0, NOTE_E5, 0, 
  NOTE_FS5, 0, NOTE_GS5, 0, NOTE_FS5, 0, NOTE_E5, 0, NOTE_FS5, 0, 
  NOTE_DS5, 0, NOTE_B4, 0, NOTE_CS5, 0, NOTE_E5, 0, NOTE_FS5, 0, 
  NOTE_GS5, 0, NOTE_FS5, 0, NOTE_E5, 0, NOTE_FS5, 0, NOTE_DS5, 0, 
  NOTE_B5, 0, NOTE_GS5, 0, NOTE_E5, 0, NOTE_FS5, 0, NOTE_GS5, 0, 
  NOTE_FS5, 0, NOTE_E5, 0, NOTE_FS5, 0, NOTE_DS5, 0, NOTE_B4, 0, 
  NOTE_CS5, 0, NOTE_DS5, 0, NOTE_B4, 0, NOTE_E5, 0, NOTE_DS5, NOTE_A2, 
  NOTE_CS4, NOTE_E4, NOTE_A4, 0, NOTE_CS5, 0, NOTE_B4, 0, NOTE_B4, 0, 
  NOTE_DS5, 0, NOTE_E6, 0, NOTE_DS6, 0, NOTE_CS6, 0, NOTE_B5, 0, 
  NOTE_CS6, 0, NOTE_GS5, 0, NOTE_AS5, 0, NOTE_FS5, 0, NOTE_CS5, 0, 
  NOTE_DS5, 0, NOTE_E5, 0, NOTE_FS5, 0, NOTE_DS5, 0, NOTE_B5, 0, 
  NOTE_GS5, 0, NOTE_E6, 0, NOTE_DS6, 0, NOTE_CS6, 0, NOTE_B5, 0, 
  NOTE_CS6, 0, NOTE_GS5, 0, NOTE_AS5, 0, NOTE_FS5, 0, NOTE_CS5, 0, 
  NOTE_DS5, 0, NOTE_E5, 0, NOTE_DS5, 0, NOTE_B4, 0, NOTE_DS5, 0, 
  NOTE_CS5, 0, NOTE_E6, 0, NOTE_DS6, 0, NOTE_CS6, 0, NOTE_B5, 0, 
  NOTE_CS6, 0, NOTE_GS5, 0, NOTE_AS5, 0, NOTE_FS5, 0, NOTE_CS5, 0, 
  NOTE_DS5, 0, NOTE_E5, 0, NOTE_FS5, 0, NOTE_DS5, 0, NOTE_B5, 0, 
  NOTE_GS5, 0, NOTE_E6, 0, NOTE_DS6, 0, NOTE_CS6, 0, NOTE_B5, 0, 
  NOTE_CS6, 0, NOTE_GS5, 0, NOTE_AS5, 0, NOTE_FS5, 0, NOTE_CS5, 0, 
  NOTE_DS5, 0, NOTE_E5, 0, NOTE_DS5, 0, NOTE_B4, 0, NOTE_DS5, 0, 
  NOTE_CS5, 0
};
const PROGMEM unsigned long delays1[] = {
  246739, 14130, 246739, 14130, 246739, 14130, 246739, 14130, 990217, 53260, 
  246739, 14130, 246739, 14130, 246739, 14130, 246739, 14130, 990217, 53260, 
  246739, 14130, 246739, 14130, 246739, 14130, 246739, 14130, 990217, 53260, 
  246739, 14130, 246739, 14130, 246739, 14130, 246739, 14130, 990217, 53260, 
  246739, 14130, 246739, 14130, 246739, 14130, 246739, 14130, 990217, 53260, 
  246739, 14130, 246739, 14130, 246739, 14130, 246739, 14130, 990217, 53260, 
  246739, 14130, 246739, 14130, 246739, 14130, 246739, 14130, 494565, 27173, 
  246739, 14130, 246739, 14130, 59782, 5434, 59782, 5434, 122826, 7608, 
  246739, 14130, 246739, 14130, 246739, 14130, 1485869, 79347, 494565, 27173, 
  494565, 27173, 742391, 40217, 246739, 14130, 370652, 20652, 370652, 20652, 
  246739, 14130, 990217, 53260, 494565, 27173, 494565, 27173, 742391, 40217, 
  246739, 14130, 370652, 20652, 370652, 20652, 246739, 14130, 990217, 53260, 
  494565, 27173, 494565, 27173, 742391, 40217, 246739, 14130, 370652, 20652, 
  370652, 20652, 246739, 14130, 742391, 40217, 246739, 14130, 246739, 14130, 
  122826, 7608, 370652, 20652, 246739, 14130, 1733695, 92391, 122826, 7608, 
  122826, 7608, 990217, 53260, 494565, 27173, 494565, 27173, 742391, 40217, 
  246739, 14130, 370652, 20652, 370652, 20652, 246739, 14130, 990217, 53260, 
  494565, 27173, 494565, 27173, 742391, 40217, 246739, 14130, 370652, 20652, 
  370652, 20652, 246739, 14130, 990217, 53260, 259782, 261956, 259782, 261956, 
  742391, 40217, 246739, 14130, 370652, 20652, 370652, 20652, 246739, 14130, 
  742391, 40217, 246739, 14130, 246739, 14130, 122826, 7608, 370652, 20652, 
  246739, 14130, 1733695, 92391, 122826, 7608, 122826, 7608, 990217, 53260, 
  494565, 27173, 494565, 27173, 122826, 7608, 122826, 7608, 122826, 7608, 
  122826, 7608, 370652, 20652, 246739, 14130, 122826, 7608, 122826, 7608, 
  122826, 7608, 494565, 27173, 122826, 7608, 122826, 7608, 122826, 7608, 
  122826, 7608, 370652, 20652, 246739, 14130, 122826, 7608, 122826, 7608, 
  122826, 7608, 494565, 27173, 122826, 7608, 122826, 7608, 122826, 7608, 
  122826, 7608, 370652, 20652, 246739, 14130, 122826, 7608, 122826, 7608, 
  122826, 7608, 494565, 27173, 370652, 20652, 370652, 20652, 246739, 14130, 
  122826, 7608, 246739, 14130, 370652, 20652, 246739, 14130, 122826, 7608, 
  122826, 7608, 122826, 7608, 122826, 7608, 370652, 20652, 246739, 14130, 
  122826, 7608, 122826, 7608, 122826, 7608, 494565, 27173, 122826, 7608, 
  122826, 7608, 122826, 7608, 122826, 7608, 370652, 20652, 246739, 14130, 
  122826, 7608, 122826, 7608, 122826, 7608, 494565, 27173, 122826, 7608, 
  122826, 7608, 122826, 7608, 122826, 7608, 370652, 20652, 246739, 14130, 
  122826, 7608, 122826, 7608, 122826, 7608, 494565, 27173, 370652, 20652, 
  370652, 20652, 246739, 14130, 122826, 7608, 246739, 14130, 370652, 20652, 
  246739, 14130, 122826, 7608, 122826, 7608, 122826, 7608, 122826, 7608, 
  370652, 20652, 246739, 14130, 122826, 7608, 122826, 7608, 122826, 7608, 
  494565, 27173, 122826, 7608, 122826, 7608, 122826, 7608, 122826, 7608, 
  370652, 20652, 246739, 14130, 122826, 7608, 122826, 7608, 122826, 7608, 
  494565, 27173, 122826, 7608, 122826, 7608, 122826, 7608, 122826, 7608, 
  370652, 20652, 246739, 14130, 122826, 7608, 122826, 7608, 122826, 7608, 
  494565, 27173, 370652, 20652, 370652, 20652, 246739, 14130, 122826, 7608, 
  246739, 14130, 370652, 20652, 246739, 14130, 122826, 7608, 122826, 7608, 
  122826, 7608, 122826, 7608, 370652, 20652, 246739, 14130, 122826, 7608, 
  122826, 7608, 122826, 7608, 494565, 27173, 122826, 7608, 122826, 7608, 
  122826, 7608, 122826, 7608, 370652, 20652, 246739, 14130, 122826, 7608, 
  122826, 7608, 122826, 7608, 494565, 27173, 122826, 7608, 122826, 7608, 
  122826, 7608, 122826, 7608, 370652, 20652, 246739, 14130, 122826, 7608, 
  122826, 7608, 122826, 7608, 494565, 27173, 370652, 20652, 370652, 20652, 
  246739, 14130, 122826, 7608, 246739, 14130, 370652, 20652, 246739, 14130, 
  122826, 7608, 122826, 7608, 122826, 7608, 122826, 7608, 370652, 20652, 
  246739, 14130, 122826, 7608, 122826, 7608, 122826, 7608, 494565, 27173, 
  122826, 7608, 122826, 7608, 122826, 7608, 122826, 7608, 370652, 20652, 
  246739, 14130, 122826, 7608, 122826, 7608, 122826, 7608, 494565, 27173, 
  122826, 7608, 122826, 7608, 122826, 7608, 122826, 7608, 370652, 20652, 
  246739, 14130, 122826, 7608, 122826, 7608, 122826, 7608, 494565, 27173, 
  370652, 20652, 370652, 20652, 246739, 14130, 122826, 7608, 246739, 14130, 
  370652, 20652, 246739, 14130, 122826, 7608, 122826, 7608, 122826, 7608, 
  122826, 7608, 370652, 20652, 246739, 14130, 122826, 7608, 122826, 7608, 
  122826, 7608, 494565, 27173, 122826, 7608, 122826, 7608, 122826, 7608, 
  122826, 7608, 370652, 20652, 246739, 14130, 122826, 7608, 122826, 7608, 
  122826, 7608, 494565, 27173, 122826, 7608, 122826, 7608, 122826, 7608, 
  122826, 7608, 370652, 20652, 246739, 14130, 122826, 7608, 122826, 7608, 
  122826, 7608, 494565, 27173, 370652, 20652, 370652, 20652, 246739, 14130, 
  122826, 7608, 246739, 14130, 370652, 20652, 246739, 14130, 1485869, 79347, 
  246739, 14130, 246739, 14130, 742391, 40217, 246739, 14130, 122826, 7608, 
  246739, 14130, 370652, 20652, 246739, 14130, 990217, 53260, 246739, 14130, 
  122826, 7608, 246739, 14130, 122826, 7608, 246739, 14130, 990217, 53260, 
  370652, 20652, 370652, 20652, 246739, 14130, 1485869, 79347, 246739, 14130, 
  246739, 14130, 742391, 40217, 246739, 14130, 246739, 14130, 122826, 7608, 
  370652, 20652, 246739, 14130, 1485869, 79347, 246739, 14130, 246739, 14130, 
  742391, 40217, 246739, 14130, 246739, 14130, 122826, 7608, 370652, 20652, 
  246739, 14130, 1485869, 79347, 246739, 14130, 246739, 14130, 742391, 40217, 
  246739, 14130, 246739, 14130, 122826, 7608, 370652, 20652, 246739, 14130, 
  1981521, 105434, 370652, 20652, 370652, 20652, 246739, 14130, 0, 0, 
  0, 0, 122826, 7608, 246739, 14130, 122826, 7608, 246739, 14130, 
  246739, 14130, 122826, 7608, 122826, 7608, 122826, 7608, 122826, 7608, 
  246739, 14130, 246739, 14130, 370652, 20652, 370652, 20652, 122826, 7608, 
  122826, 7608, 370652, 20652, 246739, 14130, 122826, 7608, 246739, 14130, 
  990217, 53260, 122826, 7608, 122826, 7608, 122826, 7608, 122826, 7608, 
  246739, 14130, 246739, 14130, 370652, 20652, 370652, 20652, 122826, 7608, 
  122826, 7608, 370652, 20652, 246739, 14130, 122826, 7608, 246739, 14130, 
  990217, 53260, 122826, 7608, 122826, 7608, 122826, 7608, 122826, 7608, 
  246739, 14130, 246739, 14130, 370652, 20652, 370652, 20652, 122826, 7608, 
  122826, 7608, 370652, 20652, 246739, 14130, 122826, 7608, 246739, 14130, 
  990217, 53260, 122826, 7608, 122826, 7608, 122826, 7608, 122826, 7608, 
  246739, 14130, 246739, 14130, 370652, 20652, 370652, 20652, 122826, 7608, 
  122826, 7608, 370652, 20652, 246739, 14130, 122826, 7608, 246739, 14130, 
  990217, 53260
};
const PROGMEM unsigned long melody2[] = {
  NOTE_GS3, 0, NOTE_GS3, 0, NOTE_B3, 0, NOTE_B3, 0, NOTE_CS4, 0, 
  NOTE_FS3, 0, NOTE_FS3, 0, NOTE_B3, 0, NOTE_B3, 0, NOTE_GS3, 0, 
  NOTE_FS3, 0, NOTE_FS3, 0, NOTE_B3, 0, NOTE_B3, 0, NOTE_B3, 0, 
  NOTE_A3, 0, NOTE_FS3, 0, NOTE_GS3, 0, NOTE_FS3, 0, NOTE_E3, 0, 
  NOTE_FS3, 0, NOTE_GS3, 0, NOTE_CS3, 0, NOTE_GS3, 0, NOTE_GS3, 0, 
  NOTE_B3, 0, NOTE_B3, 0, NOTE_CS4, 0, NOTE_DS4, 0, NOTE_DS4, 0, 
  NOTE_B3, 0, NOTE_B3, 0, NOTE_DS4, 0, NOTE_E4, 0, NOTE_DS4, 0, 
  NOTE_CS4, 0, NOTE_B3, 0, NOTE_DS4, 0, NOTE_DS4, 0, NOTE_CS4, 0, 
  NOTE_B3, 0, NOTE_E3, 0, NOTE_FS3, 0, NOTE_B3, 0, NOTE_GS3, 0, 
  NOTE_DS3, 0, NOTE_FS3, 0, NOTE_A2, 0, NOTE_E3, 0, NOTE_CS3, 0, 
  NOTE_E3, 0, NOTE_A2, 0, NOTE_E3, 0, NOTE_CS3, 0, NOTE_E3, 0, 
  NOTE_A2, 0, NOTE_E3, 0, NOTE_CS3, 0, NOTE_E3, 0, NOTE_A2, 0, 
  NOTE_E3, 0, NOTE_CS3, 0, NOTE_E3, 0, NOTE_A2, 0, NOTE_E3, 0, 
  NOTE_CS3, 0, NOTE_E3, 0, NOTE_A2, 0, NOTE_E3, 0, NOTE_CS3, 0, 
  NOTE_E3, 0, NOTE_A2, 0, NOTE_E3, 0, NOTE_CS3, 0, NOTE_E3, 0, 
  NOTE_B2, 0, NOTE_FS3, 0, NOTE_DS3, 0, NOTE_FS3, 0, NOTE_CS3, 0, 
  NOTE_GS3, 0, NOTE_E3, 0, NOTE_GS3, 0, NOTE_CS3, 0, NOTE_GS3, 0, 
  NOTE_E3, 0, NOTE_GS3, 0, NOTE_CS3, 0, NOTE_GS3, 0, NOTE_E3, 0, 
  NOTE_GS3, 0, NOTE_CS3, 0, NOTE_GS3, 0, NOTE_E3, 0, NOTE_GS3, 0, 
  NOTE_CS3, 0, NOTE_GS3, 0, NOTE_E3, 0, NOTE_GS3, 0, NOTE_CS3, 0, 
  NOTE_GS3, 0, NOTE_E3, 0, NOTE_GS3, 0, NOTE_GS3, 0, NOTE_FS3, 0, 
  NOTE_FS2, 0, NOTE_CS3, 0, NOTE_A2, 0, NOTE_CS3, 0, NOTE_FS2, 0, 
  NOTE_CS3, 0, NOTE_A2, 0, NOTE_CS3, 0, NOTE_FS2, 0, NOTE_CS3, 0, 
  NOTE_A2, 0, NOTE_CS3, 0, NOTE_FS2, 0, NOTE_CS3, 0, NOTE_A2, 0, 
  NOTE_CS3, 0, NOTE_GS2, 0, NOTE_DS3, 0, NOTE_B2, 0, NOTE_DS3, 0, 
  NOTE_GS2, 0, NOTE_DS3, 0, NOTE_B2, 0, NOTE_DS3, 0, NOTE_GS2, 0, 
  NOTE_DS3, 0, NOTE_B2, 0, NOTE_DS3, 0, NOTE_GS2, 0, NOTE_DS3, 0, 
  NOTE_B2, 0, NOTE_DS3, 0, NOTE_A2, 0, NOTE_E3, 0, NOTE_CS3, 0, 
  NOTE_E3, 0, NOTE_A2, 0, NOTE_E3, 0, NOTE_CS3, 0, NOTE_E3, 0, 
  NOTE_A2, 0, NOTE_E3, 0, NOTE_CS3, 0, NOTE_E3, 0, NOTE_A2, 0, 
  NOTE_E3, 0, NOTE_CS3, 0, NOTE_E3, 0, NOTE_GS2, 0, NOTE_DS3, 0, 
  NOTE_B2, 0, NOTE_DS3, 0, NOTE_GS2, 0, NOTE_DS3, 0, NOTE_B2, 0, 
  NOTE_DS3, 0, NOTE_DS3, 0, NOTE_FS3, 0, NOTE_A2, 0, NOTE_E3, 0, 
  NOTE_CS3, 0, NOTE_E3, 0, NOTE_A2, 0, NOTE_E3, 0, NOTE_CS3, 0, 
  NOTE_E3, 0, NOTE_A2, 0, NOTE_E3, 0, NOTE_CS3, 0, NOTE_E3, 0, 
  NOTE_A2, 0, NOTE_E3, 0, NOTE_CS3, 0, NOTE_E3, 0, NOTE_A2, 0, 
  NOTE_E3, 0, NOTE_CS3, 0, NOTE_E3, 0, NOTE_A2, 0, NOTE_E3, 0, 
  NOTE_CS3, 0, NOTE_E3, 0, NOTE_A2, 0, NOTE_E3, 0, NOTE_CS3, 0, 
  NOTE_E3, 0, NOTE_B2, 0, NOTE_FS3, 0, NOTE_DS3, 0, NOTE_FS3, 0, 
  NOTE_CS3, 0, NOTE_GS3, 0, NOTE_E3, 0, NOTE_GS3, 0, NOTE_CS3, 0, 
  NOTE_GS3, 0, NOTE_E3, 0, NOTE_GS3, 0, NOTE_CS3, 0, NOTE_GS3, 0, 
  NOTE_E3, 0, NOTE_GS3, 0, NOTE_CS3, 0, NOTE_GS3, 0, NOTE_E3, 0, 
  NOTE_GS3, 0, NOTE_CS3, 0, NOTE_GS3, 0, NOTE_E3, 0, NOTE_GS3, 0, 
  NOTE_CS3, 0, NOTE_GS3, 0, NOTE_E3, 0, NOTE_GS3, 0, NOTE_GS3, 0, 
  NOTE_FS3, 0, NOTE_FS2, 0, NOTE_CS3, 0, NOTE_A2, 0, NOTE_CS3, 0, 
  NOTE_FS2, 0, NOTE_CS3, 0, NOTE_A2, 0, NOTE_CS3, 0, NOTE_FS2, 0, 
  NOTE_CS3, 0, NOTE_A2, 0, NOTE_CS3, 0, NOTE_FS2, 0, NOTE_CS3, 0, 
  NOTE_A2, 0, NOTE_CS3, 0, NOTE_GS2, 0, NOTE_DS3, 0, NOTE_B2, 0, 
  NOTE_DS3, 0, NOTE_GS2, 0, NOTE_DS3, 0, NOTE_B2, 0, NOTE_DS3, 0, 
  NOTE_GS2, 0, NOTE_DS3, 0, NOTE_B2, 0, NOTE_DS3, 0, NOTE_GS2, 0, 
  NOTE_DS3, 0, NOTE_B2, 0, NOTE_DS3, 0, NOTE_A2, 0, NOTE_E3, 0, 
  NOTE_CS3, 0, NOTE_E3, 0, NOTE_A2, 0, NOTE_E3, 0, NOTE_CS3, 0, 
  NOTE_E3, 0, NOTE_A2, 0, NOTE_E3, 0, NOTE_CS3, 0, NOTE_E3, 0, 
  NOTE_A2, 0, NOTE_E3, 0, NOTE_CS3, 0, NOTE_E3, 0, NOTE_GS2, 0, 
  NOTE_DS3, 0, NOTE_B2, 0, NOTE_DS3, 0, NOTE_GS2, 0, NOTE_DS3, 0, 
  NOTE_B2, 0, NOTE_DS3, 0, NOTE_GS3, 0, NOTE_FS3, 0, NOTE_A2, 0, 
  NOTE_A2, 0, NOTE_A2, 0, NOTE_A2, 0, NOTE_A2, 0, NOTE_B2, 0, 
  NOTE_A2, 0, NOTE_A2, 0, NOTE_A2, 0, NOTE_A2, 0, NOTE_A2, 0, 
  NOTE_B2, 0, NOTE_CS3, 0, NOTE_CS3, 0, NOTE_CS3, 0, NOTE_CS3, 0, 
  NOTE_CS3, 0, NOTE_B2, 0, NOTE_GS2, 0, NOTE_GS2, 0, NOTE_GS2, 0, 
  NOTE_GS2, 0, NOTE_GS2, 0, NOTE_GS2, 0, NOTE_A2, 0, NOTE_A2, 0, 
  NOTE_A2, 0, NOTE_A2, 0, NOTE_A2, 0, NOTE_B2, 0, NOTE_A2, 0, 
  NOTE_A2, 0, NOTE_A2, 0, NOTE_A2, 0, NOTE_A2, 0, NOTE_B2, 0, 
  NOTE_CS3, 0, NOTE_CS3, 0, NOTE_CS3, 0, NOTE_CS3, 0, NOTE_CS3, 0, 
  NOTE_B2, 0, NOTE_GS2, 0, NOTE_GS2, 0, NOTE_GS2, 0, NOTE_GS2, 0, 
  NOTE_GS2, 0, NOTE_GS2, 0, NOTE_A2, 0, NOTE_E3, 0, NOTE_CS3, 0, 
  NOTE_E3, 0, NOTE_A2, 0, NOTE_E3, 0, NOTE_CS3, 0, NOTE_E3, 0, 
  NOTE_A2, 0, NOTE_E3, 0, NOTE_CS3, 0, NOTE_E3, 0, NOTE_A2, 0, 
  NOTE_E3, 0, NOTE_CS3, 0, NOTE_E3, 0, NOTE_A2, 0, NOTE_E3, 0, 
  NOTE_CS3, 0, NOTE_E3, 0, NOTE_A2, 0, NOTE_E3, 0, NOTE_CS3, 0, 
  NOTE_E3, 0, NOTE_A2, 0, NOTE_E3, 0, NOTE_CS3, 0, NOTE_E3, 0, 
  NOTE_B2, 0, NOTE_FS3, 0, NOTE_DS3, 0, NOTE_FS3, 0, NOTE_CS3, 0, 
  NOTE_GS3, 0, NOTE_E3, 0, NOTE_GS3, 0, NOTE_CS3, 0, NOTE_GS3, 0, 
  NOTE_E3, 0, NOTE_GS3, 0, NOTE_CS3, 0, NOTE_GS3, 0, NOTE_E3, 0, 
  NOTE_GS3, 0, NOTE_CS3, 0, NOTE_GS3, 0, NOTE_E3, 0, NOTE_GS3, 0, 
  NOTE_GS2, 0, NOTE_DS3, 0, NOTE_B2, 0, NOTE_DS3, 0, NOTE_GS2, 0, 
  NOTE_DS3, 0, NOTE_B2, 0, NOTE_DS3, 0, NOTE_GS2, 0, NOTE_DS3, 0, 
  NOTE_B2, 0, NOTE_DS3, 0, NOTE_GS2, 0, NOTE_DS3, 0, NOTE_B2, 0, 
  NOTE_DS3, 0, NOTE_A2, 0, NOTE_E3, 0, NOTE_CS3, 0, NOTE_E3, 0, 
  NOTE_A2, 0, NOTE_E3, 0, NOTE_CS3, 0, NOTE_E3, 0, NOTE_A2, 0, 
  NOTE_E3, 0, NOTE_CS3, 0, NOTE_E3, 0, NOTE_A2, 0, NOTE_E3, 0, 
  NOTE_CS3, 0, NOTE_E3, 0, NOTE_A2, 0, NOTE_E3, 0, NOTE_CS3, 0, 
  NOTE_E3, 0, NOTE_A2, 0, NOTE_E3, 0, NOTE_CS3, 0, NOTE_E3, 0, 
  NOTE_A2, 0, NOTE_E3, 0, NOTE_CS3, 0, NOTE_E3, 0, NOTE_B2, 0, 
  NOTE_FS3, 0, NOTE_DS3, 0, NOTE_FS3, 0, NOTE_CS3, 0, NOTE_GS3, 0, 
  NOTE_E3, 0, NOTE_GS3, 0, NOTE_CS3, 0, NOTE_GS3, 0, NOTE_E3, 0, 
  NOTE_GS3, 0, NOTE_CS3, 0, NOTE_GS3, 0, NOTE_E3, 0, NOTE_GS3, 0, 
  NOTE_CS3, 0, NOTE_GS3, 0, NOTE_E3, 0, NOTE_GS3, 0, NOTE_GS2, 0, 
  NOTE_DS3, 0, NOTE_C3, 0, NOTE_DS3, 0, NOTE_GS2, 0, NOTE_DS3, 0, 
  NOTE_C3, 0, NOTE_DS3, 0, NOTE_GS2, 0, NOTE_DS3, 0, NOTE_C3, 0, 
  NOTE_DS3, 0, NOTE_GS2, 0, NOTE_DS3, 0, NOTE_C3, 0, NOTE_DS3, 0, 
  NOTE_A2, 0, NOTE_E3, 0, NOTE_CS3, 0, NOTE_E3, 0, NOTE_A2, 0, 
  NOTE_E3, 0, NOTE_CS3, 0, NOTE_E3, 0, NOTE_A2, 0, NOTE_E3, 0, 
  NOTE_CS3, 0, NOTE_E3, 0, NOTE_A2, 0, NOTE_E3, 0, NOTE_CS3, 0, 
  NOTE_E3, 0, NOTE_A2, 0, NOTE_E3, 0, NOTE_CS3, 0, NOTE_E3, 0, 
  NOTE_A2, 0, NOTE_E3, 0, NOTE_CS3, 0, NOTE_E3, 0, NOTE_A2, 0, 
  NOTE_E3, 0, NOTE_CS3, 0, NOTE_E3, 0, NOTE_B2, 0, NOTE_FS3, 0, 
  NOTE_DS3, 0, NOTE_FS3, 0, NOTE_CS3, 0, NOTE_GS3, 0, NOTE_E3, 0, 
  NOTE_GS3, 0, NOTE_CS3, 0, NOTE_GS3, 0, NOTE_E3, 0, NOTE_GS3, 0, 
  NOTE_CS3, 0, NOTE_GS3, 0, NOTE_E3, 0, NOTE_GS3, 0, NOTE_CS3, 0, 
  NOTE_GS3, 0, NOTE_E3, 0, NOTE_GS3, 0, NOTE_GS2, 0, NOTE_DS3, 0, 
  NOTE_B2, 0, NOTE_DS3, 0, NOTE_GS2, 0, NOTE_DS3, 0, NOTE_B2, 0, 
  NOTE_DS3, 0, NOTE_GS2, 0, NOTE_DS3, 0, NOTE_B2, 0, NOTE_DS3, 0, 
  NOTE_GS2, 0, NOTE_DS3, 0, NOTE_B2, 0, NOTE_DS3, 0, NOTE_A2, 0, 
  NOTE_E3, 0, NOTE_CS3, 0, NOTE_E3, 0, NOTE_A2, 0, NOTE_E3, 0, 
  NOTE_CS3, 0, NOTE_E3, 0, NOTE_A2, 0, NOTE_E3, 0, NOTE_CS3, 0, 
  NOTE_E3, 0, NOTE_A2, 0, NOTE_E3, 0, NOTE_CS3, 0, NOTE_E3, 0, 
  NOTE_A2, 0, NOTE_E3, 0, NOTE_CS3, 0, NOTE_E3, 0, NOTE_A2, 0, 
  NOTE_E3, 0, NOTE_CS3, 0, NOTE_E3, 0, NOTE_A2, 0, NOTE_E3, 0, 
  NOTE_CS3, 0, NOTE_E3, 0, NOTE_B2, 0, NOTE_FS3, 0, NOTE_DS3, 0, 
  NOTE_FS3, 0, NOTE_CS3, 0, NOTE_GS3, 0, NOTE_E3, 0, NOTE_GS3, 0, 
  NOTE_CS3, 0, NOTE_GS3, 0, NOTE_E3, 0, NOTE_GS3, 0, NOTE_CS3, 0, 
  NOTE_GS3, 0, NOTE_E3, 0, NOTE_GS3, 0, NOTE_CS3, 0, NOTE_GS3, 0, 
  NOTE_E3, 0, NOTE_GS3, 0, NOTE_GS2, 0, NOTE_DS3, 0, NOTE_C3, 0, 
  NOTE_DS3, 0, NOTE_GS2, 0, NOTE_DS3, 0, NOTE_C3, 0, NOTE_DS3, 0, 
  NOTE_GS2, 0, NOTE_DS3, 0, NOTE_C3, 0, NOTE_DS3, 0, NOTE_GS2, 0, 
  NOTE_DS3, 0, NOTE_C3, 0, NOTE_DS3, 0, NOTE_CS3, 0, NOTE_GS3, 0, 
  NOTE_CS3, 0, NOTE_GS3, 0, NOTE_CS3, 0, NOTE_GS3, 0, NOTE_CS3, 0, 
  NOTE_GS3, 0, NOTE_CS3, 0, NOTE_GS3, 0, NOTE_CS3, 0, NOTE_GS3, 0, 
  NOTE_CS3, 0, NOTE_GS3, 0, NOTE_CS3, 0, NOTE_GS3, 0, NOTE_CS3, 0, 
  NOTE_GS3, 0, NOTE_CS3, 0, NOTE_GS3, 0, NOTE_CS3, 0, NOTE_GS3, 0, 
  NOTE_CS3, 0, NOTE_GS3, 0, NOTE_CS3, 0, NOTE_GS3, 0, NOTE_CS3, 0, 
  NOTE_GS3, 0, NOTE_CS3, 0, NOTE_GS3, 0, NOTE_CS3, 0, NOTE_GS3, 0, 
  NOTE_CS3, 0, NOTE_GS3, 0, NOTE_CS3, 0, NOTE_GS3, 0, NOTE_CS3, 0, 
  NOTE_GS3, 0, NOTE_CS3, 0, NOTE_GS3, 0, NOTE_CS3, 0, NOTE_GS3, 0, 
  NOTE_CS3, 0, NOTE_GS3, 0, NOTE_CS3, 0, NOTE_GS3, 0, NOTE_CS3, 0, 
  NOTE_GS3, 0, NOTE_GS2, 0, NOTE_GS3, 0, NOTE_GS2, 0, NOTE_GS3, 0, 
  NOTE_GS2, 0, NOTE_GS3, 0, NOTE_GS2, 0, NOTE_GS3, 0, NOTE_GS2, 0, 
  NOTE_GS3, 0, NOTE_GS2, 0, NOTE_GS3, 0, NOTE_GS2, 0, NOTE_GS3, 0, 
  NOTE_GS2, 0, NOTE_GS3, 0, NOTE_FS2, 0, NOTE_FS3, 0, NOTE_FS2, 0, 
  NOTE_FS3, 0, NOTE_FS2, 0, NOTE_FS3, 0, NOTE_FS2, 0, NOTE_FS3, 0, 
  NOTE_FS2, 0, NOTE_FS3, 0, NOTE_FS2, 0, NOTE_FS3, 0, NOTE_FS2, 0, 
  NOTE_FS3, 0, NOTE_FS2, 0, NOTE_FS3, 0, NOTE_GS2, 0, NOTE_GS3, 0, 
  NOTE_GS2, 0, NOTE_GS3, 0, NOTE_GS2, 0, NOTE_GS3, 0, NOTE_GS2, 0, 
  NOTE_GS3, 0, NOTE_GS2, 0, NOTE_GS3, 0, NOTE_GS2, 0, NOTE_GS3, 0, 
  NOTE_GS2, 0, NOTE_GS3, 0, NOTE_GS2, 0, NOTE_GS3, 0, NOTE_A2, 0, 
  NOTE_A3, 0, NOTE_A2, 0, NOTE_A3, 0, NOTE_A2, 0, NOTE_A3, 0, 
  NOTE_A2, 0, NOTE_A3, 0, NOTE_A2, 0, NOTE_A3, 0, NOTE_A2, 0, 
  NOTE_A3, 0, NOTE_A2, 0, NOTE_A3, 0, NOTE_A2, 0, NOTE_A3, 0, 
  NOTE_GS2, 0, NOTE_GS3, 0, NOTE_GS2, 0, NOTE_GS3, 0, NOTE_GS2, 0, 
  NOTE_GS3, 0, NOTE_GS2, 0, NOTE_GS3, 0, NOTE_GS2, 0, NOTE_GS3, 0, 
  NOTE_GS2, 0, NOTE_GS3, 0, NOTE_GS2, 0, NOTE_GS3, 0, NOTE_GS2, 0, 
  NOTE_GS3, 0, NOTE_FS2, 0, NOTE_FS3, 0, NOTE_FS2, 0, NOTE_FS3, 0, 
  NOTE_FS2, 0, NOTE_FS3, 0, NOTE_FS2, 0, NOTE_FS3, 0, NOTE_FS2, 0, 
  NOTE_FS3, 0, NOTE_FS2, 0, NOTE_FS3, 0, NOTE_FS2, 0, NOTE_FS3, 0, 
  NOTE_FS2, 0, NOTE_FS3, 0, NOTE_GS2, 0, NOTE_GS3, 0, NOTE_GS2, 0, 
  NOTE_GS3, 0, NOTE_GS2, 0, NOTE_GS3, 0, NOTE_GS2, 0, NOTE_GS3, 0, 
  NOTE_GS2, 0, NOTE_GS3, 0, NOTE_GS2, 0, NOTE_GS3, 0, NOTE_GS2, 0, 
  NOTE_GS3, 0, NOTE_GS2, 0, NOTE_GS3, 0, NOTE_A2, 0, NOTE_E3, 0, 
  NOTE_A2, 0, NOTE_E3, 0, NOTE_A2, 0, NOTE_E3, 0, NOTE_A2, 0, 
  NOTE_E3, 0, NOTE_A2, 0, NOTE_E3, 0, NOTE_A2, 0, NOTE_E3, 0, 
  NOTE_A2, 0, NOTE_E3, 0, NOTE_A2, 0, NOTE_E3, 0, NOTE_DS3, 0, 
  NOTE_E3, 0, NOTE_FS3, 0, NOTE_GS3, 0, NOTE_CS3, 0, NOTE_E3, 0, 
  NOTE_FS3, 0, NOTE_GS3, 0, NOTE_GS3, 0, NOTE_CS3, 0, NOTE_E3, 0, 
  NOTE_FS3, 0, NOTE_GS3, 0, NOTE_GS3, 0, NOTE_FS5, 0, NOTE_E5, 0, 
  NOTE_DS5, 0, NOTE_E5, 0, NOTE_CS5, 0, NOTE_CS3, 0, NOTE_AS4, 0, 
  NOTE_FS4, 0, NOTE_GS4, 0, NOTE_E3, 0, NOTE_B4, 0, NOTE_FS3, 0, 
  NOTE_GS4, 0, NOTE_DS5, 0, NOTE_GS3, 0, NOTE_GS3, 0, NOTE_FS5, 0, 
  NOTE_E5, 0, NOTE_DS5, 0, NOTE_E5, 0, NOTE_CS5, 0, NOTE_CS3, 0, 
  NOTE_AS4, 0, NOTE_FS4, 0, NOTE_GS4, 0, NOTE_E3, 0, NOTE_B4, 0, 
  NOTE_FS3, 0, NOTE_FS4, 0, NOTE_B4, 0, NOTE_GS3
};
const PROGMEM unsigned long delays2[] = {
  246739, 14130, 246739, 14130, 246739, 14130, 246739, 14130, 990217, 53260, 
  246739, 14130, 246739, 14130, 246739, 14130, 246739, 14130, 990217, 53260, 
  246739, 14130, 246739, 14130, 246739, 14130, 246739, 14130, 246739, 14130, 
  246739, 14130, 246739, 14130, 246739, 14130, 246739, 14130, 246739, 14130, 
  246739, 14130, 246739, 14130, 990217, 53260, 246739, 14130, 246739, 14130, 
  246739, 14130, 246739, 14130, 990217, 53260, 246739, 14130, 246739, 14130, 
  246739, 14130, 246739, 14130, 494565, 27173, 494565, 27173, 246739, 14130, 
  246739, 14130, 246739, 14130, 246739, 14130, 494565, 27173, 494565, 27173, 
  246739, 14130, 246739, 14130, 246739, 14130, 246739, 14130, 1485869, 79347, 
  494565, 27173, 494565, 27173, 122826, 7608, 122826, 7608, 122826, 7608, 
  122826, 7608, 122826, 7608, 122826, 7608, 122826, 7608, 122826, 7608, 
  122826, 7608, 122826, 7608, 122826, 7608, 122826, 7608, 122826, 7608, 
  122826, 7608, 122826, 7608, 122826, 7608, 122826, 7608, 122826, 7608, 
  122826, 7608, 122826, 7608, 122826, 7608, 122826, 7608, 122826, 7608, 
  122826, 7608, 122826, 7608, 122826, 7608, 122826, 7608, 122826, 7608, 
  122826, 7608, 122826, 7608, 122826, 7608, 122826, 7608, 122826, 7608, 
  122826, 7608, 122826, 7608, 122826, 7608, 122826, 7608, 122826, 7608, 
  122826, 7608, 122826, 7608, 122826, 7608, 122826, 7608, 122826, 7608, 
  122826, 7608, 122826, 7608, 122826, 7608, 122826, 7608, 122826, 7608, 
  122826, 7608, 122826, 7608, 122826, 7608, 122826, 7608, 122826, 7608, 
  122826, 7608, 122826, 7608, 122826, 7608, 494565, 27173, 494565, 27173, 
  122826, 7608, 122826, 7608, 122826, 7608, 122826, 7608, 122826, 7608, 
  122826, 7608, 122826, 7608, 122826, 7608, 122826, 7608, 122826, 7608, 
  122826, 7608, 122826, 7608, 122826, 7608, 122826, 7608, 122826, 7608, 
  122826, 7608, 122826, 7608, 122826, 7608, 122826, 7608, 122826, 7608, 
  122826, 7608, 122826, 7608, 122826, 7608, 122826, 7608, 122826, 7608, 
  122826, 7608, 122826, 7608, 122826, 7608, 122826, 7608, 122826, 7608, 
  122826, 7608, 122826, 7608, 122826, 7608, 122826, 7608, 122826, 7608, 
  122826, 7608, 122826, 7608, 122826, 7608, 122826, 7608, 122826, 7608, 
  122826, 7608, 122826, 7608, 122826, 7608, 122826, 7608, 122826, 7608, 
  122826, 7608, 122826, 7608, 122826, 7608, 122826, 7608, 122826, 7608, 
  122826, 7608, 122826, 7608, 122826, 7608, 122826, 7608, 122826, 7608, 
  122826, 7608, 494565, 27173, 494565, 27173, 122826, 7608, 122826, 7608, 
  122826, 7608, 122826, 7608, 122826, 7608, 122826, 7608, 122826, 7608, 
  122826, 7608, 122826, 7608, 122826, 7608, 122826, 7608, 122826, 7608, 
  122826, 7608, 122826, 7608, 122826, 7608, 122826, 7608, 122826, 7608, 
  122826, 7608, 122826, 7608, 122826, 7608, 122826, 7608, 122826, 7608, 
  122826, 7608, 122826, 7608, 122826, 7608, 122826, 7608, 122826, 7608, 
  122826, 7608, 122826, 7608, 122826, 7608, 122826, 7608, 122826, 7608, 
  122826, 7608, 122826, 7608, 122826, 7608, 122826, 7608, 122826, 7608, 
  122826, 7608, 122826, 7608, 122826, 7608, 122826, 7608, 122826, 7608, 
  122826, 7608, 122826, 7608, 122826, 7608, 122826, 7608, 122826, 7608, 
  122826, 7608, 122826, 7608, 122826, 7608, 122826, 7608, 122826, 7608, 
  122826, 7608, 122826, 7608, 122826, 7608, 122826, 7608, 494565, 27173, 
  494565, 27173, 122826, 7608, 122826, 7608, 122826, 7608, 122826, 7608, 
  122826, 7608, 122826, 7608, 122826, 7608, 122826, 7608, 122826, 7608, 
  122826, 7608, 122826, 7608, 122826, 7608, 122826, 7608, 122826, 7608, 
  122826, 7608, 122826, 7608, 122826, 7608, 122826, 7608, 122826, 7608, 
  122826, 7608, 122826, 7608, 122826, 7608, 122826, 7608, 122826, 7608, 
  122826, 7608, 122826, 7608, 122826, 7608, 122826, 7608, 122826, 7608, 
  122826, 7608, 122826, 7608, 122826, 7608, 122826, 7608, 122826, 7608, 
  122826, 7608, 122826, 7608, 122826, 7608, 122826, 7608, 122826, 7608, 
  122826, 7608, 122826, 7608, 122826, 7608, 122826, 7608, 122826, 7608, 
  122826, 7608, 122826, 7608, 122826, 7608, 122826, 7608, 122826, 7608, 
  122826, 7608, 122826, 7608, 122826, 7608, 122826, 7608, 122826, 7608, 
  122826, 7608, 122826, 7608, 494565, 27173, 494565, 27173, 370652, 20652, 
  494565, 27173, 370652, 20652, 246739, 14130, 246739, 14130, 246739, 14130, 
  370652, 20652, 494565, 27173, 370652, 20652, 246739, 14130, 246739, 14130, 
  246739, 14130, 370652, 20652, 494565, 27173, 370652, 20652, 246739, 14130, 
  246739, 14130, 246739, 14130, 370652, 20652, 370652, 20652, 246739, 14130, 
  370652, 20652, 370652, 20652, 246739, 14130, 370652, 20652, 494565, 27173, 
  370652, 20652, 246739, 14130, 246739, 14130, 246739, 14130, 370652, 20652, 
  494565, 27173, 370652, 20652, 246739, 14130, 246739, 14130, 246739, 14130, 
  370652, 20652, 494565, 27173, 370652, 20652, 246739, 14130, 246739, 14130, 
  246739, 14130, 370652, 20652, 370652, 20652, 246739, 14130, 370652, 20652, 
  370652, 20652, 246739, 14130, 122826, 7608, 122826, 7608, 122826, 7608, 
  122826, 7608, 122826, 7608, 122826, 7608, 122826, 7608, 122826, 7608, 
  122826, 7608, 122826, 7608, 122826, 7608, 122826, 7608, 122826, 7608, 
  122826, 7608, 122826, 7608, 122826, 7608, 122826, 7608, 122826, 7608, 
  122826, 7608, 122826, 7608, 122826, 7608, 122826, 7608, 122826, 7608, 
  122826, 7608, 122826, 7608, 122826, 7608, 122826, 7608, 122826, 7608, 
  122826, 7608, 122826, 7608, 122826, 7608, 122826, 7608, 122826, 7608, 
  122826, 7608, 122826, 7608, 122826, 7608, 122826, 7608, 122826, 7608, 
  122826, 7608, 122826, 7608, 122826, 7608, 122826, 7608, 122826, 7608, 
  122826, 7608, 122826, 7608, 122826, 7608, 122826, 7608, 122826, 7608, 
  122826, 7608, 122826, 7608, 122826, 7608, 122826, 7608, 122826, 7608, 
  122826, 7608, 122826, 7608, 122826, 7608, 122826, 7608, 122826, 7608, 
  122826, 7608, 122826, 7608, 122826, 7608, 122826, 7608, 122826, 7608, 
  122826, 7608, 122826, 7608, 122826, 7608, 122826, 7608, 122826, 7608, 
  122826, 7608, 122826, 7608, 122826, 7608, 122826, 7608, 122826, 7608, 
  122826, 7608, 122826, 7608, 122826, 7608, 122826, 7608, 122826, 7608, 
  122826, 7608, 122826, 7608, 122826, 7608, 122826, 7608, 122826, 7608, 
  122826, 7608, 122826, 7608, 122826, 7608, 122826, 7608, 122826, 7608, 
  122826, 7608, 122826, 7608, 122826, 7608, 122826, 7608, 122826, 7608, 
  122826, 7608, 122826, 7608, 122826, 7608, 122826, 7608, 122826, 7608, 
  122826, 7608, 122826, 7608, 122826, 7608, 122826, 7608, 122826, 7608, 
  122826, 7608, 122826, 7608, 122826, 7608, 122826, 7608, 122826, 7608, 
  122826, 7608, 122826, 7608, 122826, 7608, 122826, 7608, 122826, 7608, 
  122826, 7608, 122826, 7608, 122826, 7608, 122826, 7608, 122826, 7608, 
  122826, 7608, 122826, 7608, 122826, 7608, 122826, 7608, 122826, 7608, 
  122826, 7608, 122826, 7608, 122826, 7608, 122826, 7608, 122826, 7608, 
  122826, 7608, 122826, 7608, 122826, 7608, 122826, 7608, 122826, 7608, 
  122826, 7608, 122826, 7608, 122826, 7608, 122826, 7608, 122826, 7608, 
  122826, 7608, 122826, 7608, 122826, 7608, 122826, 7608, 122826, 7608, 
  122826, 7608, 122826, 7608, 122826, 7608, 122826, 7608, 122826, 7608, 
  122826, 7608, 122826, 7608, 122826, 7608, 122826, 7608, 122826, 7608, 
  122826, 7608, 122826, 7608, 122826, 7608, 122826, 7608, 122826, 7608, 
  122826, 7608, 122826, 7608, 122826, 7608, 122826, 7608, 122826, 7608, 
  122826, 7608, 122826, 7608, 122826, 7608, 122826, 7608, 122826, 7608, 
  122826, 7608, 122826, 7608, 122826, 7608, 122826, 7608, 122826, 7608, 
  122826, 7608, 122826, 7608, 122826, 7608, 122826, 7608, 122826, 7608, 
  122826, 7608, 122826, 7608, 122826, 7608, 122826, 7608, 122826, 7608, 
  122826, 7608, 122826, 7608, 122826, 7608, 122826, 7608, 122826, 7608, 
  122826, 7608, 122826, 7608, 122826, 7608, 122826, 7608, 122826, 7608, 
  122826, 7608, 122826, 7608, 122826, 7608, 122826, 7608, 122826, 7608, 
  122826, 7608, 122826, 7608, 122826, 7608, 122826, 7608, 122826, 7608, 
  122826, 7608, 122826, 7608, 122826, 7608, 122826, 7608, 122826, 7608, 
  122826, 7608, 122826, 7608, 122826, 7608, 122826, 7608, 122826, 7608, 
  122826, 7608, 122826, 7608, 122826, 7608, 122826, 7608, 122826, 7608, 
  122826, 7608, 122826, 7608, 122826, 7608, 122826, 7608, 122826, 7608, 
  122826, 7608, 122826, 7608, 122826, 7608, 122826, 7608, 122826, 7608, 
  122826, 7608, 122826, 7608, 122826, 7608, 122826, 7608, 122826, 7608, 
  122826, 7608, 122826, 7608, 122826, 7608, 122826, 7608, 122826, 7608, 
  122826, 7608, 122826, 7608, 122826, 7608, 122826, 7608, 122826, 7608, 
  122826, 7608, 122826, 7608, 122826, 7608, 122826, 7608, 122826, 7608, 
  122826, 7608, 122826, 7608, 122826, 7608, 122826, 7608, 122826, 7608, 
  122826, 7608, 122826, 7608, 122826, 7608, 122826, 7608, 122826, 7608, 
  122826, 7608, 122826, 7608, 122826, 7608, 122826, 7608, 122826, 7608, 
  122826, 7608, 122826, 7608, 122826, 7608, 122826, 7608, 122826, 7608, 
  122826, 7608, 122826, 7608, 122826, 7608, 122826, 7608, 122826, 7608, 
  122826, 7608, 122826, 7608, 122826, 7608, 122826, 7608, 122826, 7608, 
  122826, 7608, 122826, 7608, 122826, 7608, 122826, 7608, 122826, 7608, 
  122826, 7608, 122826, 7608, 122826, 7608, 122826, 7608, 122826, 7608, 
  122826, 7608, 122826, 7608, 122826, 7608, 122826, 7608, 122826, 7608, 
  122826, 7608, 122826, 7608, 122826, 7608, 122826, 7608, 122826, 7608, 
  122826, 7608, 122826, 7608, 122826, 7608, 122826, 7608, 122826, 7608, 
  122826, 7608, 122826, 7608, 122826, 7608, 122826, 7608, 122826, 7608, 
  122826, 7608, 122826, 7608, 122826, 7608, 122826, 7608, 122826, 7608, 
  122826, 7608, 122826, 7608, 122826, 7608, 122826, 7608, 122826, 7608, 
  122826, 7608, 122826, 7608, 122826, 7608, 122826, 7608, 122826, 7608, 
  122826, 7608, 122826, 7608, 122826, 7608, 122826, 7608, 122826, 7608, 
  122826, 7608, 122826, 7608, 122826, 7608, 122826, 7608, 122826, 7608, 
  122826, 7608, 122826, 7608, 122826, 7608, 122826, 7608, 122826, 7608, 
  122826, 7608, 122826, 7608, 122826, 7608, 122826, 7608, 122826, 7608, 
  122826, 7608, 122826, 7608, 122826, 7608, 122826, 7608, 122826, 7608, 
  122826, 7608, 122826, 7608, 122826, 7608, 122826, 7608, 122826, 7608, 
  122826, 7608, 122826, 7608, 122826, 7608, 122826, 7608, 122826, 7608, 
  122826, 7608, 122826, 7608, 122826, 7608, 122826, 7608, 122826, 7608, 
  122826, 7608, 122826, 7608, 122826, 7608, 122826, 7608, 122826, 7608, 
  122826, 7608, 122826, 7608, 122826, 7608, 122826, 7608, 122826, 7608, 
  122826, 7608, 122826, 7608, 122826, 7608, 122826, 7608, 122826, 7608, 
  122826, 7608, 122826, 7608, 122826, 7608, 122826, 7608, 122826, 7608, 
  122826, 7608, 122826, 7608, 122826, 7608, 122826, 7608, 122826, 7608, 
  122826, 7608, 122826, 7608, 122826, 7608, 122826, 7608, 122826, 7608, 
  122826, 7608, 122826, 7608, 122826, 7608, 122826, 7608, 122826, 7608, 
  122826, 7608, 122826, 7608, 122826, 7608, 122826, 7608, 122826, 7608, 
  122826, 7608, 122826, 7608, 122826, 7608, 122826, 7608, 122826, 7608, 
  122826, 7608, 122826, 7608, 122826, 7608, 122826, 7608, 122826, 7608, 
  122826, 7608, 122826, 7608, 122826, 7608, 122826, 7608, 122826, 7608, 
  122826, 7608, 122826, 7608, 122826, 7608, 122826, 7608, 122826, 7608, 
  122826, 7608, 122826, 7608, 122826, 7608, 122826, 7608, 122826, 7608, 
  122826, 7608, 122826, 7608, 122826, 7608, 122826, 7608, 990217, 53260, 
  494565, 27173, 494565, 27173, 990217, 53260, 990217, 53260, 494565, 27173, 
  494565, 27173, 990217, 53260, 990217, 53260, 990217, 53260, 494565, 27173, 
  494565, 27173, 990217, 53260, 122826, 7608, 122826, 7608, 122826, 7608, 
  122826, 7608, 246739, 14130, 246739, 14130, 370652, 20652, 370652, 20652, 
  122826, 7608, 122826, 7608, 370652, 20652, 122826, 7608, 122826, 7608, 
  122826, 7608, 246739, 14130, 990217, 53260, 122826, 7608, 122826, 7608, 
  122826, 7608, 122826, 7608, 246739, 14130, 246739, 14130, 370652, 20652, 
  370652, 20652, 122826, 7608, 122826, 7608, 370652, 20652, 122826, 7608, 
  122826, 7608, 122826, 7608, 246739, 14130, 990217
};
