const PROGMEM int melody1[] = {
	NOTE_C3, 0, NOTE_G3, 0, NOTE_E3, 0, NOTE_C4, 0, NOTE_F3, 0, 
	NOTE_C4, 0, NOTE_FS3, 0, NOTE_C4, 0, NOTE_E3, 0, NOTE_C4, 0, 
	NOTE_DS3, 0, NOTE_C4, 0, NOTE_D3, 0, NOTE_C4, 0, NOTE_G2, 0, 
	NOTE_B3, 0, NOTE_C3, 0, NOTE_G3, 0, NOTE_E3, 0, NOTE_C4, 0, 
	NOTE_F3, 0, NOTE_C4, 0, NOTE_FS3, 0, NOTE_C4, 0, NOTE_D3, 0, 
	NOTE_A3, 0, NOTE_G2, 0, NOTE_B3, 0, NOTE_C3, 0, NOTE_G3, 0, 
	NOTE_C3, 0, NOTE_C4, 0, NOTE_C3, 0, NOTE_G3, 0, NOTE_E3, 0, 
	NOTE_C4, 0, NOTE_F3, 0, NOTE_C4, 0, NOTE_FS3, 0, NOTE_C4, 0, 
	NOTE_E3, 0, NOTE_C4, 0, NOTE_DS3, 0, NOTE_C4, 0, NOTE_D3, 0, 
	NOTE_C4, 0, NOTE_G2, 0, NOTE_B3, 0, NOTE_C3, 0, NOTE_G3, 0, 
	NOTE_E3, 0, NOTE_C4, 0, NOTE_F3, 0, NOTE_C4, 0, NOTE_FS3, 0, 
	NOTE_C4, 0, NOTE_D3, 0, NOTE_A3, 0, NOTE_G2, 0, NOTE_B3, 0, 
	NOTE_C3, 0, NOTE_G3, 0, NOTE_C3, 0, NOTE_C4, 0, NOTE_F3, 0, 
	NOTE_C4, 0, NOTE_F3, 0, NOTE_C4, 0, NOTE_E3, 0, NOTE_C4, 0, 
	NOTE_E3, 0, NOTE_C4, 0, NOTE_DS3, 0, NOTE_C4, 0, NOTE_DS3, 0, 
	NOTE_C4, 0, NOTE_D3, 0, NOTE_C4, 0, NOTE_G2, 0, NOTE_B3, 0, 
	NOTE_F3, 0, NOTE_C4, 0, NOTE_F3, 0, NOTE_C4, 0, NOTE_E3, 0, 
	NOTE_C4, 0, NOTE_E3, 0, NOTE_C4, 0, NOTE_DS3, 0, NOTE_C4, 0, 
	NOTE_DS3, 0, NOTE_C4, 0, NOTE_D3, 0, NOTE_C4, 0, NOTE_G2, 0, 
	NOTE_B3, 0, NOTE_C3, 0, NOTE_G3, 0, NOTE_C3, 0, NOTE_G3, 0, 
	NOTE_AS2, 0, NOTE_G3, 0, NOTE_AS2, 0, NOTE_G3, 0, NOTE_A2, 0, 
	NOTE_F3, 0, NOTE_A2, 0, NOTE_F3, 0, NOTE_GS2, 0, NOTE_F3, 0, 
	NOTE_GS2, 0, NOTE_F3, 0, NOTE_F3, 0, NOTE_C3, 0, NOTE_G3, 0, 
	NOTE_G2, 0, NOTE_D3, 0, NOTE_C2, 0
};
const PROGMEM int delays1[] = {
	189, 10, 189, 10, 189, 10, 189, 10, 189, 10, 
	189, 10, 189, 10, 189, 10, 189, 10, 189, 10, 
	189, 10, 189, 10, 189, 10, 189, 10, 189, 10, 
	189, 10, 189, 10, 189, 10, 189, 10, 189, 10, 
	189, 10, 189, 10, 189, 10, 189, 10, 189, 10, 
	189, 10, 189, 10, 189, 10, 189, 10, 189, 10, 
	189, 10, 189, 10, 189, 10, 189, 10, 189, 10, 
	189, 10, 189, 10, 189, 10, 189, 10, 189, 10, 
	189, 10, 189, 10, 189, 10, 189, 10, 189, 10, 
	189, 10, 189, 10, 189, 10, 189, 10, 189, 10, 
	189, 10, 189, 10, 189, 10, 189, 10, 189, 10, 
	189, 10, 189, 10, 189, 10, 189, 10, 189, 10, 
	189, 10, 189, 10, 189, 10, 189, 10, 189, 10, 
	189, 10, 189, 10, 189, 10, 189, 10, 189, 10, 
	189, 10, 189, 10, 189, 10, 189, 10, 189, 10, 
	189, 10, 189, 10, 189, 10, 189, 10, 189, 10, 
	189, 10, 189, 10, 189, 10, 189, 10, 189, 10, 
	189, 10, 189, 10, 189, 10, 189, 10, 189, 10, 
	189, 10, 189, 10, 189, 10, 189, 10, 189, 10, 
	189, 10, 189, 10, 189, 10, 189, 10, 189, 10, 
	189, 10, 189, 10, 189, 10, 189, 10, 189, 10, 
	189, 10, 189, 10, 189, 10, 189, 10, 189, 10, 
	189, 10, 189, 10, 130, 1469, 189, 10, 189, 10, 
	189, 10, 189, 10, 130, 0
};
const PROGMEM int melody2[] = {
	NOTE_E5, 0, NOTE_C5, 0, NOTE_G4, 0, NOTE_A4, 0, NOTE_C5, 0, 
	NOTE_C5, 0, NOTE_A4, 0, NOTE_G4, 0, NOTE_C5, 0, NOTE_C5, 0, 
	NOTE_G5, 0, NOTE_E5, 0, NOTE_D5, 0, NOTE_G4, 0, NOTE_E5, 0, 
	NOTE_C5, 0, NOTE_G4, 0, NOTE_A4, 0, NOTE_C5, 0, NOTE_C5, 0, 
	NOTE_A4, 0, NOTE_G4, 0, NOTE_C5, 0, NOTE_F5, 0, NOTE_E5, 0, 
	NOTE_D5, 0, NOTE_C5, 0, NOTE_E5, 0, NOTE_C5, 0, NOTE_G4, 0, 
	NOTE_A4, 0, NOTE_C5, 0, NOTE_C5, 0, NOTE_A4, 0, NOTE_G4, 0, 
	NOTE_C5, 0, NOTE_C5, 0, NOTE_G5, 0, NOTE_E5, 0, NOTE_D5, 0, 
	NOTE_G4, 0, NOTE_E5, 0, NOTE_C5, 0, NOTE_G4, 0, NOTE_A4, 0, 
	NOTE_C5, 0, NOTE_C5, 0, NOTE_A4, 0, NOTE_G4, 0, NOTE_C5, 0, 
	NOTE_F5, 0, NOTE_E5, 0, NOTE_D5, 0, NOTE_C5, 0, NOTE_E5, 0, 
	NOTE_C5, 0, NOTE_G4, 0, NOTE_E5, 0, NOTE_C5, 0, NOTE_G4, 0, 
	NOTE_DS5, 0, NOTE_C5, 0, NOTE_G4, 0, NOTE_DS5, 0, NOTE_D5, 0, 
	NOTE_E5, 0, NOTE_C5, 0, NOTE_G4, 0, NOTE_E5, 0, NOTE_C5, 0, 
	NOTE_G4, 0, NOTE_DS5, 0, NOTE_C5, 0, NOTE_G4, 0, NOTE_G5, 0, 
	NOTE_E5, 0, NOTE_C5, 0, NOTE_G4, 0, NOTE_A4, 0, NOTE_C5, 0, 
	NOTE_C5, 0, NOTE_D5, 0, NOTE_E5, 0, NOTE_C5, 0, NOTE_G4, 0, 
	NOTE_A4, 0, NOTE_C5, 0, NOTE_A4, 0, NOTE_G5, 0, NOTE_A5, 0, 
	NOTE_G5, 0, NOTE_A5, 0, NOTE_G5, 0, NOTE_G4, 0, NOTE_F5, 0, 
	NOTE_E5, 0, NOTE_D5, 0, NOTE_C5, 0, NOTE_G2, 0
};
const PROGMEM int delays2[] = {
	379, 20, 284, 15, 94, 5, 94, 5, 189, 10, 
	379, 20, 94, 5, 189, 10, 189, 10, 189, 10, 
	189, 10, 284, 15, 379, 20, 94, 5, 379, 20, 
	284, 15, 94, 5, 94, 5, 189, 10, 379, 20, 
	94, 5, 189, 10, 189, 10, 94, 5, 94, 5, 
	94, 5, 854, 45, 379, 20, 284, 15, 94, 5, 
	94, 5, 189, 10, 379, 20, 94, 5, 189, 10, 
	189, 10, 189, 10, 189, 10, 284, 15, 379, 20, 
	94, 5, 379, 20, 284, 15, 94, 5, 94, 5, 
	189, 10, 379, 20, 94, 5, 189, 10, 189, 10, 
	94, 5, 94, 5, 94, 5, 854, 45, 284, 15, 
	284, 15, 189, 10, 284, 15, 284, 15, 189, 10, 
	94, 5, 94, 5, 189, 10, 284, 15, 854, 45, 
	284, 15, 284, 15, 189, 10, 284, 15, 284, 15, 
	189, 10, 94, 5, 94, 5, 189, 10, 1139, 60, 
	379, 20, 284, 15, 94, 5, 94, 5, 189, 10, 
	379, 20, 94, 5, 94, 5, 94, 5, 189, 10, 
	284, 15, 474, 325, 94, 5, 189, 10, 189, 10, 
	189, 10, 189, 10, 284, 15, 94, 5, 94, 5, 
	94, 5, 189, 10, 759, 40, 130, 0
};
