const PROGMEM int melody1[] = {
	NOTE_E2, 0, NOTE_E2, 0, NOTE_G2, 0, NOTE_G2, 0, NOTE_C3, 0, 
	NOTE_C3, 0, NOTE_A2, 0, NOTE_A2, 0, NOTE_G2, 0, NOTE_FS2, 0, 
	NOTE_E2, 0, NOTE_B4, 0, NOTE_G2, 0, NOTE_B4, 0, NOTE_C3, 0, 
	NOTE_B4, 0, NOTE_A2, 0, NOTE_C5, 0, NOTE_E2, 0, NOTE_E2, 0, 
	NOTE_E2, 0, NOTE_E2, 0, NOTE_FS2, 0, NOTE_G2, 0, NOTE_G2, 0, 
	NOTE_A2, 0, NOTE_B2, 0, NOTE_C3, 0, NOTE_C3, 0, NOTE_C3, 0, 
	NOTE_B2, 0, NOTE_C3, 0, NOTE_A2, 0, NOTE_A2, 0, NOTE_B2, 0, 
	NOTE_G2, 0, NOTE_FS2, 0, NOTE_E2, 0, NOTE_E2, 0, NOTE_E2, 0, 
	NOTE_E2, 0, NOTE_FS2, 0, NOTE_G2, 0, NOTE_G2, 0, NOTE_G2, 0, 
	NOTE_A2, 0, NOTE_B2, 0, NOTE_C3, 0, NOTE_C3, 0, NOTE_C3, 0, 
	NOTE_C3, 0, NOTE_B2, 0, NOTE_A2, 0, NOTE_E3, 0, NOTE_C4, 0, 
	NOTE_D3, 0, NOTE_D4, 0, NOTE_B4, 0, NOTE_E2, 0, NOTE_E2, 0, 
	NOTE_E2, 0, NOTE_E2, 0, NOTE_FS2, 0, NOTE_G2, 0, NOTE_G2, 0, 
	NOTE_G2, 0, NOTE_G2, 0, NOTE_A2, 0, NOTE_B2, 0, NOTE_C3, 0, 
	NOTE_C3, 0, NOTE_C3, 0, NOTE_C3, 0, NOTE_B2, 0, NOTE_C3, 0, 
	NOTE_A2, 0, NOTE_A2, 0, NOTE_A2, 0, NOTE_A2, 0, NOTE_B2, 0, 
	NOTE_G2, 0, NOTE_FS2, 0, NOTE_E2, 0, NOTE_E2, 0, NOTE_E2, 0, 
	NOTE_E2, 0, NOTE_E2, 0, NOTE_FS2, 0, NOTE_G2, 0, NOTE_G2, 0, 
	NOTE_G2, 0, NOTE_G2, 0, NOTE_A2, 0, NOTE_B2, 0, NOTE_C3, 0, 
	NOTE_C3, 0, NOTE_C3, 0, NOTE_C3, 0, NOTE_B2, 0, NOTE_C3, 0, 
	NOTE_D3, 0, NOTE_D3, 0, NOTE_D3, 0, NOTE_D3, 0, NOTE_D3, 0, 
	NOTE_A2, 0, NOTE_E2, 0
};
const PROGMEM int delays1[] = {
	875, 47, 875, 47, 875, 47, 875, 47, 875, 47, 
	875, 47, 875, 47, 583, 32, 144, 8, 144, 8, 
	875, 47, 875, 47, 875, 47, 875, 47, 875, 47, 
	875, 47, 875, 47, 875, 47, 144, 8, 144, 624, 
	614, 1, 152, 1, 144, 8, 291, 632, 306, 1, 
	306, 1, 291, 16, 144, 8, 144, 624, 583, 32, 
	144, 8, 144, 8, 875, 47, 291, 16, 291, 16, 
	144, 8, 144, 8, 144, 8, 144, 624, 583, 32, 
	144, 8, 144, 8, 144, 8, 144, 624, 291, 16, 
	291, 16, 291, 16, 144, 8, 144, 624, 437, 24, 
	291, 16, 144, 8, 291, 16, 144, 8, 437, 24, 
	291, 16, 583, 32, 291, 170, 75, 232, 75, 78, 
	583, 32, 144, 8, 144, 8, 291, 170, 75, 232, 
	75, 78, 583, 32, 144, 8, 144, 8, 291, 170, 
	75, 232, 75, 78, 583, 32, 144, 8, 144, 8, 
	291, 170, 75, 232, 75, 78, 437, 24, 144, 8, 
	144, 8, 144, 8, 291, 170, 75, 232, 75, 78, 
	583, 32, 144, 8, 144, 8, 291, 170, 75, 232, 
	75, 78, 583, 32, 144, 8, 144, 8, 291, 170, 
	75, 232, 75, 78, 583, 32, 144, 8, 144, 8, 
	291, 170, 75, 232, 75, 78, 583, 32, 144, 8, 
	144, 8, 1167, 0
};
const PROGMEM int melody2[] = {
	NOTE_E3, 0, NOTE_FS3, 0, NOTE_G3, 0, NOTE_D4, 0, NOTE_G3, 0, 
	NOTE_FS3, 0, NOTE_E3, 0, NOTE_FS3, 0, NOTE_G3, 0, NOTE_D4, 0, 
	NOTE_G3, 0, NOTE_FS3, 0, NOTE_E3, 0, NOTE_FS3, 0, NOTE_G3, 0, 
	NOTE_D4, 0, NOTE_G3, 0, NOTE_FS3, 0, NOTE_E3, 0, NOTE_FS3, 0, 
	NOTE_G3, 0, NOTE_D4, 0, NOTE_G3, 0, NOTE_FS3, 0, NOTE_E3, 0, 
	NOTE_FS3, 0, NOTE_G3, 0, NOTE_D4, 0, NOTE_G3, 0, NOTE_FS3, 0, 
	NOTE_E3, 0, NOTE_FS3, 0, NOTE_G3, 0, NOTE_D4, 0, NOTE_G3, 0, 
	NOTE_FS3, 0, NOTE_E3, 0, NOTE_FS3, 0, NOTE_G3, 0, NOTE_C4, 0, 
	NOTE_G3, 0, NOTE_FS3, 0, NOTE_E3, 0, NOTE_FS3, 0, NOTE_G3, 0, 
	NOTE_C4, 0, NOTE_G3, 0, NOTE_FS3, 0, NOTE_E3, 0, NOTE_FS3, 0, 
	NOTE_G3, 0, NOTE_D4, 0, NOTE_G3, 0, NOTE_FS3, 0, NOTE_E3, 0, 
	NOTE_FS3, 0, NOTE_G3, 0, NOTE_D4, 0, NOTE_G3, 0, NOTE_FS3, 0, 
	NOTE_E3, 0, NOTE_FS3, 0, NOTE_G3, 0, NOTE_D4, 0, NOTE_G3, 0, 
	NOTE_FS3, 0, NOTE_E3, 0, NOTE_FS3, 0, NOTE_G3, 0, NOTE_D4, 0, 
	NOTE_G3, 0, NOTE_FS3, 0, NOTE_E3, 0, NOTE_FS3, 0, NOTE_G3, 0, 
	NOTE_D4, 0, NOTE_G3, 0, NOTE_FS3, 0, NOTE_E3, 0, NOTE_FS3, 0, 
	NOTE_G3, 0, NOTE_D4, 0, NOTE_G3, 0, NOTE_FS3, 0, NOTE_E3, 0, 
	NOTE_FS3, 0, NOTE_G3, 0, NOTE_C4, 0, NOTE_G3, 0, NOTE_FS3, 0, 
	NOTE_E3, 0, NOTE_FS3, 0, NOTE_G3, 0, NOTE_C4, 0, NOTE_G3, 0, 
	NOTE_FS3, 0, NOTE_E3, 0, NOTE_E3, 0, NOTE_E3, 0, NOTE_E3, 0, 
	NOTE_FS3, 0, NOTE_G3, 0, NOTE_G3, 0, NOTE_A3, 0, NOTE_B3, 0, 
	NOTE_E3, 0, NOTE_E3, 0, NOTE_E3, 0, NOTE_G3, 0, NOTE_A3, 0, 
	NOTE_B4, 0, NOTE_B4, 0, NOTE_FS4, 0, NOTE_G4, 0, NOTE_FS4, 0, 
	NOTE_D4, 0, NOTE_B4, 0, NOTE_A4, 0, NOTE_B4, 0, NOTE_D5, 0, 
	NOTE_FS4, 0, NOTE_G4, 0, NOTE_FS4, 0, NOTE_D4, 0, NOTE_G4, 0, 
	NOTE_E5, 0, NOTE_FS4, 0, NOTE_G4, 0, NOTE_FS4, 0, NOTE_D4, 0, 
	NOTE_D5, 0, NOTE_E5, 0, NOTE_FS5, 0, NOTE_G5, 0, NOTE_FS5, 0, 
	NOTE_G5, 0, NOTE_A5, 0, NOTE_B5, 0, NOTE_D5, 0, NOTE_C5, 0, 
	NOTE_A4, 0, NOTE_B4, 0, NOTE_G4, 0, NOTE_E4, 0, NOTE_D5, 0, 
	NOTE_E5, 0, NOTE_E4, 0
};
const PROGMEM int delays2[] = {
	144, 8, 144, 8, 144, 8, 144, 8, 144, 8, 
	144, 8, 144, 8, 144, 8, 144, 8, 144, 8, 
	144, 8, 144, 8, 144, 8, 144, 8, 144, 8, 
	144, 8, 144, 8, 144, 8, 144, 8, 144, 8, 
	144, 8, 144, 8, 144, 8, 144, 8, 144, 8, 
	144, 8, 144, 8, 144, 8, 144, 8, 144, 8, 
	144, 8, 144, 8, 144, 8, 144, 8, 144, 8, 
	144, 8, 144, 8, 144, 8, 144, 8, 144, 8, 
	144, 8, 144, 8, 144, 8, 144, 8, 144, 8, 
	144, 8, 144, 8, 144, 8, 144, 8, 144, 8, 
	144, 8, 144, 8, 144, 8, 144, 8, 144, 8, 
	144, 8, 144, 8, 144, 8, 144, 8, 144, 8, 
	144, 8, 144, 8, 144, 8, 144, 8, 144, 8, 
	144, 8, 144, 8, 144, 8, 144, 8, 144, 8, 
	144, 8, 144, 8, 144, 8, 144, 8, 144, 8, 
	144, 8, 144, 8, 144, 8, 144, 8, 144, 8, 
	144, 8, 144, 8, 144, 8, 144, 8, 144, 8, 
	144, 8, 144, 8, 144, 8, 144, 8, 144, 8, 
	144, 8, 144, 8, 144, 8, 144, 8, 144, 8, 
	144, 8, 144, 8, 144, 624, 614, 1, 152, 1, 
	144, 8, 291, 632, 306, 1, 306, 1, 291, 16, 
	144, 8, 144, 624, 1460, 78, 583, 32, 583, 32, 
	144, 8, 144, 8, 75, 78, 75, 78, 75, 78, 
	75, 78, 583, 32, 144, 8, 144, 8, 291, 16, 
	75, 78, 75, 78, 75, 78, 75, 78, 875, 47, 
	291, 16, 75, 78, 75, 78, 75, 78, 75, 385, 
	291, 16, 144, 8, 144, 8, 583, 32, 144, 8, 
	144, 8, 875, 47, 875, 5585, 291, 16, 437, 24, 
	144, 8, 875, 2201, 291, 16, 291, 16, 583, 32, 
	1167, 1908, 1167, 0
};
