const PROGMEM int melody1[] = {
	NOTE_A2, 0, NOTE_E3, 0, NOTE_A3, 0, NOTE_B3, 0, NOTE_C4, 0, 
	NOTE_E2, 0, NOTE_B2, 0, NOTE_E3, 0, NOTE_G3, 0, NOTE_A3, 0, 
	NOTE_B3, 0, NOTE_A2, 0, NOTE_E3, 0, NOTE_A3, 0, NOTE_B3, 0, 
	NOTE_C4, 0, NOTE_E2, 0, NOTE_B2, 0, NOTE_E3, 0, NOTE_G3, 0, 
	NOTE_B3, 0, NOTE_A2, 0, NOTE_E3, 0, NOTE_A3, 0, NOTE_B3, 0, 
	NOTE_C4, 0, NOTE_E2, 0, NOTE_B2, 0, NOTE_E3, 0, NOTE_G3, 0, 
	NOTE_A3, 0, NOTE_B3, 0, NOTE_B2, 0, NOTE_FS3, 0, NOTE_B3, 0, 
	NOTE_CS4, 0, NOTE_D4, 0, NOTE_FS4, 0, NOTE_F2, 0, NOTE_C3, 0, 
	NOTE_F3, 0, NOTE_G3, 0, NOTE_A3, 0, NOTE_C4, 0, NOTE_C5, 0, 
	NOTE_A2, 0, NOTE_E3, 0, NOTE_A3, 0, NOTE_B4, 0, NOTE_B3, 0, 
	NOTE_A4, 0, NOTE_C4, 0, NOTE_G4, 0, NOTE_E2, 0, NOTE_B2, 0, 
	NOTE_E3, 0, NOTE_E4, 0, NOTE_G3, 0, NOTE_A3, 0, NOTE_B3, 0, 
	NOTE_C5, 0, NOTE_A2, 0, NOTE_E3, 0, NOTE_A3, 0, NOTE_B4, 0, 
	NOTE_B3, 0, NOTE_A4, 0, NOTE_C4, 0, NOTE_B4, 0, NOTE_E2, 0, 
	NOTE_B2, 0, NOTE_E3, 0, NOTE_E5, 0, NOTE_G3, 0, NOTE_B3, 0, 
	NOTE_C5, 0, NOTE_A2, 0, NOTE_E3, 0, NOTE_A3, 0, NOTE_B4, 0, 
	NOTE_B3, 0, NOTE_A4, 0, NOTE_C4, 0, NOTE_G4, 0, NOTE_E2, 0, 
	NOTE_B2, 0, NOTE_E3, 0, NOTE_G3, 0, NOTE_A3, 0, NOTE_B3, 0, 
	NOTE_D4, 0, NOTE_B2, 0, NOTE_FS3, 0, NOTE_B3, 0, NOTE_CS4, 0, 
	NOTE_D4, 0, NOTE_B3, 0, NOTE_FS4, 0, NOTE_A3, 0, NOTE_F2, 0, 
	NOTE_C3, 0, NOTE_F3, 0, NOTE_G3, 0, NOTE_A3, 0, NOTE_C4, 0, 
	NOTE_D3, 0, NOTE_A3, 0, NOTE_D4, 0, NOTE_E4, 0, NOTE_F4, 0, 
	NOTE_C3, 0, NOTE_A3, 0, NOTE_C4, 0, NOTE_E4, 0, NOTE_A4, 0, 
	NOTE_B2, 0, NOTE_A3, 0, NOTE_B3, 0, NOTE_D4, 0, NOTE_E4, 0, 
	NOTE_A4, 0, NOTE_B4, 0, NOTE_D5, 0, NOTE_E5, 0, NOTE_A5, 0, 
	NOTE_D6, 0, NOTE_A1, 0, NOTE_C4, 0, NOTE_A1, 0, NOTE_B3, 0, 
	NOTE_A1, 0, NOTE_A1, 0, NOTE_C4, 0, NOTE_A1, 0, NOTE_B3, 0, 
	NOTE_A1, 0, NOTE_A2, 0, NOTE_E3, 0, NOTE_A3, 0, NOTE_B3, 0, 
	NOTE_C4, 0, NOTE_E2, 0, NOTE_B2, 0, NOTE_E3, 0, NOTE_G3, 0, 
	NOTE_A3, 0, NOTE_B3, 0, NOTE_A2, 0, NOTE_E3, 0, NOTE_A3, 0, 
	NOTE_B3, 0, NOTE_C4, 0, NOTE_E2, 0, NOTE_B2, 0, NOTE_E3, 0, 
	NOTE_G3, 0, NOTE_B3, 0, NOTE_A2, 0, NOTE_E3, 0, NOTE_A3, 0, 
	NOTE_B3, 0, NOTE_C4, 0, NOTE_E2, 0, NOTE_B2, 0, NOTE_E3, 0, 
	NOTE_G3, 0, NOTE_A3, 0, NOTE_B3, 0, NOTE_B2, 0, NOTE_FS3, 0, 
	NOTE_B3, 0, NOTE_CS4, 0, NOTE_D4, 0, NOTE_FS4, 0, NOTE_F2, 0, 
	NOTE_C3, 0, NOTE_F3, 0, NOTE_G3, 0, NOTE_A3, 0, NOTE_C4, 0, 
	NOTE_C5, 0, NOTE_A2, 0, NOTE_E3, 0, NOTE_A3, 0, NOTE_B4, 0, 
	NOTE_B3, 0, NOTE_A4, 0, NOTE_C4, 0, NOTE_G4, 0, NOTE_E2, 0, 
	NOTE_B2, 0, NOTE_E3, 0, NOTE_E4, 0, NOTE_G3, 0, NOTE_A3, 0, 
	NOTE_B3, 0, NOTE_C5, 0, NOTE_A2, 0, NOTE_E3, 0, NOTE_A3, 0, 
	NOTE_B4, 0, NOTE_B3, 0, NOTE_A4, 0, NOTE_C4, 0, NOTE_B4, 0, 
	NOTE_E2, 0, NOTE_B2, 0, NOTE_E3, 0, NOTE_E5, 0, NOTE_G3, 0, 
	NOTE_B3, 0, NOTE_C5, 0, NOTE_A2, 0, NOTE_E3, 0, NOTE_A3, 0, 
	NOTE_B4, 0, NOTE_B3, 0, NOTE_A4, 0, NOTE_C4, 0, NOTE_G4, 0, 
	NOTE_E2, 0, NOTE_B2, 0, NOTE_E3, 0, NOTE_G3, 0, NOTE_A3, 0, 
	NOTE_B3, 0, NOTE_D4, 0, NOTE_B2, 0, NOTE_FS3, 0, NOTE_B3, 0, 
	NOTE_CS4, 0, NOTE_D4, 0, NOTE_B3, 0, NOTE_FS4, 0, NOTE_A3, 0, 
	NOTE_F2, 0, NOTE_C3, 0, NOTE_F3, 0, NOTE_G3, 0, NOTE_A3, 0, 
	NOTE_C4, 0, NOTE_D3, 0, NOTE_A3, 0, NOTE_D4, 0, NOTE_E4, 0, 
	NOTE_F4, 0, NOTE_C3, 0, NOTE_A3, 0, NOTE_C4, 0, NOTE_E4, 0, 
	NOTE_A4, 0, NOTE_B2, 0, NOTE_A3, 0, NOTE_B3, 0, NOTE_D4, 0, 
	NOTE_E4, 0, NOTE_A4, 0, NOTE_B4, 0, NOTE_D5, 0, NOTE_E5, 0, 
	NOTE_A5, 0, NOTE_D6, 0, NOTE_A1, 0, NOTE_C4, 0, NOTE_A1, 0, 
	NOTE_B3, 0, NOTE_A1, 0, NOTE_A1, 0, NOTE_C4, 0, NOTE_A1, 0, 
	NOTE_B3, 0, NOTE_A1, 0, NOTE_A2, 0, NOTE_E3, 0, NOTE_A3, 0, 
	NOTE_B3, 0, NOTE_C4, 0, NOTE_E2, 0, NOTE_B2, 0, NOTE_E3, 0, 
	NOTE_G3, 0, NOTE_A3, 0, NOTE_B3, 0, NOTE_A2, 0, NOTE_E3, 0, 
	NOTE_A3, 0, NOTE_B3, 0, NOTE_C4, 0, NOTE_E2, 0, NOTE_B2, 0, 
	NOTE_E3, 0, NOTE_G3, 0, NOTE_B3, 0, NOTE_A2, 0, NOTE_E3, 0, 
	NOTE_A3, 0, NOTE_B3, 0, NOTE_C4, 0, NOTE_E2, 0, NOTE_B2, 0, 
	NOTE_E3, 0, NOTE_G3, 0, NOTE_A3, 0, NOTE_B3, 0, NOTE_B2, 0, 
	NOTE_FS3, 0, NOTE_B3, 0, NOTE_CS4, 0, NOTE_D4, 0, NOTE_FS4, 0, 
	NOTE_F2, 0, NOTE_C3, 0, NOTE_F3, 0, NOTE_G3, 0, NOTE_A3, 0, 
	NOTE_C4, 0, NOTE_C5, 0, NOTE_A2, 0, NOTE_E3, 0, NOTE_A3, 0, 
	NOTE_B4, 0, NOTE_B3, 0, NOTE_A4, 0, NOTE_C4, 0, NOTE_G4, 0, 
	NOTE_E2, 0, NOTE_B2, 0, NOTE_E3, 0, NOTE_E4, 0, NOTE_G3, 0, 
	NOTE_A3, 0, NOTE_B3, 0, NOTE_C5, 0, NOTE_A2, 0, NOTE_E3, 0, 
	NOTE_A3, 0, NOTE_B4, 0, NOTE_B3, 0, NOTE_A4, 0, NOTE_C4, 0, 
	NOTE_B4, 0, NOTE_E2, 0, NOTE_B2, 0, NOTE_E3, 0, NOTE_E5, 0, 
	NOTE_G3, 0, NOTE_B3, 0, NOTE_C5, 0, NOTE_A2, 0, NOTE_E3, 0, 
	NOTE_A3, 0, NOTE_B4, 0, NOTE_B3, 0, NOTE_A4, 0, NOTE_C4, 0, 
	NOTE_G4, 0, NOTE_E2, 0, NOTE_B2, 0, NOTE_E3, 0, NOTE_G3, 0, 
	NOTE_A3, 0, NOTE_B3, 0, NOTE_D4, 0, NOTE_B2, 0, NOTE_FS3, 0, 
	NOTE_B3, 0, NOTE_CS4, 0, NOTE_D4, 0, NOTE_B3, 0, NOTE_FS4, 0, 
	NOTE_A3, 0, NOTE_F2, 0, NOTE_C3, 0, NOTE_F3, 0, NOTE_G3, 0, 
	NOTE_A3, 0, NOTE_C4, 0, NOTE_D3, 0, NOTE_A3, 0, NOTE_D4, 0, 
	NOTE_E4, 0, NOTE_F4, 0, NOTE_C3, 0, NOTE_A3, 0, NOTE_C4, 0, 
	NOTE_E4, 0, NOTE_A4, 0, NOTE_B2, 0, NOTE_A3, 0, NOTE_B3, 0, 
	NOTE_D4, 0, NOTE_E4, 0, NOTE_A4, 0, NOTE_B4, 0, NOTE_D5, 0, 
	NOTE_E5, 0, NOTE_A5, 0, NOTE_D6, 0, NOTE_A1, 0, NOTE_C4, 0, 
	NOTE_A1, 0, NOTE_B3, 0, NOTE_A1, 0, NOTE_A1, 0, NOTE_C4, 0, 
	NOTE_A1, 0, NOTE_B3, 0, NOTE_A1, 0, NOTE_A2, 0, NOTE_E3, 0, 
	NOTE_A3, 0, NOTE_B3, 0, NOTE_C4, 0, NOTE_E2, 0, NOTE_B2, 0, 
	NOTE_E3, 0, NOTE_G3, 0, NOTE_A3, 0, NOTE_B3, 0, NOTE_A2, 0, 
	NOTE_E3, 0, NOTE_A3, 0, NOTE_B3, 0, NOTE_C4, 0, NOTE_E2, 0, 
	NOTE_B2, 0, NOTE_E3, 0, NOTE_G3, 0, NOTE_B3, 0, NOTE_A2, 0, 
	NOTE_E3, 0, NOTE_A3, 0, NOTE_B3, 0, NOTE_C4, 0, NOTE_E2, 0, 
	NOTE_B2, 0, NOTE_E3, 0, NOTE_G3, 0, NOTE_A3, 0, NOTE_B3, 0, 
	NOTE_B2, 0, NOTE_FS3, 0, NOTE_B3, 0, NOTE_CS4, 0, NOTE_D4, 0, 
	NOTE_FS4, 0, NOTE_F2, 0, NOTE_C3, 0, NOTE_F3, 0, NOTE_G3, 0, 
	NOTE_A3, 0, NOTE_C4, 0, NOTE_C5, 0, NOTE_A2, 0, NOTE_E3, 0, 
	NOTE_A3, 0, NOTE_B4, 0, NOTE_B3, 0, NOTE_A4, 0, NOTE_C4, 0, 
	NOTE_G4, 0, NOTE_E2, 0, NOTE_B2, 0, NOTE_E3, 0, NOTE_E4, 0, 
	NOTE_G3, 0, NOTE_A3, 0, NOTE_B3, 0, NOTE_C5, 0, NOTE_A2, 0, 
	NOTE_E3, 0, NOTE_A3, 0, NOTE_B4, 0, NOTE_B3, 0, NOTE_A4, 0, 
	NOTE_C4, 0, NOTE_B4, 0, NOTE_E2, 0, NOTE_B2, 0, NOTE_E3, 0, 
	NOTE_E5, 0, NOTE_G3, 0, NOTE_B3, 0, NOTE_C5, 0, NOTE_A2, 0, 
	NOTE_E3, 0, NOTE_A3, 0, NOTE_B4, 0, NOTE_B3, 0, NOTE_A4, 0, 
	NOTE_C4, 0, NOTE_G4, 0, NOTE_E2, 0, NOTE_B2, 0, NOTE_E3, 0, 
	NOTE_G3, 0, NOTE_A3, 0, NOTE_B3, 0, NOTE_D4, 0, NOTE_B2, 0, 
	NOTE_FS3, 0, NOTE_B3, 0, NOTE_CS4, 0, NOTE_D4, 0, NOTE_B3, 0, 
	NOTE_FS4, 0, NOTE_A3, 0, NOTE_F2, 0, NOTE_C3, 0, NOTE_F3, 0, 
	NOTE_G3, 0, NOTE_A3, 0, NOTE_C4, 0, NOTE_D3, 0, NOTE_A3, 0, 
	NOTE_D4, 0, NOTE_E4, 0, NOTE_F4, 0, NOTE_C3, 0, NOTE_A3, 0, 
	NOTE_C4, 0, NOTE_E4, 0, NOTE_A4, 0, NOTE_B2, 0, NOTE_A3, 0, 
	NOTE_B3, 0, NOTE_D4, 0, NOTE_E4, 0, NOTE_A4, 0, NOTE_B4, 0, 
	NOTE_D5, 0, NOTE_E5, 0, NOTE_A5, 0, NOTE_D6, 0, NOTE_A2, 0, 
	NOTE_C5, 0, NOTE_C5, 0, NOTE_A2, 0, NOTE_B4, 0, NOTE_B4, 0, 
	NOTE_A2, 0, NOTE_A3, 0, NOTE_A2, 0, NOTE_C5, 0, NOTE_C5, 0, 
	NOTE_A2, 0, NOTE_B4, 0, NOTE_B4, 0, NOTE_A2, 0, NOTE_C5, 0, 
	NOTE_A3, 0
};
const PROGMEM int delays1[] = {
	283, 16, 283, 16, 568, 31, 568, 31, 283, 316, 
	283, 16, 283, 16, 568, 31, 283, 16, 283, 16, 
	283, 316, 283, 16, 283, 16, 568, 31, 568, 31, 
	283, 316, 283, 16, 283, 16, 568, 31, 283, 16, 
	568, 331, 283, 16, 283, 16, 568, 31, 568, 31, 
	283, 316, 283, 16, 283, 16, 283, 16, 283, 16, 
	283, 16, 568, 331, 283, 16, 283, 16, 283, 16, 
	283, 16, 568, 31, 283, 316, 283, 16, 283, 16, 
	283, 16, 283, 16, 283, 16, 568, 31, 283, 16, 
	283, 16, 283, 16, 283, 16, 283, 16, 283, 16, 
	283, 16, 283, 16, 283, 16, 283, 16, 283, 16, 
	283, 16, 283, 16, 283, 16, 283, 16, 283, 16, 
	283, 16, 283, 16, 283, 16, 283, 16, 283, 16, 
	283, 16, 283, 16, 283, 16, 283, 16, 283, 16, 
	283, 16, 283, 16, 283, 16, 283, 16, 568, 31, 
	283, 16, 283, 16, 283, 16, 283, 16, 283, 16, 
	283, 16, 283, 16, 283, 16, 283, 16, 283, 16, 
	283, 16, 283, 16, 283, 16, 283, 16, 568, 31, 
	283, 16, 283, 16, 283, 16, 283, 16, 283, 16, 
	283, 16, 283, 16, 283, 16, 283, 16, 283, 16, 
	283, 16, 283, 16, 283, 16, 283, 16, 568, 331, 
	283, 16, 283, 16, 283, 16, 283, 16, 283, 616, 
	283, 16, 283, 16, 283, 16, 283, 16, 1138, 61, 
	283, 16, 283, 16, 283, 16, 283, 16, 283, 16, 
	283, 16, 283, 16, 283, 16, 568, 31, 568, 31, 
	568, 631, 568, 31, 568, 31, 568, 31, 568, 631, 
	568, 1231, 568, 31, 568, 31, 568, 31, 568, 31, 
	1138, 1561, 283, 16, 283, 16, 568, 31, 568, 31, 
	283, 316, 283, 16, 283, 16, 568, 31, 283, 16, 
	283, 16, 283, 316, 283, 16, 283, 16, 568, 31, 
	568, 31, 283, 316, 283, 16, 283, 16, 568, 31, 
	283, 16, 568, 331, 283, 16, 283, 16, 568, 31, 
	568, 31, 283, 316, 283, 16, 283, 16, 283, 16, 
	283, 16, 283, 16, 568, 331, 283, 16, 283, 16, 
	283, 16, 283, 16, 568, 31, 283, 316, 283, 16, 
	283, 16, 283, 16, 283, 16, 283, 16, 568, 31, 
	283, 16, 283, 16, 283, 16, 283, 16, 283, 16, 
	283, 16, 283, 16, 283, 16, 283, 16, 283, 16, 
	283, 16, 283, 16, 283, 16, 283, 16, 283, 16, 
	283, 16, 283, 16, 283, 16, 283, 16, 283, 16, 
	283, 16, 283, 16, 283, 16, 283, 16, 283, 16, 
	283, 16, 283, 16, 283, 16, 283, 16, 283, 16, 
	568, 31, 283, 16, 283, 16, 283, 16, 283, 16, 
	283, 16, 283, 16, 283, 16, 283, 16, 283, 16, 
	283, 16, 283, 16, 283, 16, 283, 16, 283, 16, 
	568, 31, 283, 16, 283, 16, 283, 16, 283, 16, 
	283, 16, 283, 16, 283, 16, 283, 16, 283, 16, 
	283, 16, 283, 16, 283, 16, 283, 16, 283, 16, 
	568, 331, 283, 16, 283, 16, 283, 16, 283, 16, 
	283, 616, 283, 16, 283, 16, 283, 16, 283, 16, 
	1138, 61, 283, 16, 283, 16, 283, 16, 283, 16, 
	283, 16, 283, 16, 283, 16, 283, 16, 568, 31, 
	568, 31, 568, 631, 568, 31, 568, 31, 568, 31, 
	568, 631, 568, 1231, 568, 31, 568, 31, 568, 31, 
	568, 31, 1138, 1561, 283, 16, 283, 16, 568, 31, 
	568, 31, 283, 316, 283, 16, 283, 16, 568, 31, 
	283, 16, 283, 16, 283, 316, 283, 16, 283, 16, 
	568, 31, 568, 31, 283, 316, 283, 16, 283, 16, 
	568, 31, 283, 16, 568, 331, 283, 16, 283, 16, 
	568, 31, 568, 31, 283, 316, 283, 16, 283, 16, 
	283, 16, 283, 16, 283, 16, 568, 331, 283, 16, 
	283, 16, 283, 16, 283, 16, 568, 31, 283, 316, 
	283, 16, 283, 16, 283, 16, 283, 16, 283, 16, 
	568, 31, 283, 16, 283, 16, 283, 16, 283, 16, 
	283, 16, 283, 16, 283, 16, 283, 16, 283, 16, 
	283, 16, 283, 16, 283, 16, 283, 16, 283, 16, 
	283, 16, 283, 16, 283, 16, 283, 16, 283, 16, 
	283, 16, 283, 16, 283, 16, 283, 16, 283, 16, 
	283, 16, 283, 16, 283, 16, 283, 16, 283, 16, 
	283, 16, 568, 31, 283, 16, 283, 16, 283, 16, 
	283, 16, 283, 16, 283, 16, 283, 16, 283, 16, 
	283, 16, 283, 16, 283, 16, 283, 16, 283, 16, 
	283, 16, 568, 31, 283, 16, 283, 16, 283, 16, 
	283, 16, 283, 16, 283, 16, 283, 16, 283, 16, 
	283, 16, 283, 16, 283, 16, 283, 16, 283, 16, 
	283, 16, 568, 331, 283, 16, 283, 16, 283, 16, 
	283, 16, 283, 616, 283, 16, 283, 16, 283, 16, 
	283, 16, 1138, 61, 283, 16, 283, 16, 283, 16, 
	283, 16, 283, 16, 283, 16, 283, 16, 283, 16, 
	568, 31, 568, 31, 568, 631, 568, 31, 568, 31, 
	568, 31, 568, 631, 568, 1231, 568, 31, 568, 31, 
	568, 31, 568, 31, 1138, 1561, 283, 16, 283, 16, 
	568, 31, 568, 31, 283, 316, 283, 16, 283, 16, 
	568, 31, 283, 16, 283, 16, 283, 316, 283, 16, 
	283, 16, 568, 31, 568, 31, 283, 316, 283, 16, 
	283, 16, 568, 31, 283, 16, 568, 331, 283, 16, 
	283, 16, 568, 31, 568, 31, 283, 316, 283, 16, 
	283, 16, 283, 16, 283, 16, 283, 16, 568, 331, 
	283, 16, 283, 16, 283, 16, 283, 16, 568, 31, 
	283, 316, 283, 16, 283, 16, 283, 16, 283, 16, 
	283, 16, 568, 31, 283, 16, 283, 16, 283, 16, 
	283, 16, 283, 16, 283, 16, 283, 16, 283, 16, 
	283, 16, 283, 16, 283, 16, 283, 16, 283, 16, 
	283, 16, 283, 16, 283, 16, 283, 16, 283, 16, 
	283, 16, 283, 16, 283, 16, 283, 16, 283, 16, 
	283, 16, 283, 16, 283, 16, 283, 16, 283, 16, 
	283, 16, 283, 16, 568, 31, 283, 16, 283, 16, 
	283, 16, 283, 16, 283, 16, 283, 16, 283, 16, 
	283, 16, 283, 16, 283, 16, 283, 16, 283, 16, 
	283, 16, 283, 16, 568, 31, 283, 16, 283, 16, 
	283, 16, 283, 16, 283, 16, 283, 16, 283, 16, 
	283, 16, 283, 16, 283, 16, 283, 16, 283, 16, 
	283, 16, 283, 16, 568, 331, 283, 16, 283, 16, 
	283, 16, 283, 16, 283, 616, 283, 16, 283, 16, 
	283, 16, 283, 16, 1138, 61, 283, 16, 283, 16, 
	283, 16, 283, 16, 283, 16, 283, 16, 283, 16, 
	283, 16, 568, 31, 568, 31, 568, 631, 283, 16, 
	283, 16, 283, 316, 283, 16, 283, 16, 283, 316, 
	1138, 61, 1138, 61, 283, 16, 283, 16, 283, 316, 
	283, 16, 283, 16, 283, 316, 568, 31, 568, 31, 
	1138, 0
};
const PROGMEM int melody2[] = {
	NOTE_C5, 0, NOTE_B4, 0, NOTE_A4, 0, NOTE_G4, 0, NOTE_E4, 0, 
	NOTE_C5, 0, NOTE_B4, 0, NOTE_A4, 0, NOTE_B4, 0, NOTE_E5, 0, 
	NOTE_C5, 0, NOTE_B4, 0, NOTE_A4, 0, NOTE_G4, 0, NOTE_E4, 0, 
	NOTE_D4, 0, NOTE_B3, 0, NOTE_A3, 0, NOTE_C6, 0, NOTE_B5, 0, 
	NOTE_A5, 0, NOTE_G5, 0, NOTE_E5, 0, NOTE_C6, 0, NOTE_B5, 0, 
	NOTE_A5, 0, NOTE_B5, 0, NOTE_E6, 0, NOTE_C6, 0, NOTE_B5, 0, 
	NOTE_A5, 0, NOTE_G5, 0, NOTE_E5, 0, NOTE_D5, 0, NOTE_B4, 0, 
	NOTE_A4, 0, NOTE_D5, 0, NOTE_E5, 0, NOTE_F5, 0, NOTE_E5, 0, 
	NOTE_D5, 0, NOTE_E5, 0, NOTE_A5, 0, NOTE_A5, 0, NOTE_A5, 0, 
	NOTE_A4, 0, NOTE_E5, 0, NOTE_A4, 0, NOTE_A5, 0, NOTE_A4, 0, 
	NOTE_D5, 0, NOTE_A4, 0, NOTE_A5, 0, NOTE_A4, 0, NOTE_E5, 0, 
	NOTE_A5, 0, NOTE_A4, 0, NOTE_E5, 0, NOTE_A4, 0, NOTE_A5, 0, 
	NOTE_A4, 0, NOTE_D5, 0, NOTE_A4, 0, NOTE_E5, 0, NOTE_C5, 0, 
	NOTE_B4, 0, NOTE_A4, 0, NOTE_G4, 0, NOTE_E4, 0, NOTE_C5, 0, 
	NOTE_B4, 0, NOTE_A4, 0, NOTE_B4, 0, NOTE_E5, 0, NOTE_C5, 0, 
	NOTE_B4, 0, NOTE_A4, 0, NOTE_G4, 0, NOTE_E4, 0, NOTE_D4, 0, 
	NOTE_B3, 0, NOTE_A3, 0, NOTE_C6, 0, NOTE_B5, 0, NOTE_A5, 0, 
	NOTE_G5, 0, NOTE_E5, 0, NOTE_C6, 0, NOTE_B5, 0, NOTE_A5, 0, 
	NOTE_B5, 0, NOTE_E6, 0, NOTE_C6, 0, NOTE_B5, 0, NOTE_A5, 0, 
	NOTE_G5, 0, NOTE_E5, 0, NOTE_D5, 0, NOTE_B4, 0, NOTE_A4, 0, 
	NOTE_D5, 0, NOTE_E5, 0, NOTE_F5, 0, NOTE_E5, 0, NOTE_D5, 0, 
	NOTE_E5, 0, NOTE_A5, 0, NOTE_A5, 0, NOTE_A5, 0, NOTE_A4, 0, 
	NOTE_E5, 0, NOTE_A4, 0, NOTE_A5, 0, NOTE_A4, 0, NOTE_D5, 0, 
	NOTE_A4, 0, NOTE_A5, 0, NOTE_A4, 0, NOTE_E5, 0, NOTE_A5, 0, 
	NOTE_A4, 0, NOTE_E5, 0, NOTE_A4, 0, NOTE_A5, 0, NOTE_A4, 0, 
	NOTE_D5, 0, NOTE_A4, 0, NOTE_E5, 0, NOTE_C5, 0, NOTE_B4, 0, 
	NOTE_A4, 0, NOTE_G4, 0, NOTE_E4, 0, NOTE_C5, 0, NOTE_B4, 0, 
	NOTE_A4, 0, NOTE_B4, 0, NOTE_E5, 0, NOTE_C5, 0, NOTE_B4, 0, 
	NOTE_A4, 0, NOTE_G4, 0, NOTE_E4, 0, NOTE_D4, 0, NOTE_B3, 0, 
	NOTE_A3, 0, NOTE_C6, 0, NOTE_B5, 0, NOTE_A5, 0, NOTE_G5, 0, 
	NOTE_E5, 0, NOTE_C6, 0, NOTE_B5, 0, NOTE_A5, 0, NOTE_B5, 0, 
	NOTE_E6, 0, NOTE_C6, 0, NOTE_B5, 0, NOTE_A5, 0, NOTE_G5, 0, 
	NOTE_E5, 0, NOTE_D5, 0, NOTE_B4, 0, NOTE_A4, 0, NOTE_D5, 0, 
	NOTE_E5, 0, NOTE_F5, 0, NOTE_E5, 0, NOTE_D5, 0, NOTE_E5, 0, 
	NOTE_A5, 0, NOTE_A5, 0, NOTE_A5, 0, NOTE_A4, 0, NOTE_E5, 0, 
	NOTE_A4, 0, NOTE_A5, 0, NOTE_A4, 0, NOTE_D5, 0, NOTE_A4, 0, 
	NOTE_A5, 0, NOTE_A4, 0, NOTE_E5, 0, NOTE_A5, 0, NOTE_A4, 0, 
	NOTE_E5, 0, NOTE_A4, 0, NOTE_A5, 0, NOTE_A4, 0, NOTE_D5, 0, 
	NOTE_A4, 0, NOTE_E5, 0, NOTE_C5, 0, NOTE_B4, 0, NOTE_A4, 0, 
	NOTE_G4, 0, NOTE_E4, 0, NOTE_C5, 0, NOTE_B4, 0, NOTE_A4, 0, 
	NOTE_B4, 0, NOTE_E5, 0, NOTE_C5, 0, NOTE_B4, 0, NOTE_A4, 0, 
	NOTE_G4, 0, NOTE_E4, 0, NOTE_D4, 0, NOTE_B3, 0, NOTE_A3, 0, 
	NOTE_C6, 0, NOTE_B5, 0, NOTE_A5, 0, NOTE_G5, 0, NOTE_E5, 0, 
	NOTE_C6, 0, NOTE_B5, 0, NOTE_A5, 0, NOTE_B5, 0, NOTE_E6, 0, 
	NOTE_C6, 0, NOTE_B5, 0, NOTE_A5, 0, NOTE_G5, 0, NOTE_E5, 0, 
	NOTE_D5, 0, NOTE_B4, 0, NOTE_A4, 0, NOTE_D5, 0, NOTE_E5, 0, 
	NOTE_F5, 0, NOTE_E5, 0, NOTE_D5, 0, NOTE_E5, 0, NOTE_A5, 0, 
	NOTE_A5, 0, NOTE_A5, 0, NOTE_E5, 0, NOTE_E5, 0, NOTE_C5, 0, 
	NOTE_A5, 0, NOTE_D5, 0, NOTE_D5, 0, NOTE_A5, 0, NOTE_C5, NOTE_E5, 
	0, NOTE_A5, 0, NOTE_E5, 0, NOTE_E5, 0, NOTE_C5, 0, NOTE_A5, 
	0, NOTE_D5, 0, NOTE_D5, 0, NOTE_A5, 0, NOTE_E5, 0
};
const PROGMEM int delays2[] = {
	1138, 61, 568, 31, 568, 31, 1138, 61, 1138, 61, 
	1138, 61, 568, 31, 568, 31, 1138, 61, 1138, 61, 
	1138, 61, 568, 31, 568, 31, 1138, 61, 1138, 61, 
	1708, 91, 568, 31, 2278, 121, 1138, 61, 568, 31, 
	568, 31, 1138, 61, 1138, 61, 1138, 61, 568, 31, 
	568, 31, 1138, 61, 1138, 61, 1138, 61, 568, 31, 
	568, 31, 1138, 61, 1138, 61, 1708, 91, 568, 31, 
	1708, 91, 283, 16, 283, 16, 1708, 91, 283, 16, 
	283, 16, 1138, 61, 1138, 61, 4558, 241, 283, 16, 
	283, 16, 283, 16, 283, 16, 283, 16, 283, 16, 
	283, 16, 283, 16, 283, 16, 283, 16, 1708, 91, 
	283, 16, 283, 16, 283, 16, 283, 16, 283, 16, 
	283, 16, 283, 16, 283, 16, 2278, 121, 1138, 61, 
	568, 31, 568, 31, 1138, 61, 1138, 61, 1138, 61, 
	568, 31, 568, 31, 1138, 61, 1138, 61, 1138, 61, 
	568, 31, 568, 31, 1138, 61, 1138, 61, 1708, 91, 
	568, 31, 2278, 121, 1138, 61, 568, 31, 568, 31, 
	1138, 61, 1138, 61, 1138, 61, 568, 31, 568, 31, 
	1138, 61, 1138, 61, 1138, 61, 568, 31, 568, 31, 
	1138, 61, 1138, 61, 1708, 91, 568, 31, 1708, 91, 
	283, 16, 283, 16, 1708, 91, 283, 16, 283, 16, 
	1138, 61, 1138, 61, 4558, 241, 283, 16, 283, 16, 
	283, 16, 283, 16, 283, 16, 283, 16, 283, 16, 
	283, 16, 283, 16, 283, 16, 1708, 91, 283, 16, 
	283, 16, 283, 16, 283, 16, 283, 16, 283, 16, 
	283, 16, 283, 16, 2278, 121, 1138, 61, 568, 31, 
	568, 31, 1138, 61, 1138, 61, 1138, 61, 568, 31, 
	568, 31, 1138, 61, 1138, 61, 1138, 61, 568, 31, 
	568, 31, 1138, 61, 1138, 61, 1708, 91, 568, 31, 
	2278, 121, 1138, 61, 568, 31, 568, 31, 1138, 61, 
	1138, 61, 1138, 61, 568, 31, 568, 31, 1138, 61, 
	1138, 61, 1138, 61, 568, 31, 568, 31, 1138, 61, 
	1138, 61, 1708, 91, 568, 31, 1708, 91, 283, 16, 
	283, 16, 1708, 91, 283, 16, 283, 16, 1138, 61, 
	1138, 61, 4558, 241, 283, 16, 283, 16, 283, 16, 
	283, 16, 283, 16, 283, 16, 283, 16, 283, 16, 
	283, 16, 283, 16, 1708, 91, 283, 16, 283, 16, 
	283, 16, 283, 16, 283, 16, 283, 16, 283, 16, 
	283, 16, 2278, 121, 1138, 61, 568, 31, 568, 31, 
	1138, 61, 1138, 61, 1138, 61, 568, 31, 568, 31, 
	1138, 61, 1138, 61, 1138, 61, 568, 31, 568, 31, 
	1138, 61, 1138, 61, 1708, 91, 568, 31, 2278, 121, 
	1138, 61, 568, 31, 568, 31, 1138, 61, 1138, 61, 
	1138, 61, 568, 31, 568, 31, 1138, 61, 1138, 61, 
	1138, 61, 568, 31, 568, 31, 1138, 61, 1138, 61, 
	1708, 91, 568, 31, 1708, 91, 283, 16, 283, 16, 
	1708, 91, 283, 16, 283, 16, 1138, 61, 1138, 61, 
	4558, 241, 283, 16, 283, 16, 283, 16, 283, 16, 
	283, 16, 283, 16, 283, 316, 568, 31, 0, 1708, 
	91, 283, 16, 283, 16, 283, 16, 283, 16, 283, 
	16, 283, 16, 283, 316, 568, 31, 1708, 0
};
