const PROGMEM unsigned long melody1[] = {
  NOTE_CS4, 0, NOTE_DS4, 0, NOTE_CS4, 0, NOTE_GS4, 0, NOTE_GS4, 0, 
  NOTE_AS4, 0, NOTE_B4, 0, NOTE_FS5, 0, NOTE_F5, 0, NOTE_DS5, 0, 
  NOTE_CS5, 0, NOTE_CS5, 0, NOTE_C5, 0, NOTE_DS5, 0, NOTE_CS5, 0, 
  NOTE_GS4, 0, NOTE_F4, 0, NOTE_FS4, 0, NOTE_GS4, 0, NOTE_GS4, 0, 
  NOTE_FS4, 0, NOTE_DS5, 0, NOTE_D5, 0, NOTE_F5, 0, NOTE_DS5, 0, 
  NOTE_CS5, 0, NOTE_C5, 0, NOTE_AS4, 0, NOTE_C5, 0, NOTE_AS4, 0, 
  NOTE_GS4, 0, NOTE_GS5, 0, NOTE_G5, 0, NOTE_AS5, 0, NOTE_GS5, 0, 
  NOTE_FS5, 0, NOTE_F5, 0, NOTE_FS5, 0, NOTE_F5, 0, NOTE_GS5, 0, 
  NOTE_FS5, 0, NOTE_F5, 0, NOTE_DS5, 0, NOTE_F5, 0, NOTE_E5, 0, 
  NOTE_FS5, 0, NOTE_F5, 0, NOTE_DS5, 0, NOTE_D5, 0, NOTE_F5, 0, 
  NOTE_DS5, 0, NOTE_CS5, 0, NOTE_C5, 0, NOTE_CS5, 0, NOTE_DS5, 0, 
  NOTE_CS6, 0, NOTE_C6, 0, NOTE_DS6, 0, NOTE_CS6, 0, NOTE_GS5, 0, 
  NOTE_F5, 0, NOTE_FS5, 0, NOTE_GS5, 0, NOTE_GS5, 0, NOTE_G5, 0, 
  NOTE_DS6, 0, NOTE_D6, 0, NOTE_F6, 0, NOTE_DS6, 0, NOTE_CS6, 0, 
  NOTE_B5, 0, NOTE_A5, 0, NOTE_B5, 0, NOTE_A5, 0, NOTE_GS5, 0, 
  NOTE_GS6, 0, NOTE_G6, 0, NOTE_AS6, 0, NOTE_GS6, 0, NOTE_FS6, 0, 
  NOTE_F6, 0, NOTE_FS6, 0, NOTE_F6, 0, NOTE_GS6, 0, NOTE_FS6, 0, 
  NOTE_F6, 0, NOTE_DS6, 0, NOTE_F6, 0, NOTE_DS6, 0, NOTE_FS6, 0, 
  NOTE_F6, 0, NOTE_DS6, 0, NOTE_A4, 0, NOTE_B4, 0, NOTE_CS5, 0, 
  NOTE_CS4, NOTE_CS4, 0, NOTE_FS4, 0, NOTE_D4, 0, NOTE_FS4, 0, NOTE_A4, 
  0, NOTE_FS4, 0, NOTE_A4, 0, NOTE_GS4, 0, NOTE_CS4, NOTE_CS4, 0, 
  NOTE_FS4, 0, NOTE_D4, 0, NOTE_FS4, 0, NOTE_A4, 0, NOTE_B4, 0, 
  NOTE_A4, 0, NOTE_A4, 0, NOTE_B4, 0, NOTE_A4, 0, NOTE_GS4, 0, 
  NOTE_GS4, 0, NOTE_GS4, 0, NOTE_CS5, 0, NOTE_B4, 0, NOTE_A4, 0, 
  NOTE_B4, 0, NOTE_GS4, 0, NOTE_E4, 0, NOTE_E4, 0, NOTE_A4, 0, 
  NOTE_GS4, 0, NOTE_FS4, 0, NOTE_GS4, 0, NOTE_E4, 0, NOTE_E4, 0, 
  NOTE_E4, 0, NOTE_FS4, 0, NOTE_CS4, 0, NOTE_FS4, 0, NOTE_AS4, 0, 
  NOTE_FS4, 0, NOTE_CS5, 0, NOTE_E5, 0, NOTE_CS5, 0, NOTE_DS5, 0, 
  NOTE_DS5, 0, NOTE_FS5, 0, NOTE_GS4, 0, NOTE_DS5, 0, NOTE_CS5, 0, 
  NOTE_GS4, 0, NOTE_DS5, 0, NOTE_CS5, 0, NOTE_GS4, 0, NOTE_F5, 0, 
  NOTE_DS5, 0, NOTE_DS5, 0, NOTE_F5, 0, NOTE_FS5, 0, NOTE_GS5, 0, 
  NOTE_GS5, 0, NOTE_AS5, 0, NOTE_F5, 0, NOTE_DS5, 0, NOTE_F5, 0, 
  NOTE_FS5, 0, NOTE_GS5, 0, NOTE_FS5, 0, NOTE_F5, 0, NOTE_CS5, 0, 
  NOTE_F5, 0, NOTE_DS5, 0, NOTE_GS4, 0, NOTE_DS5, 0, NOTE_CS5, 0, 
  NOTE_GS4, 0, NOTE_DS5, 0, NOTE_CS5, 0, NOTE_GS4, 0, NOTE_F5, 0, 
  NOTE_DS5, 0, NOTE_DS5, 0, NOTE_C6, 0, NOTE_AS5, 0, NOTE_GS5, 0, 
  NOTE_GS5, 0, NOTE_AS5, 0, NOTE_B5, 0, NOTE_AS5, 0, NOTE_GS5, 0, 
  NOTE_F5, 0, NOTE_FS5, 0, NOTE_FS5, 0, NOTE_GS5, 0, NOTE_A5, 0, 
  NOTE_GS5, 0, NOTE_A5, 0, NOTE_B5, 0, NOTE_CS6, 0, NOTE_CS5, 0, 
  NOTE_C5, 0, NOTE_DS5, 0, NOTE_CS5, 0, NOTE_GS4, 0, NOTE_F4, 0, 
  NOTE_FS4, 0, NOTE_GS4, 0, NOTE_GS4, 0, NOTE_FS4, 0, NOTE_DS5, 0, 
  NOTE_D5, 0, NOTE_F5, 0, NOTE_DS5, 0, NOTE_CS5, 0, NOTE_C5, 0, 
  NOTE_AS4, 0, NOTE_C5, 0, NOTE_AS4, 0, NOTE_GS4, 0, NOTE_GS5, 0, 
  NOTE_G5, 0, NOTE_AS5, 0, NOTE_GS5, 0, NOTE_FS5, 0, NOTE_F5, 0, 
  NOTE_FS5, 0, NOTE_F5, 0, NOTE_GS5, 0, NOTE_FS5, 0, NOTE_F5, 0, 
  NOTE_DS5, 0, NOTE_F5, 0, NOTE_E5, 0, NOTE_FS5, 0, NOTE_F5, 0, 
  NOTE_DS5, 0, NOTE_D5, 0, NOTE_F5, 0, NOTE_DS5, 0, NOTE_CS5, 0, 
  NOTE_C5, 0, NOTE_CS5, 0, NOTE_DS5, 0, NOTE_CS6, 0, NOTE_C6, 0, 
  NOTE_DS6, 0, NOTE_CS6, 0, NOTE_GS5, 0, NOTE_F5, 0, NOTE_FS5, 0, 
  NOTE_GS5, 0, NOTE_GS5, 0, NOTE_G5, 0, NOTE_DS6, 0, NOTE_D6, 0, 
  NOTE_F6, 0, NOTE_DS6, 0, NOTE_CS6, 0, NOTE_B5, 0, NOTE_A5, 0, 
  NOTE_B5, 0, NOTE_A5, 0, NOTE_GS5, 0, NOTE_GS6, 0, NOTE_G6, 0, 
  NOTE_AS6, 0, NOTE_GS6, 0, NOTE_FS6, 0, NOTE_F6, 0, NOTE_FS6, 0, 
  NOTE_F6, 0, NOTE_GS6, 0, NOTE_FS6, 0, NOTE_F6, 0, NOTE_DS6, 0, 
  NOTE_F6, 0, NOTE_DS6, 0, NOTE_FS6, 0, NOTE_F6, 0, NOTE_DS6, 0, 
  NOTE_A4, 0, NOTE_B4, 0, NOTE_CS5, 0, NOTE_CS4, NOTE_CS4, 0, NOTE_FS4, 
  0, NOTE_D4, 0, NOTE_FS4, 0, NOTE_A4, 0, NOTE_FS4, 0, NOTE_A4, 
  0, NOTE_GS4, 0, NOTE_CS4, NOTE_CS4, 0, NOTE_FS4, 0, NOTE_D4, 0, 
  NOTE_FS4, 0, NOTE_A4, 0, NOTE_B4, 0, NOTE_A4, 0, NOTE_A4, 0, 
  NOTE_B4, 0, NOTE_A4, 0, NOTE_GS4, 0, NOTE_GS4, 0, NOTE_GS4, 0, 
  NOTE_CS5, 0, NOTE_B4, 0, NOTE_A4, 0, NOTE_B4, 0, NOTE_GS4, 0, 
  NOTE_E4, 0, NOTE_E4, 0, NOTE_A4, 0, NOTE_GS4, 0, NOTE_FS4, 0, 
  NOTE_GS4, 0, NOTE_E4, 0, NOTE_E4, 0, NOTE_E4, 0, NOTE_FS4, 0, 
  NOTE_CS4, 0, NOTE_FS4, 0, NOTE_AS4, 0, NOTE_FS4, 0, NOTE_CS5, 0, 
  NOTE_E5, 0, NOTE_CS5, 0, NOTE_DS5, 0, NOTE_DS5, 0, NOTE_FS5, 0, 
  NOTE_GS4, 0, NOTE_DS5, 0, NOTE_CS5, 0, NOTE_GS4, 0, NOTE_DS5, 0, 
  NOTE_CS5, 0, NOTE_GS4, 0, NOTE_F5, 0, NOTE_DS5, 0, NOTE_DS5, 0, 
  NOTE_F5, 0, NOTE_FS5, 0, NOTE_GS5, 0, NOTE_GS5, 0, NOTE_AS5, 0, 
  NOTE_F5, 0, NOTE_DS5, 0, NOTE_F5, 0, NOTE_FS5, 0, NOTE_GS5, 0, 
  NOTE_FS5, 0, NOTE_F5, 0, NOTE_CS5, 0, NOTE_F5, 0, NOTE_DS5, 0, 
  NOTE_GS4, 0, NOTE_DS5, 0, NOTE_CS5, 0, NOTE_GS4, 0, NOTE_DS5, 0, 
  NOTE_CS5, 0, NOTE_GS4, 0, NOTE_F5, 0, NOTE_DS5, 0, NOTE_DS5, 0, 
  NOTE_C6, 0, NOTE_AS5, 0, NOTE_GS5, 0, NOTE_GS5, 0, NOTE_AS5, 0, 
  NOTE_B5, 0, NOTE_AS5, 0, NOTE_GS5, 0, NOTE_F5, 0, NOTE_FS5, 0, 
  NOTE_FS5, 0, NOTE_GS5, 0, NOTE_A5, 0, NOTE_GS5, 0, NOTE_A5, 0, 
  NOTE_B5, 0, NOTE_CS6
};
const PROGMEM unsigned long delays1[] = {
  125833, 7500, 125833, 7500, 125833, 7500, 759166, 440833, 125833, 7500, 
  125833, 7500, 125833, 7500, 252500, 14166, 252500, 14166, 252500, 14166, 
  379166, 6020833, 949166, 50833, 189166, 10833, 189166, 10833, 189166, 10833, 
  949166, 50833, 189166, 10833, 189166, 10833, 189166, 10833, 569166, 30833, 
  2469166, 130833, 949166, 50833, 189166, 10833, 189166, 10833, 189166, 10833, 
  569166, 30833, 379166, 20833, 379166, 20833, 189166, 10833, 569166, 30833, 
  2469166, 130833, 949166, 50833, 189166, 10833, 189166, 10833, 189166, 10833, 
  569166, 30833, 949166, 50833, 949166, 50833, 189166, 10833, 189166, 10833, 
  189166, 10833, 569166, 30833, 949166, 50833, 949166, 50833, 189166, 10833, 
  189166, 10833, 189166, 10833, 569166, 30833, 379166, 20833, 379166, 20833, 
  189166, 10833, 569166, 30833, 949166, 50833, 569166, 30833, 949166, 50833, 
  949166, 50833, 189166, 10833, 189166, 10833, 189166, 10833, 949166, 50833, 
  189166, 10833, 189166, 10833, 189166, 10833, 569166, 30833, 2469166, 130833, 
  949166, 50833, 189166, 10833, 189166, 10833, 189166, 10833, 569166, 30833, 
  379166, 20833, 379166, 20833, 189166, 10833, 569166, 30833, 2469166, 130833, 
  949166, 50833, 189166, 10833, 189166, 10833, 189166, 10833, 569166, 30833, 
  949166, 50833, 949166, 50833, 189166, 10833, 189166, 10833, 189166, 10833, 
  569166, 30833, 949166, 50833, 949166, 50833, 189166, 10833, 189166, 10833, 
  189166, 10833, 569166, 30833, 379166, 20833, 379166, 20833, 2849166, 150833, 
  300000, 94166, 5833, 1772500, 94166, 252500, 14166, 252500, 14166, 252500, 
  14166, 252500, 14166, 252500, 14166, 2659166, 140833, 300000, 94166, 5833, 
  1772500, 94166, 252500, 14166, 252500, 14166, 252500, 14166, 252500, 14166, 
  252500, 14166, 48333, 833, 48333, 1666, 498333, 2499, 2089166, 110833, 
  284166, 15833, 94166, 5833, 1139166, 60833, 189166, 10833, 189166, 10833, 
  569166, 30833, 569166, 30833, 284166, 15833, 94166, 5833, 1139166, 60833, 
  189166, 10833, 189166, 10833, 599166, 833, 569166, 30833, 284166, 15833, 
  94166, 5833, 1772500, 94166, 252500, 14166, 252500, 14166, 252500, 14166, 
  252500, 14166, 252500, 14166, 1139166, 60833, 379166, 20833, 252500, 14166, 
  252500, 14166, 632500, 34166, 379166, 20833, 569166, 30833, 569166, 30833, 
  379166, 20833, 569166, 30833, 569166, 30833, 379166, 20833, 569166, 30833, 
  1329166, 70833, 379166, 20833, 379166, 20833, 379166, 20833, 949166, 50833, 
  189166, 10833, 189166, 10833, 1139166, 60833, 189166, 10833, 189166, 10833, 
  1139166, 60833, 189166, 10833, 189166, 10833, 379166, 20833, 189166, 10833, 
  189166, 10833, 569166, 30833, 379166, 20833, 569166, 30833, 569166, 30833, 
  379166, 20833, 569166, 30833, 569166, 30833, 379166, 20833, 569166, 30833, 
  1329166, 70833, 379166, 20833, 379166, 20833, 379166, 20833, 949166, 50833, 
  189166, 10833, 189166, 10833, 569166, 30833, 189166, 10833, 379166, 20833, 
  379166, 20833, 1139166, 60833, 189166, 10833, 189166, 10833, 569166, 30833, 
  189166, 10833, 379166, 20833, 379166, 20833, 6269166, 330833, 949166, 50833, 
  189166, 10833, 189166, 10833, 189166, 10833, 949166, 50833, 189166, 10833, 
  189166, 10833, 189166, 10833, 569166, 30833, 2469166, 130833, 949166, 50833, 
  189166, 10833, 189166, 10833, 189166, 10833, 569166, 30833, 379166, 20833, 
  379166, 20833, 189166, 10833, 569166, 30833, 2469166, 130833, 949166, 50833, 
  189166, 10833, 189166, 10833, 189166, 10833, 569166, 30833, 949166, 50833, 
  949166, 50833, 189166, 10833, 189166, 10833, 189166, 10833, 569166, 30833, 
  949166, 50833, 949166, 50833, 189166, 10833, 189166, 10833, 189166, 10833, 
  569166, 30833, 379166, 20833, 379166, 20833, 189166, 10833, 569166, 30833, 
  949166, 50833, 569166, 30833, 949166, 50833, 949166, 50833, 189166, 10833, 
  189166, 10833, 189166, 10833, 949166, 50833, 189166, 10833, 189166, 10833, 
  189166, 10833, 569166, 30833, 2469166, 130833, 949166, 50833, 189166, 10833, 
  189166, 10833, 189166, 10833, 569166, 30833, 379166, 20833, 379166, 20833, 
  189166, 10833, 569166, 30833, 2469166, 130833, 949166, 50833, 189166, 10833, 
  189166, 10833, 189166, 10833, 569166, 30833, 949166, 50833, 949166, 50833, 
  189166, 10833, 189166, 10833, 189166, 10833, 569166, 30833, 949166, 50833, 
  949166, 50833, 189166, 10833, 189166, 10833, 189166, 10833, 569166, 30833, 
  379166, 20833, 379166, 20833, 2849166, 150833, 300000, 94166, 5833, 1772500, 
  94166, 252500, 14166, 252500, 14166, 252500, 14166, 252500, 14166, 252500, 
  14166, 2659166, 140833, 300000, 94166, 5833, 1772500, 94166, 252500, 14166, 
  252500, 14166, 252500, 14166, 252500, 14166, 252500, 14166, 48333, 833, 
  48333, 1666, 498333, 2499, 2089166, 110833, 284166, 15833, 94166, 5833, 
  1139166, 60833, 189166, 10833, 189166, 10833, 569166, 30833, 569166, 30833, 
  284166, 15833, 94166, 5833, 1139166, 60833, 189166, 10833, 189166, 10833, 
  599166, 833, 569166, 30833, 284166, 15833, 94166, 5833, 1772500, 94166, 
  252500, 14166, 252500, 14166, 252500, 14166, 252500, 14166, 252500, 14166, 
  1139166, 60833, 379166, 20833, 252500, 14166, 252500, 14166, 632500, 34166, 
  379166, 20833, 569166, 30833, 569166, 30833, 379166, 20833, 569166, 30833, 
  569166, 30833, 379166, 20833, 569166, 30833, 1329166, 70833, 379166, 20833, 
  379166, 20833, 379166, 20833, 949166, 50833, 189166, 10833, 189166, 10833, 
  1139166, 60833, 189166, 10833, 189166, 10833, 1139166, 60833, 189166, 10833, 
  189166, 10833, 379166, 20833, 189166, 10833, 189166, 10833, 569166, 30833, 
  379166, 20833, 569166, 30833, 569166, 30833, 379166, 20833, 569166, 30833, 
  569166, 30833, 379166, 20833, 569166, 30833, 1329166, 70833, 379166, 20833, 
  379166, 20833, 379166, 20833, 949166, 50833, 189166, 10833, 189166, 10833, 
  569166, 30833, 189166, 10833, 379166, 20833, 379166, 20833, 1139166, 60833, 
  189166, 10833, 189166, 10833, 569166, 30833, 189166, 10833, 379166, 20833, 
  379166, 20833, 6269166
};
const PROGMEM unsigned long melody2[] = {
  NOTE_CS3, 0, NOTE_CS3, 0, NOTE_CS3, 0, NOTE_CS3, 0, NOTE_CS3, 0, 
  NOTE_CS3, 0, NOTE_CS3, 0, NOTE_CS3, 0, NOTE_CS3, 0, NOTE_CS3, 0, 
  NOTE_CS3, 0, NOTE_F3, 0, NOTE_F3, 0, NOTE_F3, 0, NOTE_FS3, 0, 
  NOTE_FS3, 0, NOTE_FS3, 0, NOTE_FS3, 0, NOTE_FS3, 0, NOTE_FS3, 0, 
  NOTE_DS3, 0, NOTE_DS3, 0, NOTE_DS3, 0, NOTE_GS3, 0, NOTE_GS3, 0, 
  NOTE_GS3, 0, NOTE_CS4, 0, NOTE_CS4, 0, NOTE_CS4, 0, NOTE_C4, 0, 
  NOTE_C4, 0, NOTE_C4, 0, NOTE_B3, 0, NOTE_B3, 0, NOTE_B3, 0, 
  NOTE_AS3, 0, NOTE_AS3, 0, NOTE_AS3, 0, NOTE_DS3, 0, NOTE_DS3, 0, 
  NOTE_DS3, 0, NOTE_FS3, 0, NOTE_FS3, 0, NOTE_FS3, 0, NOTE_GS3, 0, 
  NOTE_GS3, 0, NOTE_GS3, 0, NOTE_G3, 0, NOTE_G3, 0, NOTE_G3, 0, 
  NOTE_GS3, 0, NOTE_GS3, 0, NOTE_GS3, 0, NOTE_A3, 0, NOTE_B3, 0, 
  NOTE_B3, 0, NOTE_CS3, 0, NOTE_CS3, 0, NOTE_CS3, 0, NOTE_CS3, 0, 
  NOTE_CS3, 0, NOTE_CS3, 0, NOTE_CS3, 0, NOTE_CS3, 0, NOTE_CS3, 0, 
  NOTE_CS3, 0, NOTE_CS3, 0, NOTE_CS3, 0, NOTE_CS3, 0, NOTE_CS3, 0, 
  NOTE_CS3, 0, NOTE_CS3, 0, NOTE_CS3, 0, NOTE_CS3, 0, NOTE_CS3, 0, 
  NOTE_CS3, 0, NOTE_CS3, 0, NOTE_C4, 0, NOTE_C4, 0, NOTE_C4, 0, 
  NOTE_B3, 0, NOTE_B3, 0, NOTE_B3, 0, NOTE_AS3, 0, NOTE_AS3, 0, 
  NOTE_AS3, 0, NOTE_DS3, 0, NOTE_DS3, 0, NOTE_DS3, 0, NOTE_FS3, 0, 
  NOTE_FS3, 0, NOTE_FS3, 0, NOTE_GS3, 0, NOTE_GS3, 0, NOTE_GS3, 0, 
  NOTE_GS3, 0, NOTE_A3, 0, NOTE_B3, 0, NOTE_CS4, 0, NOTE_CS4, 0, 
  NOTE_CS4, 0, NOTE_CS4, 0, NOTE_CS4, 0, NOTE_CS4, 0, NOTE_CS4, 0, 
  NOTE_B3, 0, NOTE_B3, 0, NOTE_B3, 0, NOTE_B3, 0, NOTE_B3, 0, 
  NOTE_B3, 0, NOTE_CS4, 0, NOTE_CS4, 0, NOTE_CS4, 0, NOTE_CS4, 0, 
  NOTE_CS4, 0, NOTE_CS4, 0, NOTE_B3, 0, NOTE_B3, 0, NOTE_B3, 0, 
  NOTE_B3, 0, NOTE_B3, 0, NOTE_B3, 0, NOTE_CS4, 0, NOTE_CS4, 0, 
  NOTE_CS4, 0, NOTE_CS4, 0, NOTE_CS4, 0, NOTE_CS4, 0, NOTE_A3, 0, 
  NOTE_A3, 0, NOTE_A3, 0, NOTE_GS3, 0, NOTE_GS3, 0, NOTE_GS3, 0, 
  NOTE_FS3, 0, NOTE_FS3, 0, NOTE_FS3, 0, NOTE_E3, 0, NOTE_E3, 0, 
  NOTE_E3, 0, NOTE_FS3, 0, NOTE_FS3, 0, NOTE_FS3, 0, NOTE_FS3, 0, 
  NOTE_FS3, 0, NOTE_FS3, 0, NOTE_A3, 0, NOTE_A3, 0, NOTE_A3, 0, 
  NOTE_B3, 0, NOTE_B3, 0, NOTE_B3, 0, NOTE_CS3, 0, NOTE_CS3, 0, 
  NOTE_CS3, 0, NOTE_F3, 0, NOTE_F3, 0, NOTE_F3, 0, NOTE_FS3, 0, 
  NOTE_FS3, 0, NOTE_FS3, 0, NOTE_FS3, 0, NOTE_FS3, 0, NOTE_FS3, 0, 
  NOTE_F3, 0, NOTE_F3, 0, NOTE_F3, 0, NOTE_AS3, 0, NOTE_AS3, 0, 
  NOTE_AS3, 0, NOTE_B3, 0, NOTE_B3, 0, NOTE_B3, 0, NOTE_GS3, 0, 
  NOTE_GS3, 0, NOTE_GS3, 0, NOTE_CS4, 0, NOTE_CS4, 0, NOTE_C4, 0, 
  NOTE_AS3, 0, NOTE_AS3, 0, NOTE_GS3, 0, NOTE_FS3, 0, NOTE_FS3, 0, 
  NOTE_FS3, 0, NOTE_FS3, 0, NOTE_FS3, 0, NOTE_FS3, 0, NOTE_F3, 0, 
  NOTE_F3, 0, NOTE_F3, 0, NOTE_AS3, 0, NOTE_AS3, 0, NOTE_AS3, 0, 
  NOTE_B3, 0, NOTE_B3, 0, NOTE_B3, 0, NOTE_GS3, 0, NOTE_GS3, 0, 
  NOTE_CS3, 0, NOTE_CS3, 0, NOTE_CS3, 0, NOTE_CS3, 0, NOTE_CS3, 0, 
  NOTE_CS3, 0, NOTE_CS3, 0, NOTE_CS3, 0, NOTE_CS3, 0, NOTE_CS3, 0, 
  NOTE_CS3, 0, NOTE_CS3, 0, NOTE_CS3, 0, NOTE_CS3, 0, NOTE_CS3, 0, 
  NOTE_F3, 0, NOTE_F3, 0, NOTE_F3, 0, NOTE_FS3, 0, NOTE_FS3, 0, 
  NOTE_FS3, 0, NOTE_FS3, 0, NOTE_FS3, 0, NOTE_FS3, 0, NOTE_DS3, 0, 
  NOTE_DS3, 0, NOTE_DS3, 0, NOTE_GS3, 0, NOTE_GS3, 0, NOTE_GS3, 0, 
  NOTE_CS4, 0, NOTE_CS4, 0, NOTE_CS4, 0, NOTE_C4, 0, NOTE_C4, 0, 
  NOTE_C4, 0, NOTE_B3, 0, NOTE_B3, 0, NOTE_B3, 0, NOTE_AS3, 0, 
  NOTE_AS3, 0, NOTE_AS3, 0, NOTE_DS3, 0, NOTE_DS3, 0, NOTE_DS3, 0, 
  NOTE_FS3, 0, NOTE_FS3, 0, NOTE_FS3, 0, NOTE_GS3, 0, NOTE_GS3, 0, 
  NOTE_GS3, 0, NOTE_G3, 0, NOTE_G3, 0, NOTE_G3, 0, NOTE_GS3, 0, 
  NOTE_GS3, 0, NOTE_GS3, 0, NOTE_A3, 0, NOTE_B3, 0, NOTE_B3, 0, 
  NOTE_CS3, 0, NOTE_CS3, 0, NOTE_CS3, 0, NOTE_CS3, 0, NOTE_CS3, 0, 
  NOTE_CS3, 0, NOTE_CS3, 0, NOTE_CS3, 0, NOTE_CS3, 0, NOTE_CS3, 0, 
  NOTE_CS3, 0, NOTE_CS3, 0, NOTE_CS3, 0, NOTE_CS3, 0, NOTE_CS3, 0, 
  NOTE_CS3, 0, NOTE_CS3, 0, NOTE_CS3, 0, NOTE_CS3, 0, NOTE_CS3, 0, 
  NOTE_CS3, 0, NOTE_C4, 0, NOTE_C4, 0, NOTE_C4, 0, NOTE_B3, 0, 
  NOTE_B3, 0, NOTE_B3, 0, NOTE_AS3, 0, NOTE_AS3, 0, NOTE_AS3, 0, 
  NOTE_DS3, 0, NOTE_DS3, 0, NOTE_DS3, 0, NOTE_FS3, 0, NOTE_FS3, 0, 
  NOTE_FS3, 0, NOTE_GS3, 0, NOTE_GS3, 0, NOTE_GS3, 0, NOTE_GS3, 0, 
  NOTE_A3, 0, NOTE_B3, 0, NOTE_CS4, 0, NOTE_CS4, 0, NOTE_CS4, 0, 
  NOTE_CS4, 0, NOTE_CS4, 0, NOTE_CS4, 0, NOTE_CS4, 0, NOTE_B3, 0, 
  NOTE_B3, 0, NOTE_B3, 0, NOTE_B3, 0, NOTE_B3, 0, NOTE_B3, 0, 
  NOTE_CS4, 0, NOTE_CS4, 0, NOTE_CS4, 0, NOTE_CS4, 0, NOTE_CS4, 0, 
  NOTE_CS4, 0, NOTE_B3, 0, NOTE_B3, 0, NOTE_B3, 0, NOTE_B3, 0, 
  NOTE_B3, 0, NOTE_B3, 0, NOTE_CS4, 0, NOTE_CS4, 0, NOTE_CS4, 0, 
  NOTE_CS4, 0, NOTE_CS4, 0, NOTE_CS4, 0, NOTE_A3, 0, NOTE_A3, 0, 
  NOTE_A3, 0, NOTE_GS3, 0, NOTE_GS3, 0, NOTE_GS3, 0, NOTE_FS3, 0, 
  NOTE_FS3, 0, NOTE_FS3, 0, NOTE_E3, 0, NOTE_E3, 0, NOTE_E3, 0, 
  NOTE_FS3, 0, NOTE_FS3, 0, NOTE_FS3, 0, NOTE_FS3, 0, NOTE_FS3, 0, 
  NOTE_FS3, 0, NOTE_A3, 0, NOTE_A3, 0, NOTE_A3, 0, NOTE_B3, 0, 
  NOTE_B3, 0, NOTE_B3, 0, NOTE_CS3, 0, NOTE_CS3, 0, NOTE_CS3, 0, 
  NOTE_F3, 0, NOTE_F3, 0, NOTE_F3, 0, NOTE_FS3, 0, NOTE_FS3, 0, 
  NOTE_FS3, 0, NOTE_FS3, 0, NOTE_FS3, 0, NOTE_FS3, 0, NOTE_F3, 0, 
  NOTE_F3, 0, NOTE_F3, 0, NOTE_AS3, 0, NOTE_AS3, 0, NOTE_AS3, 0, 
  NOTE_B3, 0, NOTE_B3, 0, NOTE_B3, 0, NOTE_GS3, 0, NOTE_GS3, 0, 
  NOTE_GS3, 0, NOTE_CS4, 0, NOTE_CS4, 0, NOTE_C4, 0, NOTE_AS3, 0, 
  NOTE_AS3, 0, NOTE_GS3, 0, NOTE_FS3, 0, NOTE_FS3, 0, NOTE_FS3, 0, 
  NOTE_FS3, 0, NOTE_FS3, 0, NOTE_FS3, 0, NOTE_F3, 0, NOTE_F3, 0, 
  NOTE_F3, 0, NOTE_AS3, 0, NOTE_AS3, 0, NOTE_AS3, 0, NOTE_B3, 0, 
  NOTE_B3, 0, NOTE_B3, 0, NOTE_GS3, 0, NOTE_GS3, 0, NOTE_CS3, 0, 
  NOTE_CS3, 0, NOTE_CS3, 0, NOTE_CS3, 0, NOTE_CS3, 0, NOTE_CS3, 0, 
  NOTE_CS3, 0, NOTE_CS3, 0, NOTE_CS3, 0, NOTE_CS3, 0, NOTE_CS3, 0, NOTE_CS3
};
const PROGMEM unsigned long delays2[] = {
  569166, 30833, 949166, 50833, 569166, 30833, 949166, 50833, 569166, 30833, 
  949166, 50833, 569166, 30833, 949166, 50833, 569166, 30833, 569166, 30833, 
  379166, 20833, 569166, 30833, 569166, 30833, 379166, 20833, 569166, 30833, 
  569166, 30833, 379166, 20833, 569166, 30833, 569166, 30833, 379166, 20833, 
  569166, 30833, 569166, 30833, 379166, 20833, 569166, 30833, 569166, 30833, 
  379166, 20833, 569166, 30833, 569166, 30833, 379166, 20833, 569166, 30833, 
  569166, 30833, 379166, 20833, 569166, 30833, 569166, 30833, 379166, 20833, 
  569166, 30833, 569166, 30833, 379166, 20833, 569166, 30833, 569166, 30833, 
  379166, 20833, 569166, 30833, 569166, 30833, 379166, 20833, 569166, 30833, 
  569166, 30833, 379166, 20833, 569166, 30833, 569166, 30833, 379166, 20833, 
  569166, 30833, 569166, 30833, 379166, 20833, 569166, 30833, 569166, 30833, 
  379166, 20833, 569166, 30833, 569166, 30833, 379166, 20833, 569166, 30833, 
  569166, 30833, 379166, 20833, 569166, 30833, 569166, 30833, 379166, 20833, 
  569166, 30833, 569166, 30833, 379166, 20833, 569166, 30833, 569166, 30833, 
  379166, 20833, 569166, 30833, 569166, 30833, 379166, 20833, 569166, 30833, 
  569166, 30833, 379166, 20833, 569166, 30833, 569166, 30833, 379166, 20833, 
  569166, 30833, 569166, 30833, 379166, 20833, 569166, 30833, 569166, 30833, 
  379166, 20833, 569166, 30833, 569166, 30833, 379166, 20833, 569166, 30833, 
  569166, 30833, 379166, 20833, 569166, 30833, 569166, 30833, 379166, 20833, 
  569166, 30833, 379166, 20833, 379166, 20833, 189166, 10833, 569166, 30833, 
  569166, 30833, 379166, 20833, 569166, 30833, 569166, 30833, 300000, 99999, 
  569166, 30833, 569166, 30833, 379166, 20833, 569166, 30833, 569166, 30833, 
  379166, 20833, 569166, 30833, 569166, 30833, 379166, 20833, 569166, 30833, 
  569166, 30833, 300000, 99999, 569166, 30833, 569166, 30833, 379166, 20833, 
  569166, 30833, 569166, 30833, 379166, 20833, 569166, 30833, 569166, 30833, 
  379166, 20833, 569166, 30833, 569166, 30833, 379166, 20833, 569166, 30833, 
  569166, 30833, 379166, 20833, 569166, 30833, 569166, 30833, 379166, 20833, 
  569166, 30833, 569166, 30833, 379166, 20833, 569166, 30833, 569166, 30833, 
  379166, 20833, 569166, 30833, 569166, 30833, 379166, 20833, 569166, 30833, 
  569166, 30833, 379166, 20833, 569166, 30833, 569166, 30833, 379166, 20833, 
  569166, 30833, 569166, 30833, 379166, 20833, 569166, 30833, 569166, 30833, 
  379166, 20833, 569166, 30833, 569166, 30833, 379166, 20833, 569166, 30833, 
  569166, 30833, 379166, 20833, 569166, 30833, 569166, 30833, 379166, 20833, 
  569166, 30833, 569166, 30833, 379166, 20833, 569166, 30833, 569166, 30833, 
  379166, 20833, 569166, 30833, 569166, 30833, 379166, 20833, 569166, 30833, 
  569166, 30833, 379166, 20833, 569166, 30833, 569166, 30833, 379166, 20833, 
  569166, 30833, 569166, 30833, 379166, 20833, 569166, 30833, 569166, 30833, 
  379166, 20833, 569166, 30833, 569166, 30833, 379166, 20833, 569166, 30833, 
  569166, 30833, 379166, 20833, 569166, 30833, 569166, 30833, 379166, 20833, 
  569166, 30833, 569166, 30833, 379166, 20833, 569166, 30833, 949166, 50833, 
  569166, 30833, 569166, 30833, 379166, 20833, 569166, 30833, 569166, 30833, 
  379166, 20833, 569166, 30833, 569166, 30833, 379166, 20833, 569166, 30833, 
  569166, 30833, 379166, 20833, 569166, 30833, 569166, 30833, 379166, 20833, 
  569166, 30833, 569166, 30833, 379166, 20833, 569166, 30833, 569166, 30833, 
  379166, 20833, 569166, 30833, 569166, 30833, 379166, 20833, 569166, 30833, 
  569166, 30833, 379166, 20833, 569166, 30833, 569166, 30833, 379166, 20833, 
  569166, 30833, 569166, 30833, 379166, 20833, 569166, 30833, 569166, 30833, 
  379166, 20833, 569166, 30833, 569166, 30833, 379166, 20833, 569166, 30833, 
  569166, 30833, 379166, 20833, 569166, 30833, 569166, 30833, 379166, 20833, 
  569166, 30833, 569166, 30833, 379166, 20833, 569166, 30833, 569166, 30833, 
  379166, 20833, 569166, 30833, 569166, 30833, 379166, 20833, 569166, 30833, 
  569166, 30833, 379166, 20833, 569166, 30833, 569166, 30833, 379166, 20833, 
  569166, 30833, 569166, 30833, 379166, 20833, 569166, 30833, 569166, 30833, 
  379166, 20833, 569166, 30833, 569166, 30833, 379166, 20833, 569166, 30833, 
  569166, 30833, 379166, 20833, 569166, 30833, 569166, 30833, 379166, 20833, 
  569166, 30833, 569166, 30833, 379166, 20833, 569166, 30833, 569166, 30833, 
  379166, 20833, 569166, 30833, 569166, 30833, 379166, 20833, 569166, 30833, 
  569166, 30833, 379166, 20833, 569166, 30833, 569166, 30833, 379166, 20833, 
  569166, 30833, 569166, 30833, 379166, 20833, 569166, 30833, 569166, 30833, 
  379166, 20833, 569166, 30833, 569166, 30833, 379166, 20833, 569166, 30833, 
  379166, 20833, 379166, 20833, 189166, 10833, 569166, 30833, 569166, 30833, 
  379166, 20833, 569166, 30833, 569166, 30833, 300000, 99999, 569166, 30833, 
  569166, 30833, 379166, 20833, 569166, 30833, 569166, 30833, 379166, 20833, 
  569166, 30833, 569166, 30833, 379166, 20833, 569166, 30833, 569166, 30833, 
  300000, 99999, 569166, 30833, 569166, 30833, 379166, 20833, 569166, 30833, 
  569166, 30833, 379166, 20833, 569166, 30833, 569166, 30833, 379166, 20833, 
  569166, 30833, 569166, 30833, 379166, 20833, 569166, 30833, 569166, 30833, 
  379166, 20833, 569166, 30833, 569166, 30833, 379166, 20833, 569166, 30833, 
  569166, 30833, 379166, 20833, 569166, 30833, 569166, 30833, 379166, 20833, 
  569166, 30833, 569166, 30833, 379166, 20833, 569166, 30833, 569166, 30833, 
  379166, 20833, 569166, 30833, 569166, 30833, 379166, 20833, 569166, 30833, 
  569166, 30833, 379166, 20833, 569166, 30833, 569166, 30833, 379166, 20833, 
  569166, 30833, 569166, 30833, 379166, 20833, 569166, 30833, 569166, 30833, 
  379166, 20833, 569166, 30833, 569166, 30833, 379166, 20833, 569166, 30833, 
  569166, 30833, 379166, 20833, 569166, 30833, 569166, 30833, 379166, 20833, 
  569166, 30833, 569166, 30833, 379166, 20833, 569166, 30833, 569166, 30833, 
  379166, 20833, 569166, 30833, 569166, 30833, 379166, 20833, 569166, 30833, 
  569166, 30833, 379166, 20833, 569166, 30833, 569166, 30833, 379166, 20833, 
  569166, 30833, 569166, 30833, 379166, 20833, 569166, 30833, 569166, 30833, 
  379166, 20833, 569166, 30833, 569166, 30833, 379166, 20833, 569166, 30833, 
  569166, 30833, 379166, 20833, 569166, 30833, 949166, 50833, 569166, 30833, 
  569166, 30833, 379166, 20833, 569166, 30833, 569166, 30833, 379166, 20833, 
  569166, 30833, 569166, 30833, 379166, 20833, 569166, 30833, 569166, 30833, 379166
};
