const PROGMEM int melody1[] = {
	NOTE_E3, 0, NOTE_E3, 0, NOTE_E3, 0, NOTE_E3, 0, NOTE_G3, 0, 
	NOTE_G3, 0, NOTE_G3, 0, NOTE_G3, 0, NOTE_A3, 0, NOTE_A3, 0, 
	NOTE_A3, 0, NOTE_A3, 0, NOTE_FS3, 0, NOTE_FS3, 0, NOTE_FS3, 0, 
	NOTE_FS3, 0, NOTE_G3, 0, NOTE_FS3, 0, NOTE_E3, 0, NOTE_E3, 0, 
	NOTE_E3, 0, NOTE_E3, 0, NOTE_G3, 0, NOTE_G3, 0, NOTE_G3, 0, 
	NOTE_G3, 0, NOTE_A3, 0, NOTE_A3, 0, NOTE_A3, 0, NOTE_A3, 0, 
	NOTE_FS3, 0, NOTE_FS3, 0, NOTE_FS3, 0, NOTE_FS3, 0, NOTE_G3, 0, 
	NOTE_FS3, 0, NOTE_E3, 0, NOTE_E3, 0, NOTE_E3, 0, NOTE_E3, 0, 
	NOTE_G3, 0, NOTE_G3, 0, NOTE_G3, 0, NOTE_G3, 0, NOTE_A3, 0, 
	NOTE_A3, 0, NOTE_A3, 0, NOTE_A3, 0, NOTE_FS3, 0, NOTE_FS3, 0, 
	NOTE_FS3, 0, NOTE_FS3, 0, NOTE_G3, 0, NOTE_FS3, 0, NOTE_B3, 0, 
	NOTE_B3, 0, NOTE_B3, 0, NOTE_B3, 0, NOTE_C4, 0, NOTE_C4, 0, 
	NOTE_C4, 0, NOTE_C4, 0, NOTE_D4, 0, NOTE_D4, 0, NOTE_D4, 0, 
	NOTE_D4, 0, NOTE_DS4, 0, NOTE_DS4, 0, NOTE_DS4, 0, NOTE_DS4, 0, 
	NOTE_FS4, 0, NOTE_FS4, 0, NOTE_FS4, 0, NOTE_FS4, 0, NOTE_FS4, 0, 
	NOTE_FS4, 0, NOTE_FS4, 0, NOTE_FS4, 0, NOTE_FS4, 0, NOTE_FS4, 0, 
	NOTE_FS4, 0, NOTE_FS4, 0, NOTE_E4, 0, NOTE_E4, 0, NOTE_FS4, 0, 
	NOTE_FS4, 0, NOTE_G4, 0, NOTE_G4, 0, NOTE_G4, 0, NOTE_G4, 0, 
	NOTE_G4, 0, NOTE_G4, 0, NOTE_G4, 0, NOTE_G4, 0, NOTE_G4, 0, 
	NOTE_G4, 0, NOTE_G4, 0, NOTE_G4, 0, NOTE_E4, 0, NOTE_E4, 0, 
	NOTE_FS4, 0, NOTE_FS4, 0, NOTE_FS4, 0, NOTE_FS4, 0, NOTE_FS4, 0, 
	NOTE_FS4, 0, NOTE_FS4, 0, NOTE_FS4, 0, NOTE_FS4, 0, NOTE_FS4, 0, 
	NOTE_FS4, 0, NOTE_FS4, 0, NOTE_FS4, 0, NOTE_FS4, 0, NOTE_E4, 0, 
	NOTE_E4, 0, NOTE_FS4, 0, NOTE_FS4, 0, NOTE_G4, 0, NOTE_G4, 0, 
	NOTE_G4, 0, NOTE_G4, 0, NOTE_G4, 0, NOTE_G4, 0, NOTE_G4, 0, 
	NOTE_G4, 0, NOTE_G4, 0, NOTE_G4, 0, NOTE_G4, 0, NOTE_G4, 0, 
	NOTE_E4, 0, NOTE_E4, 0, NOTE_FS4, 0, NOTE_FS4, 0, NOTE_B4, 0, 
	NOTE_B4, 0, NOTE_B4, 0, NOTE_B4, 0, NOTE_B4, 0, NOTE_B4, 0, 
	NOTE_B4, 0, NOTE_B4, 0, NOTE_B4, 0, NOTE_B4, 0, NOTE_B4, 0, 
	NOTE_B4, 0, NOTE_B4, 0, NOTE_B4, 0, NOTE_B4, 0, NOTE_B4, 0, 
	NOTE_B4, 0, NOTE_B4, 0, NOTE_B4, 0, NOTE_B4, 0, NOTE_B4, 0, 
	NOTE_B4, 0, NOTE_B4, 0, NOTE_B4, 0, NOTE_B4, 0, NOTE_B4, 0, 
	NOTE_B4, 0, NOTE_B4, 0, NOTE_B4, 0, NOTE_B4, 0, NOTE_B4, 0, 
	NOTE_B4, 0, NOTE_G4, 0, NOTE_G4, 0, NOTE_G4, 0, NOTE_G4, 0, 
	NOTE_G4, 0, NOTE_G4, 0, NOTE_G4, 0, NOTE_G4, 0, NOTE_G4, 0, 
	NOTE_G4, 0, NOTE_G4, 0, NOTE_G4, 0, NOTE_G4, 0, NOTE_G4, 0, 
	NOTE_G4, 0, NOTE_G4, 0, NOTE_G4, 0, NOTE_G4, 0, NOTE_G4, 0, 
	NOTE_G4, 0, NOTE_G4, 0, NOTE_G4, 0, NOTE_G4, 0, NOTE_G4, 0, 
	NOTE_G4, 0, NOTE_G4, 0, NOTE_G4, 0, NOTE_G4, 0, NOTE_G4, 0, 
	NOTE_G4, 0, NOTE_A4, 0, NOTE_A4, 0, NOTE_B4, 0, NOTE_B4, 0, 
	NOTE_B4, 0, NOTE_B4, 0, NOTE_B4, 0, NOTE_B4, 0, NOTE_B4, 0, 
	NOTE_B4, 0, NOTE_B4, 0, NOTE_B4, 0, NOTE_B4, 0, NOTE_B4, 0, 
	NOTE_B4, 0, NOTE_B4, 0, NOTE_B4, 0, NOTE_B4, 0, NOTE_B4, 0, 
	NOTE_B4, 0, NOTE_B4, 0, NOTE_B4, 0, NOTE_B4, 0, NOTE_B4, 0, 
	NOTE_B4, 0, NOTE_B4, 0, NOTE_B4, 0, NOTE_B4, 0, NOTE_B4, 0, 
	NOTE_B4, 0, NOTE_B4, 0, NOTE_B4, 0, NOTE_B4, 0, NOTE_B4, 0, 
	NOTE_G4, 0, NOTE_G4, 0, NOTE_G4, 0, NOTE_G4, 0, NOTE_G4, 0, 
	NOTE_G4, 0, NOTE_G4, 0, NOTE_G4, 0, NOTE_G4, 0, NOTE_G4, 0, 
	NOTE_G4, 0, NOTE_G4, 0, NOTE_G4, 0, NOTE_G4, 0, NOTE_G4, 0, 
	NOTE_G4, 0, NOTE_G4, 0, NOTE_G4, 0, NOTE_G4, 0, NOTE_G4, 0, 
	NOTE_G4, 0, NOTE_G4, 0, NOTE_G4, 0, NOTE_G4, 0, NOTE_G4, 0, 
	NOTE_G4, 0, NOTE_G4, 0, NOTE_G4, 0, NOTE_G4, 0, NOTE_G4, 0, 
	NOTE_G4, 0, NOTE_G4, 0
};
const PROGMEM int delays1[] = {
	473, 26, 473, 26, 473, 26, 473, 26, 473, 26, 
	473, 26, 473, 26, 473, 26, 473, 26, 473, 26, 
	473, 26, 473, 26, 473, 26, 473, 26, 473, 26, 
	236, 13, 117, 7, 117, 7, 473, 26, 473, 26, 
	473, 26, 473, 26, 473, 26, 473, 26, 473, 26, 
	473, 26, 473, 26, 473, 26, 473, 26, 473, 26, 
	473, 26, 473, 26, 473, 26, 236, 13, 117, 7, 
	117, 7, 473, 26, 473, 26, 473, 26, 473, 26, 
	473, 26, 473, 26, 473, 26, 473, 26, 473, 26, 
	473, 26, 473, 26, 473, 26, 473, 26, 473, 26, 
	473, 26, 236, 13, 117, 7, 117, 7, 473, 26, 
	473, 26, 473, 26, 473, 26, 473, 26, 473, 26, 
	473, 26, 473, 26, 473, 26, 473, 26, 473, 26, 
	473, 26, 473, 26, 473, 26, 473, 26, 473, 26, 
	165, 84, 236, 13, 236, 13, 165, 84, 236, 13, 
	236, 13, 165, 84, 236, 13, 236, 13, 165, 84, 
	236, 13, 236, 13, 165, 84, 236, 13, 165, 84, 
	236, 13, 165, 84, 236, 13, 236, 13, 165, 84, 
	236, 13, 236, 13, 165, 84, 236, 13, 236, 13, 
	165, 84, 236, 13, 236, 13, 165, 84, 236, 13, 
	165, 84, 236, 13, 165, 84, 236, 13, 236, 13, 
	165, 84, 236, 13, 236, 13, 165, 84, 236, 13, 
	236, 13, 165, 84, 236, 13, 236, 13, 165, 84, 
	236, 13, 165, 84, 236, 13, 165, 84, 236, 13, 
	236, 13, 165, 84, 236, 13, 236, 13, 165, 84, 
	236, 13, 236, 13, 165, 84, 236, 13, 236, 13, 
	165, 84, 236, 13, 165, 84, 236, 13, 165, 84, 
	236, 13, 236, 13, 165, 84, 236, 13, 236, 13, 
	165, 84, 236, 13, 236, 13, 165, 84, 236, 13, 
	236, 13, 165, 84, 236, 13, 165, 84, 236, 13, 
	165, 84, 236, 13, 236, 13, 165, 84, 236, 13, 
	236, 13, 165, 84, 236, 13, 236, 13, 165, 84, 
	236, 13, 236, 13, 165, 84, 236, 13, 165, 84, 
	236, 13, 165, 84, 236, 13, 236, 13, 165, 84, 
	236, 13, 236, 13, 165, 84, 236, 13, 165, 84, 
	236, 13, 236, 13, 165, 84, 236, 13, 236, 13, 
	165, 84, 236, 13, 165, 84, 236, 13, 236, 13, 
	165, 84, 236, 13, 236, 13, 165, 84, 236, 13, 
	165, 84, 236, 13, 236, 13, 165, 84, 236, 13, 
	236, 13, 165, 84, 236, 13, 165, 84, 236, 13, 
	236, 13, 165, 84, 236, 13, 236, 13, 165, 84, 
	236, 13, 165, 84, 236, 13, 236, 13, 165, 84, 
	236, 13, 236, 13, 165, 84, 236, 13, 165, 84, 
	236, 13, 236, 13, 165, 84, 236, 13, 236, 13, 
	165, 84, 236, 13, 165, 84, 236, 13, 236, 13, 
	165, 84, 236, 13, 236, 13, 165, 84, 236, 13, 
	165, 84, 236, 13, 236, 13, 165, 84, 236, 13, 
	236, 13, 165, 84, 236, 13, 165, 84, 236, 13, 
	236, 13, 165, 84, 236, 13, 236, 13, 165, 84, 
	236, 13, 165, 84, 236, 13, 236, 13, 165, 84, 
	236, 13, 236, 13, 165, 84, 236, 13, 165, 84, 
	236, 13, 236, 13, 165, 84, 236, 13, 236, 13, 
	165, 84, 236, 0
};
const PROGMEM int melody2[] = {
	NOTE_E5, 0, NOTE_B4, 0, NOTE_E5, 0, NOTE_FS5, 0, NOTE_E5, 0, 
	NOTE_B4, 0, NOTE_E5, 0, NOTE_FS5, 0, NOTE_E5, 0, NOTE_B4, 0, 
	NOTE_E5, 0, NOTE_FS5, 0, NOTE_E5, 0, NOTE_B4, 0, NOTE_E5, 0, 
	NOTE_FS5, 0, NOTE_E5, 0, NOTE_B4, 0, NOTE_E5, 0, NOTE_FS5, 0, 
	NOTE_E5, 0, NOTE_B4, 0, NOTE_E5, 0, NOTE_FS5, 0, NOTE_E5, 0, 
	NOTE_B4, 0, NOTE_E5, 0, NOTE_FS5, 0, NOTE_E5, 0, NOTE_B4, 0, 
	NOTE_E5, 0, NOTE_FS5, 0, NOTE_E5, 0, NOTE_B4, 0, NOTE_E5, 0, 
	NOTE_FS5, 0, NOTE_E5, 0, NOTE_B4, 0, NOTE_E5, 0, NOTE_FS5, 0, 
	NOTE_E5, 0, NOTE_B4, 0, NOTE_E5, 0, NOTE_FS5, 0, NOTE_E5, 0, 
	NOTE_B4, 0, NOTE_E5, 0, NOTE_FS5, 0, NOTE_E5, 0, NOTE_B4, 0, 
	NOTE_E5, 0, NOTE_FS5, 0, NOTE_E5, 0, NOTE_B4, 0, NOTE_E5, 0, 
	NOTE_FS5, 0, NOTE_E5, 0, NOTE_B4, 0, NOTE_E5, 0, NOTE_FS5, 0, 
	NOTE_E5, 0, NOTE_B4, 0, NOTE_E5, 0, NOTE_FS5, 0, NOTE_E5, 0, 
	NOTE_B4, 0, NOTE_E5, 0, NOTE_FS5, 0, NOTE_E5, 0, NOTE_B4, 0, 
	NOTE_E5, 0, NOTE_FS5, 0, NOTE_E5, 0, NOTE_B4, 0, NOTE_E5, 0, 
	NOTE_FS5, 0, NOTE_E5, 0, NOTE_B4, 0, NOTE_E5, 0, NOTE_FS5, 0, 
	NOTE_E5, 0, NOTE_B4, 0, NOTE_E5, 0, NOTE_FS5, 0, NOTE_E5, 0, 
	NOTE_B4, 0, NOTE_E5, 0, NOTE_FS5, 0, NOTE_E5, 0, NOTE_B4, 0, 
	NOTE_E5, 0, NOTE_FS5, 0, NOTE_E5, 0, NOTE_B4, 0, NOTE_E5, 0, 
	NOTE_FS5, 0, NOTE_E5, 0, NOTE_B4, 0, NOTE_E5, 0, NOTE_FS5, 0, 
	NOTE_E5, 0, NOTE_B4, 0, NOTE_E5, 0, NOTE_FS5, 0, NOTE_E5, 0, 
	NOTE_B4, 0, NOTE_E5, 0, NOTE_FS5, 0, NOTE_E5, 0, NOTE_B4, 0, 
	NOTE_E5, 0, NOTE_FS5, 0, NOTE_E5, 0, NOTE_B4, 0, NOTE_E5, 0, 
	NOTE_FS5, 0, NOTE_E5, 0, NOTE_B4, 0, NOTE_E5, 0, NOTE_FS5, 0, 
	NOTE_E5, 0, NOTE_B4, 0, NOTE_E5, 0, NOTE_FS5, 0, NOTE_E5, 0, 
	NOTE_B4, 0, NOTE_E5, 0, NOTE_FS5, 0, NOTE_E5, 0, NOTE_B4, 0, 
	NOTE_E5, 0, NOTE_FS5, 0, NOTE_E5, 0, NOTE_B4, 0, NOTE_E5, 0, 
	NOTE_FS5, 0, NOTE_E5, 0, NOTE_B4, 0, NOTE_E5, 0, NOTE_FS5, 0, 
	NOTE_E5, 0, NOTE_B4, 0, NOTE_E5, 0, NOTE_FS5, 0, NOTE_E5, 0, 
	NOTE_B4, 0, NOTE_E5, 0, NOTE_FS5, 0, NOTE_E5, 0, NOTE_B4, 0, 
	NOTE_E5, 0, NOTE_FS5, 0, NOTE_E5, 0, NOTE_B4, 0, NOTE_E5, 0, 
	NOTE_FS5, 0, NOTE_E5, 0, NOTE_B4, 0, NOTE_E5, 0, NOTE_FS5, 0, 
	NOTE_E5, 0, NOTE_B4, 0, NOTE_E5, 0, NOTE_FS5, 0, NOTE_E5, 0, 
	NOTE_B4, 0, NOTE_E5, 0, NOTE_FS5, 0, NOTE_E5, 0, NOTE_B4, 0, 
	NOTE_E5, 0, NOTE_FS5, 0, NOTE_E5, 0, NOTE_B4, 0, NOTE_E5, 0, 
	NOTE_FS5, 0, NOTE_E5, 0, NOTE_B4, 0, NOTE_E5, 0, NOTE_FS5, 0, 
	NOTE_E5, 0, NOTE_B4, 0, NOTE_E5, 0, NOTE_FS5, 0, NOTE_E5, 0, 
	NOTE_B4, 0, NOTE_E5, 0, NOTE_FS5, 0, NOTE_E5, 0, NOTE_B4, 0, 
	NOTE_E5, 0, NOTE_FS5, 0, NOTE_E5, 0, NOTE_B4, 0, NOTE_E5, 0, 
	NOTE_FS5, 0, NOTE_E5, 0, NOTE_B4, 0, NOTE_E5, 0, NOTE_FS5, 0, 
	NOTE_E5, 0, NOTE_B4, 0, NOTE_E5, 0, NOTE_FS5, 0, NOTE_E5, 0, 
	NOTE_B4, 0, NOTE_E5, 0, NOTE_FS5, 0, NOTE_E5, 0, NOTE_B4, 0, 
	NOTE_E5, 0, NOTE_FS5, 0, NOTE_E5, 0, NOTE_B4, 0, NOTE_E5, 0, 
	NOTE_FS5, 0, NOTE_E5, 0, NOTE_B4, 0, NOTE_E5, 0, NOTE_FS5, 0, 
	NOTE_E5, 0, NOTE_B4, 0, NOTE_E5, 0, NOTE_FS5, 0, NOTE_E5, 0, 
	NOTE_B4, 0, NOTE_E5, 0, NOTE_FS5, 0, NOTE_E5, 0, NOTE_B4, 0, 
	NOTE_E5, 0, NOTE_FS5, 0, NOTE_E5, 0, NOTE_B4, 0, NOTE_E5, 0, 
	NOTE_FS5, 0, NOTE_E5, 0, NOTE_B4, 0, NOTE_E5, 0, NOTE_FS5, 0, 
	NOTE_E5, 0, NOTE_B4, 0, NOTE_E5, 0, NOTE_FS5, 0, NOTE_E5, 0, 
	NOTE_B4, 0, NOTE_E5, 0, NOTE_FS5, 0, NOTE_E5, 0, NOTE_B4, 0, 
	NOTE_E5, 0, NOTE_FS5, 0, NOTE_E5, 0, NOTE_B4, 0, NOTE_E5, 0, 
	NOTE_FS5, 0, NOTE_B4, 0, NOTE_E5, 0, NOTE_FS5, 0, NOTE_B5, 0, 
	NOTE_FS5, 0, NOTE_E5, 0, NOTE_B4, 0, NOTE_E5, 0, NOTE_FS5, 0, 
	NOTE_B5, 0, NOTE_FS5, 0, NOTE_E5, 0, NOTE_B4, 0, NOTE_E5, 0, 
	NOTE_FS5, 0, NOTE_B5, 0, NOTE_FS5, 0, NOTE_E5, 0, NOTE_G4, 0, 
	NOTE_C5, 0, NOTE_E5, 0, NOTE_A4, 0, NOTE_D5, 0, NOTE_FS5, 0, 
	NOTE_B4, 0, NOTE_E5, 0, NOTE_FS5, 0, NOTE_B5, 0, NOTE_FS5, 0, 
	NOTE_E5, 0, NOTE_B4, 0, NOTE_E5, 0, NOTE_FS5, 0, NOTE_B5, 0, 
	NOTE_FS5, 0, NOTE_E5, 0, NOTE_B4, 0, NOTE_E5, 0, NOTE_FS5, 0, 
	NOTE_B5, 0, NOTE_FS5, 0, NOTE_E5, 0, NOTE_G4, 0, NOTE_C5, 0, 
	NOTE_E5, 0, NOTE_A4, 0, NOTE_D5, 0, NOTE_FS5, 0, NOTE_B4, 0, 
	NOTE_E5, 0, NOTE_FS5, 0, NOTE_B5, 0, NOTE_FS5, 0, NOTE_E5, 0, 
	NOTE_B4, 0, NOTE_E5, 0, NOTE_FS5, 0, NOTE_B5, 0, NOTE_FS5, 0, 
	NOTE_E5, 0, NOTE_B4, 0, NOTE_E5, 0, NOTE_FS5, 0, NOTE_B5, 0, 
	NOTE_FS5, 0, NOTE_E5, 0, NOTE_G4, 0, NOTE_C5, 0, NOTE_E5, 0, 
	NOTE_A4, 0, NOTE_D5, 0, NOTE_FS5, 0, NOTE_B4, 0, NOTE_E5, 0, 
	NOTE_FS5, 0, NOTE_B5, 0, NOTE_FS5, 0, NOTE_E5, 0, NOTE_B4, 0, 
	NOTE_E5, 0, NOTE_FS5, 0, NOTE_B5, 0, NOTE_FS5, 0, NOTE_E5, 0, 
	NOTE_B4, 0, NOTE_E5, 0, NOTE_FS5, 0, NOTE_B5, 0, NOTE_FS5, 0, 
	NOTE_E5, 0, NOTE_G4, 0, NOTE_C5, 0, NOTE_E5, 0, NOTE_A4, 0, 
	NOTE_D5, 0, NOTE_FS5, 0, NOTE_E5, 0, NOTE_E5, 0, NOTE_B4, 0, 
	NOTE_E5, 0, NOTE_FS5, 0, NOTE_GS5, 0, NOTE_GS5, 0, NOTE_A5, 0, 
	NOTE_B5, 0, NOTE_CS6, 0, NOTE_B5, 0, NOTE_A5, 0, NOTE_GS5, 0, 
	NOTE_FS5, 0, NOTE_E5, 0, NOTE_G5, 0, NOTE_G5, 0, NOTE_A5, 0, 
	NOTE_B5, 0, NOTE_C6, 0, NOTE_D6, 0, NOTE_E6, 0, NOTE_FS6, 0, 
	NOTE_G6, 0, NOTE_A6, 0, NOTE_FS6, 0, NOTE_G6, 0, NOTE_FS6, 0, 
	NOTE_E6, 0, NOTE_E5, 0, NOTE_E5, 0, NOTE_B4, 0, NOTE_E5, 0, 
	NOTE_A5, 0, NOTE_B5, 0, NOTE_B5, 0, NOTE_CS6, 0, NOTE_D6, 0, 
	NOTE_E6, 0, NOTE_D6, 0, NOTE_CS6, 0, NOTE_B5, 0, NOTE_A5, 0, 
	NOTE_FS5, 0, NOTE_G5, 0, NOTE_G5, 0, NOTE_A5, 0, NOTE_B5, 0, 
	NOTE_C6, 0, NOTE_D6, 0, NOTE_G6, 0, NOTE_A6, 0, NOTE_B6, 0
};
const PROGMEM int delays2[] = {
	117, 7, 117, 7, 117, 7, 117, 7, 117, 7, 
	117, 7, 117, 7, 117, 7, 117, 7, 117, 7, 
	117, 7, 117, 7, 117, 7, 117, 7, 117, 7, 
	117, 7, 117, 7, 117, 7, 117, 7, 117, 7, 
	117, 7, 117, 7, 117, 7, 117, 7, 117, 7, 
	117, 7, 117, 7, 117, 7, 117, 7, 117, 7, 
	117, 7, 117, 7, 117, 7, 117, 7, 117, 7, 
	117, 7, 117, 7, 117, 7, 117, 7, 117, 7, 
	117, 7, 117, 7, 117, 7, 117, 7, 117, 7, 
	117, 7, 117, 7, 117, 7, 117, 7, 117, 7, 
	117, 7, 117, 7, 117, 7, 117, 7, 117, 7, 
	117, 7, 117, 7, 117, 7, 117, 7, 117, 7, 
	117, 7, 117, 7, 117, 7, 117, 7, 117, 7, 
	117, 7, 117, 7, 117, 7, 117, 7, 117, 7, 
	117, 7, 117, 7, 117, 7, 117, 7, 117, 7, 
	117, 7, 117, 7, 117, 7, 117, 7, 117, 7, 
	117, 7, 117, 7, 117, 7, 117, 7, 117, 7, 
	117, 7, 117, 7, 117, 7, 117, 7, 117, 7, 
	117, 7, 117, 7, 117, 7, 117, 7, 117, 7, 
	117, 7, 117, 7, 117, 7, 117, 7, 117, 7, 
	117, 7, 117, 7, 117, 7, 117, 7, 117, 7, 
	117, 7, 117, 7, 117, 7, 117, 7, 117, 7, 
	117, 7, 117, 7, 117, 7, 117, 7, 117, 7, 
	117, 7, 117, 7, 117, 7, 117, 7, 117, 7, 
	117, 7, 117, 7, 117, 7, 117, 7, 117, 7, 
	117, 7, 117, 7, 117, 7, 117, 7, 117, 7, 
	117, 7, 117, 7, 117, 7, 117, 7, 117, 7, 
	117, 7, 117, 7, 117, 7, 117, 7, 117, 7, 
	117, 7, 117, 7, 117, 7, 117, 7, 117, 7, 
	117, 7, 117, 7, 117, 7, 117, 7, 117, 7, 
	117, 7, 117, 7, 117, 7, 117, 7, 117, 7, 
	117, 7, 117, 7, 117, 7, 117, 7, 117, 7, 
	117, 7, 117, 7, 117, 7, 117, 7, 117, 7, 
	117, 7, 117, 7, 117, 7, 117, 7, 117, 7, 
	117, 7, 117, 7, 117, 7, 117, 7, 117, 7, 
	117, 7, 117, 7, 117, 7, 117, 7, 117, 7, 
	117, 7, 117, 7, 117, 7, 117, 7, 117, 7, 
	117, 7, 117, 7, 117, 7, 117, 7, 117, 7, 
	117, 7, 117, 7, 117, 7, 117, 7, 117, 7, 
	117, 7, 117, 7, 117, 7, 117, 7, 117, 7, 
	117, 7, 117, 7, 117, 7, 117, 7, 117, 7, 
	117, 7, 117, 7, 117, 7, 117, 7, 117, 7, 
	117, 7, 117, 7, 117, 7, 117, 7, 117, 7, 
	117, 7, 117, 7, 117, 7, 117, 7, 117, 7, 
	117, 7, 117, 7, 117, 7, 117, 7, 117, 7, 
	117, 7, 117, 7, 117, 7, 117, 7, 117, 7, 
	117, 7, 117, 7, 117, 7, 117, 7, 117, 7, 
	117, 7, 117, 7, 117, 7, 117, 7, 117, 7, 
	117, 7, 117, 7, 117, 7, 117, 7, 117, 7, 
	117, 7, 117, 7, 117, 7, 117, 7, 117, 7, 
	117, 7, 117, 7, 117, 7, 117, 7, 117, 7, 
	117, 132, 117, 7, 117, 7, 117, 7, 117, 7, 
	117, 7, 236, 138, 117, 7, 117, 7, 117, 7, 
	117, 7, 117, 7, 236, 138, 117, 7, 117, 7, 
	117, 7, 117, 7, 117, 7, 236, 138, 117, 7, 
	117, 7, 117, 132, 117, 7, 117, 7, 117, 132, 
	117, 7, 117, 7, 117, 7, 117, 7, 117, 7, 
	236, 138, 117, 7, 117, 7, 117, 7, 117, 7, 
	117, 7, 236, 138, 117, 7, 117, 7, 117, 7, 
	117, 7, 117, 7, 236, 138, 117, 7, 117, 7, 
	117, 132, 117, 7, 117, 7, 117, 132, 117, 7, 
	117, 7, 117, 7, 117, 7, 117, 7, 236, 138, 
	117, 7, 117, 7, 117, 7, 117, 7, 117, 7, 
	236, 138, 117, 7, 117, 7, 117, 7, 117, 7, 
	117, 7, 236, 138, 117, 7, 117, 7, 117, 132, 
	117, 7, 117, 7, 117, 132, 117, 7, 117, 7, 
	117, 7, 117, 7, 117, 7, 236, 138, 117, 7, 
	117, 7, 117, 7, 117, 7, 117, 7, 236, 138, 
	117, 7, 117, 7, 117, 7, 117, 7, 117, 7, 
	236, 138, 117, 7, 117, 7, 117, 132, 117, 7, 
	117, 7, 117, 7, 948, 51, 236, 13, 236, 13, 
	117, 7, 123, 1, 1661, 88, 236, 13, 236, 13, 
	1186, 63, 473, 26, 236, 13, 473, 26, 473, 26, 
	473, 26, 473, 26, 473, 26, 236, 13, 236, 13, 
	948, 2426, 58, 4, 58, 4, 236, 13, 236, 13, 
	236, 13, 236, 13, 830, 44, 58, 4, 58, 4, 
	948, 551, 948, 51, 236, 13, 236, 13, 117, 7, 
	123, 1, 1661, 88, 236, 13, 236, 13, 1186, 63, 
	473, 26, 236, 13, 473, 26, 473, 26, 473, 26, 
	473, 26, 473, 26, 236, 13, 236, 13, 948, 2426, 
	58, 4, 58, 4, 236, 13, 236, 13, 948, 0
};
