const PROGMEM int melody1[] = {
	NOTE_E3, 0, NOTE_E3, 0, NOTE_C3, 0, NOTE_D3, 0, NOTE_E3, 0, 
	NOTE_FS3, 0, NOTE_GS3, 0, NOTE_CS3, 0, NOTE_A2, 0, NOTE_E3, 0, 
	NOTE_B2, 0, NOTE_D3, 0, NOTE_A3, 0, NOTE_A3, 0, NOTE_GS3, 0, 
	NOTE_GS3, 0, NOTE_AS3, 0, NOTE_FS3, 0, NOTE_CS3, 0, NOTE_GS3, 0, 
	NOTE_B3, 0, NOTE_GS3, 0, NOTE_AS3, 0, NOTE_AS3, 0, NOTE_G3, 0, 
	NOTE_F3, 0, NOTE_F3, 0, NOTE_F3, 0, NOTE_G3, 0, NOTE_G3, 0, 
	NOTE_GS3, 0
};
const PROGMEM int delays1[] = {
	3256, 172, 3256, 172, 1627, 86, 1627, 86, 3256, 172, 
	1627, 86, 1627, 86, 1627, 86, 1627, 86, 1627, 86, 
	1627, 86, 1627, 86, 813, 43, 813, 43, 1627, 86, 
	1627, 86, 1627, 86, 1627, 86, 1627, 86, 1627, 86, 
	1627, 86, 1627, 86, 1627, 86, 1627, 86, 3256, 172, 
	3256, 172, 1627, 86, 1627, 86, 1627, 86, 1627, 86, 
	1627, 0
};
const PROGMEM int melody2[] = {
	NOTE_B3, 0, NOTE_E4, 0, NOTE_G4, 0, NOTE_FS4, 0, NOTE_B3, 0, 
	NOTE_B3, 0, NOTE_E4, 0, NOTE_G4, 0, NOTE_FS4, 0, NOTE_E4, 0, 
	NOTE_FS4, 0, NOTE_G4, 0, NOTE_A4, 0, NOTE_B4, 0, NOTE_G4, 0, 
	NOTE_FS4, 0, NOTE_B4, 0, NOTE_E4, 0, NOTE_B4, 0, NOTE_E5, 0, 
	NOTE_DS5, 0, NOTE_CS5, 0, NOTE_C5, 0, NOTE_CS5, 0, NOTE_DS5, 0, 
	NOTE_CS5, 0, NOTE_CS5, 0, NOTE_DS5, 0, NOTE_E5, 0, NOTE_E5, 0, 
	NOTE_A5, 0, NOTE_GS5, 0, NOTE_FS5, 0, NOTE_E5, 0, NOTE_FS5, 0, 
	NOTE_FS5, 0, NOTE_GS5, 0, NOTE_A5, 0, NOTE_GS5, 0, NOTE_FS5, 0, 
	NOTE_E5, 0, NOTE_A5, 0, NOTE_GS5, 0, NOTE_DS5, 0, NOTE_GS5, 0, 
	NOTE_AS4, 0, NOTE_AS4, 0, NOTE_C5, 0, NOTE_CS5, 0, NOTE_FS5, 0, 
	NOTE_AS5, 0, NOTE_GS5, 0, NOTE_FS5, 0, NOTE_F5, 0, NOTE_DS5, 0, 
	NOTE_DS5, 0, NOTE_F5, 0, NOTE_FS5, 0, NOTE_GS5, 0, NOTE_AS5, 0, 
	NOTE_B5, 0, NOTE_CS6, 0, NOTE_B5, 0, NOTE_AS5, 0, NOTE_F5, 0, 
	NOTE_AS5, 0, NOTE_C5, 0, NOTE_G4, 0, NOTE_DS5, 0, NOTE_D5, 0, 
	NOTE_DS5, 0, NOTE_DS5, 0, NOTE_C5, 0, NOTE_C5, 0, NOTE_G4, 0, 
	NOTE_C5, 0, NOTE_DS5, 0, NOTE_DS5, 0, NOTE_D5, 0, NOTE_D5, 0, 
	NOTE_AS4, 0, NOTE_D5, 0, NOTE_F5, 0, NOTE_C5, NOTE_F5, 0, NOTE_B4, 
	NOTE_G5, 0, NOTE_B4, NOTE_G5, 0, NOTE_F5, 0, NOTE_DS5, 0, NOTE_D5, 
	0, NOTE_DS5, 0, NOTE_GS4, NOTE_C5, 0, NOTE_GS4, NOTE_C5, 0, NOTE_DS5, 
	0, NOTE_D5, 0, NOTE_DS5, 0, NOTE_F5, 0, NOTE_G5, 0, NOTE_F5, 
	0, NOTE_DS5, 0, NOTE_G4, 0, NOTE_C5, 0, NOTE_DS5, 0, NOTE_C5, 
	0, NOTE_DS5, 0, NOTE_DS5, 0, NOTE_D5, 0, NOTE_C5, 0, NOTE_D5, 
	0, NOTE_C5, 0, NOTE_B4, 0, NOTE_B4, 0
};
const PROGMEM int delays2[] = {
	813, 43, 813, 43, 813, 43, 609, 33, 1831, 97, 
	406, 22, 406, 22, 609, 33, 609, 33, 406, 22, 
	609, 33, 609, 33, 406, 22, 609, 33, 609, 33, 
	406, 22, 813, 43, 406, 22, 406, 22, 609, 33, 
	609, 33, 406, 22, 609, 33, 609, 33, 406, 22, 
	1016, 54, 304, 16, 304, 16, 1016, 54, 304, 16, 
	304, 16, 1016, 54, 304, 16, 304, 16, 1016, 54, 
	304, 16, 304, 16, 1016, 54, 304, 16, 304, 16, 
	813, 43, 813, 43, 813, 43, 813, 43, 1627, 86, 
	1016, 54, 304, 16, 304, 16, 1016, 54, 304, 16, 
	304, 16, 1016, 54, 304, 16, 304, 16, 1016, 54, 
	304, 16, 304, 16, 1016, 54, 304, 16, 304, 16, 
	1016, 54, 304, 16, 304, 16, 813, 43, 813, 43, 
	1627, 86, 813, 43, 813, 43, 609, 33, 609, 33, 
	406, 22, 609, 33, 202, 11, 813, 43, 609, 33, 
	609, 33, 406, 22, 609, 33, 202, 11, 813, 43, 
	609, 33, 609, 33, 406, 22, 0, 609, 33, 0, 
	202, 11, 0, 1220, 65, 406, 22, 406, 22, 406, 
	22, 609, 33, 0, 202, 11, 0, 1220, 65, 406, 
	22, 406, 22, 406, 22, 609, 33, 609, 33, 406, 
	22, 1627, 86, 813, 43, 813, 43, 609, 33, 609, 
	33, 406, 22, 813, 43, 813, 43, 813, 43, 813, 
	43, 1220, 65, 406, 22, 1627, 0
};
