const PROGMEM int melody1[] = {
	NOTE_E2, 0, NOTE_E3, 0, NOTE_E2, 0, NOTE_E3, 0, NOTE_E2, 0, 
	NOTE_E3, 0, NOTE_E2, 0, NOTE_E3, 0, NOTE_A2, 0, NOTE_A3, 0, 
	NOTE_A2, 0, NOTE_A3, 0, NOTE_A2, 0, NOTE_A3, 0, NOTE_A2, 0, 
	NOTE_A3, 0, NOTE_GS2, 0, NOTE_GS3, 0, NOTE_GS2, 0, NOTE_GS3, 0, 
	NOTE_E2, 0, NOTE_E3, 0, NOTE_E2, 0, NOTE_E3, 0, NOTE_A2, 0, 
	NOTE_A3, 0, NOTE_A2, 0, NOTE_A3, 0, NOTE_A2, 0, NOTE_A2, 0, 
	NOTE_B2, 0, NOTE_C3, 0, NOTE_D2, 0, NOTE_D3, 0, NOTE_D2, 0, 
	NOTE_D3, 0, NOTE_D2, 0, NOTE_D3, 0, NOTE_D2, 0, NOTE_D3, 0, 
	NOTE_C2, 0, NOTE_C3, 0, NOTE_C2, 0, NOTE_C3, 0, NOTE_C2, 0, 
	NOTE_C3, 0, NOTE_C2, 0, NOTE_C3, 0, NOTE_GS2, 0, NOTE_GS3, 0, 
	NOTE_GS2, 0, NOTE_GS3, 0, NOTE_E2, 0, NOTE_E3, 0, NOTE_E2, 0, 
	NOTE_E3, 0, NOTE_A2, 0, NOTE_A3, 0, NOTE_A2, 0, NOTE_A3, 0, 
	NOTE_A2, 0, NOTE_A3, 0, NOTE_A2, 0, NOTE_A2, 0, NOTE_E2, 0, 
	NOTE_E3, 0, NOTE_E2, 0, NOTE_E3, 0, NOTE_E2, 0, NOTE_E3, 0, 
	NOTE_E2, 0, NOTE_E3, 0, NOTE_A2, 0, NOTE_A3, 0, NOTE_A2, 0, 
	NOTE_A3, 0, NOTE_A2, 0, NOTE_A3, 0, NOTE_A2, 0, NOTE_A3, 0, 
	NOTE_GS2, 0, NOTE_GS3, 0, NOTE_GS2, 0, NOTE_GS3, 0, NOTE_E2, 0, 
	NOTE_E3, 0, NOTE_E2, 0, NOTE_E3, 0, NOTE_A2, 0, NOTE_A3, 0, 
	NOTE_A2, 0, NOTE_A3, 0, NOTE_A2, 0, NOTE_A2, 0, NOTE_B2, 0, 
	NOTE_C3, 0, NOTE_D2, 0, NOTE_D3, 0, NOTE_D2, 0, NOTE_D3, 0, 
	NOTE_D2, 0, NOTE_D3, 0, NOTE_D2, 0, NOTE_D3, 0, NOTE_C2, 0, 
	NOTE_C3, 0, NOTE_C2, 0, NOTE_C3, 0, NOTE_C2, 0, NOTE_C3, 0, 
	NOTE_C2, 0, NOTE_C3, 0, NOTE_GS2, 0, NOTE_GS3, 0, NOTE_GS2, 0, 
	NOTE_GS3, 0, NOTE_E2, 0, NOTE_E3, 0, NOTE_E2, 0, NOTE_E3, 0, 
	NOTE_A2, 0, NOTE_A3, 0, NOTE_A2, 0, NOTE_A3, 0, NOTE_A2, 0, 
	NOTE_A3, 0, NOTE_A2, 0, NOTE_A2, 0, NOTE_A2, 0, NOTE_A3, 0, 
	NOTE_A2, 0, NOTE_A3, 0, NOTE_A2, 0, NOTE_A3, 0, NOTE_A2, 0, 
	NOTE_A3, 0, NOTE_GS2, 0, NOTE_GS3, 0, NOTE_GS2, 0, NOTE_GS3, 0, 
	NOTE_GS2, 0, NOTE_GS3, 0, NOTE_GS2, 0, NOTE_GS3, 0, NOTE_A2, 0, 
	NOTE_A3, 0, NOTE_A2, 0, NOTE_A3, 0, NOTE_A2, 0, NOTE_A3, 0, 
	NOTE_A2, 0, NOTE_A3, 0, NOTE_E2, 0, NOTE_E3, 0, NOTE_E2, 0, 
	NOTE_E3, 0, NOTE_E2, 0, NOTE_E3, 0, NOTE_E2, 0, NOTE_E3, 0, 
	NOTE_A2, 0, NOTE_A3, 0, NOTE_A2, 0, NOTE_A3, 0, NOTE_A2, 0, 
	NOTE_A3, 0, NOTE_A2, 0, NOTE_A3, 0, NOTE_GS2, 0, NOTE_GS3, 0, 
	NOTE_GS2, 0, NOTE_GS3, 0, NOTE_GS2, 0, NOTE_GS3, 0, NOTE_GS2, 0, 
	NOTE_GS3, 0, NOTE_A2, 0, NOTE_A3, 0, NOTE_A2, 0, NOTE_A3, 0, 
	NOTE_A2, 0, NOTE_A3, 0, NOTE_A2, 0, NOTE_A3, 0, NOTE_E2, 0, 
	NOTE_E3, 0, NOTE_E2, 0, NOTE_E3, 0, NOTE_E2, 0, NOTE_E3, 0, 
	NOTE_E2, 0, NOTE_E3, 0, NOTE_E2, 0, NOTE_E3, 0, NOTE_E2, 0, 
	NOTE_E3, 0, NOTE_E2, 0, NOTE_E3, 0, NOTE_E2, 0, NOTE_E3, 0, 
	NOTE_A2, 0, NOTE_A3, 0, NOTE_A2, 0, NOTE_A3, 0, NOTE_A2, 0, 
	NOTE_A3, 0, NOTE_A2, 0, NOTE_A3, 0, NOTE_GS2, 0, NOTE_GS3, 0, 
	NOTE_GS2, 0, NOTE_GS3, 0, NOTE_E2, 0, NOTE_E3, 0, NOTE_E2, 0, 
	NOTE_E3, 0, NOTE_A2, 0, NOTE_A3, 0, NOTE_A2, 0, NOTE_A3, 0, 
	NOTE_A2, 0, NOTE_A2, 0, NOTE_B2, 0, NOTE_C3, 0, NOTE_D2, 0, 
	NOTE_D3, 0, NOTE_D2, 0, NOTE_D3, 0, NOTE_D2, 0, NOTE_D3, 0, 
	NOTE_D2, 0, NOTE_D3, 0, NOTE_C2, 0, NOTE_C3, 0, NOTE_C2, 0, 
	NOTE_C3, 0, NOTE_C2, 0, NOTE_C3, 0, NOTE_C2, 0, NOTE_C3, 0, 
	NOTE_GS2, 0, NOTE_GS3, 0, NOTE_GS2, 0, NOTE_GS3, 0, NOTE_E2, 0, 
	NOTE_E3, 0, NOTE_E2, 0, NOTE_E3, 0, NOTE_A2, 0, NOTE_A3, 0, 
	NOTE_A2, 0, NOTE_A3, 0, NOTE_A2, 0, NOTE_A3, 0, NOTE_A2, 0, 
	NOTE_A2, 0, NOTE_A2, 0, NOTE_A3, 0, NOTE_A2, 0, NOTE_A3, 0, 
	NOTE_A2, 0, NOTE_A3, 0, NOTE_A2, 0, NOTE_A3, 0, NOTE_GS2, 0, 
	NOTE_GS3, 0, NOTE_GS2, 0, NOTE_GS3, 0, NOTE_GS2, 0, NOTE_GS3, 0, 
	NOTE_GS2, 0, NOTE_GS3, 0, NOTE_A2, 0, NOTE_A3, 0, NOTE_A2, 0, 
	NOTE_A3, 0, NOTE_A2, 0, NOTE_A3, 0, NOTE_A2, 0, NOTE_A3, 0, 
	NOTE_E2, 0, NOTE_E3, 0, NOTE_E2, 0, NOTE_E3, 0, NOTE_E2, 0, 
	NOTE_E3, 0, NOTE_E2, 0, NOTE_E3, 0, NOTE_A2, 0, NOTE_A3, 0, 
	NOTE_A2, 0, NOTE_A3, 0, NOTE_A2, 0, NOTE_A3, 0, NOTE_A2, 0, 
	NOTE_A3, 0, NOTE_GS2, 0, NOTE_GS3, 0, NOTE_GS2, 0, NOTE_GS3, 0, 
	NOTE_GS2, 0, NOTE_GS3, 0, NOTE_GS2, 0, NOTE_GS3, 0, NOTE_A2, 0, 
	NOTE_A3, 0, NOTE_A2, 0, NOTE_A3, 0, NOTE_A2, 0, NOTE_A3, 0, 
	NOTE_A2, 0, NOTE_A3, 0, NOTE_E2, 0, NOTE_E3, 0, NOTE_E2, 0, 
	NOTE_E3, 0, NOTE_E2, 0, NOTE_E3, 0, NOTE_E2, 0, NOTE_E3, 0
};
const PROGMEM int delays1[] = {
	123, 126, 123, 126, 123, 126, 123, 126, 123, 126, 
	123, 126, 123, 126, 123, 126, 123, 126, 123, 126, 
	123, 126, 123, 126, 123, 126, 123, 126, 123, 126, 
	123, 126, 123, 126, 123, 126, 123, 126, 123, 126, 
	123, 126, 123, 126, 123, 126, 123, 126, 123, 126, 
	123, 126, 123, 126, 123, 126, 123, 126, 123, 126, 
	123, 126, 123, 126, 123, 126, 123, 126, 123, 126, 
	123, 126, 123, 126, 123, 126, 123, 126, 123, 126, 
	123, 126, 123, 126, 123, 126, 123, 126, 123, 126, 
	123, 126, 123, 126, 123, 126, 123, 126, 123, 126, 
	123, 126, 123, 126, 123, 126, 123, 126, 123, 126, 
	123, 126, 123, 126, 123, 126, 123, 126, 123, 126, 
	123, 126, 123, 126, 123, 126, 123, 126, 123, 126, 
	123, 126, 123, 126, 123, 126, 123, 126, 123, 126, 
	123, 126, 123, 126, 123, 126, 123, 126, 123, 126, 
	123, 126, 123, 126, 123, 126, 123, 126, 123, 126, 
	123, 126, 123, 126, 123, 126, 123, 126, 123, 126, 
	123, 126, 123, 126, 123, 126, 123, 126, 123, 126, 
	123, 126, 123, 126, 123, 126, 123, 126, 123, 126, 
	123, 126, 123, 126, 123, 126, 123, 126, 123, 126, 
	123, 126, 123, 126, 123, 126, 123, 126, 123, 126, 
	123, 126, 123, 126, 123, 126, 123, 126, 123, 126, 
	123, 126, 123, 126, 123, 126, 123, 126, 123, 126, 
	123, 126, 123, 126, 123, 126, 123, 126, 123, 126, 
	123, 126, 123, 126, 123, 126, 123, 126, 123, 126, 
	123, 126, 123, 126, 123, 126, 123, 126, 123, 126, 
	123, 126, 123, 126, 123, 126, 123, 126, 123, 126, 
	123, 126, 123, 126, 123, 126, 123, 126, 123, 126, 
	123, 126, 123, 126, 123, 126, 123, 126, 123, 126, 
	123, 126, 123, 126, 123, 126, 123, 126, 123, 126, 
	123, 126, 123, 126, 123, 126, 123, 126, 123, 126, 
	123, 126, 123, 126, 123, 126, 123, 126, 123, 126, 
	123, 126, 123, 126, 123, 126, 123, 126, 123, 126, 
	123, 126, 123, 126, 123, 126, 123, 126, 123, 126, 
	123, 126, 123, 126, 123, 126, 123, 126, 123, 126, 
	123, 126, 123, 126, 123, 126, 123, 126, 123, 126, 
	123, 126, 123, 126, 123, 126, 123, 126, 123, 126, 
	123, 126, 123, 126, 123, 126, 123, 126, 123, 126, 
	123, 126, 123, 126, 123, 126, 123, 126, 123, 126, 
	123, 126, 123, 126, 123, 126, 123, 126, 123, 126, 
	123, 126, 123, 126, 123, 126, 123, 126, 123, 126, 
	123, 126, 123, 126, 123, 126, 123, 126, 123, 126, 
	123, 126, 123, 126, 123, 126, 123, 126, 123, 126, 
	123, 126, 123, 126, 123, 126, 123, 126, 123, 126, 
	123, 126, 123, 126, 123, 126, 123, 126, 123, 126, 
	123, 126, 123, 126, 123, 126, 123, 126, 123, 126, 
	123, 126, 123, 126, 123, 126, 123, 126, 123, 126, 
	123, 126, 123, 126, 123, 126, 123, 126, 123, 126, 
	123, 126, 123, 126, 123, 126, 123, 126, 123, 126, 
	123, 126, 123, 126, 123, 126, 123, 126, 123, 126, 
	123, 126, 123, 126, 123, 126, 123, 126, 123, 126, 
	123, 126, 123, 126, 123, 126, 123, 126, 123, 126, 
	123, 126, 123, 126, 123, 126, 123, 126, 123, 126, 
	123, 126, 123, 126, 123, 126, 123, 126, 123, 126, 
	123, 126, 123, 126, 123, 126, 123, 126, 123, 126, 
	123, 126, 123, 126, 123, 126, 123, 126, 123, 126, 
	123, 126, 123, 126, 123, 126, 123, 126, 123, 126, 
	123, 126, 123, 126, 123, 126, 123, 126, 123, 126, 
	123, 126, 123, 126, 123, 126, 123, 126, 123, 126, 
	123, 126, 123, 126, 123, 126, 123, 126, 123, 126, 
	123, 126, 123, 126, 123, 126, 123, 126, 123, 126, 
	123, 126, 123, 126, 123, 126, 123, 126, 123, 126, 
	123, 126, 123, 126, 123, 126, 123, 126, 123, 126, 
	123, 126, 123, 126, 123, 126, 123, 126, 123, 0
};
const PROGMEM int melody2[] = {
	NOTE_E5, 0, NOTE_B4, 0, NOTE_C5, 0, NOTE_D5, 0, NOTE_C5, 0, 
	NOTE_B4, 0, NOTE_A4, 0, NOTE_C5, 0, NOTE_E5, 0, NOTE_D5, 0, 
	NOTE_C5, 0, NOTE_B4, 0, NOTE_C5, 0, NOTE_D5, 0, NOTE_E5, 0, 
	NOTE_C5, 0, NOTE_A4, 0, NOTE_A4, 0, NOTE_D5, 0, NOTE_F5, 0, 
	NOTE_A5, 0, NOTE_G5, 0, NOTE_F5, 0, NOTE_E5, 0, NOTE_C5, 0, 
	NOTE_E5, 0, NOTE_D5, 0, NOTE_C5, 0, NOTE_B4, 0, NOTE_C5, 0, 
	NOTE_D5, 0, NOTE_E5, 0, NOTE_C5, 0, NOTE_A4, 0, NOTE_A4, 0, 
	NOTE_E5, 0, NOTE_B4, 0, NOTE_C5, 0, NOTE_D5, 0, NOTE_C5, 0, 
	NOTE_B4, 0, NOTE_A4, 0, NOTE_C5, 0, NOTE_E5, 0, NOTE_D5, 0, 
	NOTE_C5, 0, NOTE_B4, 0, NOTE_C5, 0, NOTE_D5, 0, NOTE_E5, 0, 
	NOTE_C5, 0, NOTE_A4, 0, NOTE_A4, 0, NOTE_D5, 0, NOTE_F5, 0, 
	NOTE_A5, 0, NOTE_G5, 0, NOTE_F5, 0, NOTE_E5, 0, NOTE_C5, 0, 
	NOTE_E5, 0, NOTE_D5, 0, NOTE_C5, 0, NOTE_B4, 0, NOTE_C5, 0, 
	NOTE_D5, 0, NOTE_E5, 0, NOTE_C5, 0, NOTE_A4, 0, NOTE_A4, 0, 
	NOTE_E5, 0, NOTE_C5, 0, NOTE_D5, 0, NOTE_B4, 0, NOTE_C5, 0, 
	NOTE_A4, 0, NOTE_GS4, 0, NOTE_B4, 0, NOTE_E5, 0, NOTE_C5, 0, 
	NOTE_D5, 0, NOTE_B4, 0, NOTE_C5, 0, NOTE_E5, 0, NOTE_A5, 0, 
	NOTE_GS5, 0, NOTE_E5, 0, NOTE_B4, 0, NOTE_C5, 0, NOTE_D5, 0, 
	NOTE_C5, 0, NOTE_B4, 0, NOTE_A4, 0, NOTE_C5, 0, NOTE_E5, 0, 
	NOTE_D5, 0, NOTE_C5, 0, NOTE_B4, 0, NOTE_C5, 0, NOTE_D5, 0, 
	NOTE_E5, 0, NOTE_C5, 0, NOTE_A4, 0, NOTE_A4, 0, NOTE_D5, 0, 
	NOTE_F5, 0, NOTE_A5, 0, NOTE_G5, 0, NOTE_F5, 0, NOTE_E5, 0, 
	NOTE_C5, 0, NOTE_E5, 0, NOTE_D5, 0, NOTE_C5, 0, NOTE_B4, 0, 
	NOTE_C5, 0, NOTE_D5, 0, NOTE_E5, 0, NOTE_C5, 0, NOTE_A4, 0, 
	NOTE_A4, 0, NOTE_E5, 0, NOTE_C5, 0, NOTE_D5, 0, NOTE_B4, 0, 
	NOTE_C5, 0, NOTE_A4, 0, NOTE_GS4, 0, NOTE_B4, 0, NOTE_E5, 0, 
	NOTE_C5, 0, NOTE_D5, 0, NOTE_B4, 0, NOTE_C5, 0, NOTE_E5, 0, 
	NOTE_A5, 0, NOTE_GS5, 0
};
const PROGMEM int delays2[] = {
	473, 26, 236, 13, 236, 13, 473, 26, 236, 13, 
	236, 13, 711, 38, 236, 13, 473, 26, 236, 13, 
	236, 13, 711, 38, 236, 13, 473, 26, 473, 26, 
	473, 26, 473, 26, 948, 51, 711, 38, 236, 13, 
	473, 26, 236, 13, 236, 13, 711, 38, 236, 13, 
	473, 26, 236, 13, 236, 13, 711, 38, 236, 13, 
	473, 26, 473, 26, 473, 26, 473, 26, 948, 51, 
	473, 26, 236, 13, 236, 13, 473, 26, 236, 13, 
	236, 13, 711, 38, 236, 13, 473, 26, 236, 13, 
	236, 13, 711, 38, 236, 13, 473, 26, 473, 26, 
	473, 26, 473, 26, 948, 51, 711, 38, 236, 13, 
	473, 26, 236, 13, 236, 13, 711, 38, 236, 13, 
	473, 26, 236, 13, 236, 13, 711, 38, 236, 13, 
	473, 26, 473, 26, 473, 26, 473, 26, 948, 51, 
	948, 51, 948, 51, 948, 51, 948, 51, 948, 51, 
	948, 51, 948, 51, 948, 51, 948, 51, 948, 51, 
	948, 51, 948, 51, 473, 26, 473, 26, 948, 51, 
	948, 1051, 473, 26, 236, 13, 236, 13, 473, 26, 
	236, 13, 236, 13, 711, 38, 236, 13, 473, 26, 
	236, 13, 236, 13, 711, 38, 236, 13, 473, 26, 
	473, 26, 473, 26, 473, 26, 948, 51, 711, 38, 
	236, 13, 473, 26, 236, 13, 236, 13, 711, 38, 
	236, 13, 473, 26, 236, 13, 236, 13, 711, 38, 
	236, 13, 473, 26, 473, 26, 473, 26, 473, 26, 
	948, 51, 948, 51, 948, 51, 948, 51, 948, 51, 
	948, 51, 948, 51, 948, 51, 948, 51, 948, 51, 
	948, 51, 948, 51, 948, 51, 473, 26, 473, 26, 
	948, 51, 948, 0
};
