const PROGMEM int melody1[] = {
	NOTE_F3, 0, NOTE_C4, 0, NOTE_C4, 0, NOTE_F3, 0, NOTE_A3, 0, 
	NOTE_A3, 0, NOTE_F3, 0, NOTE_C4, 0, NOTE_C4, 0, NOTE_F3, 0, 
	NOTE_A3, 0, NOTE_C4, 0, NOTE_F3, 0, NOTE_A3, 0, NOTE_A3, 0, 
	NOTE_F3, 0, NOTE_A3, 0, NOTE_C4, 0, NOTE_F3, 0, NOTE_A3, 0, 
	NOTE_C4, 0, NOTE_F3, 0, NOTE_A3, 0, NOTE_A3, 0, NOTE_G3, 0, 
	NOTE_D4, 0, NOTE_D4, 0, NOTE_G3, 0, NOTE_D4, 0, NOTE_D4, 0, 
	NOTE_G3, 0, NOTE_B3, 0, NOTE_B3, 0, NOTE_G3, 0, NOTE_B3, 0, 
	NOTE_D4, 0, NOTE_C3, 0, NOTE_C3, 0, NOTE_C3, 0, NOTE_F3, 0, 
	NOTE_C3, 0, NOTE_F3, 0, NOTE_A3, 0, NOTE_A3, 0, NOTE_F3, 0, 
	NOTE_A3, 0, NOTE_C4, 0, NOTE_F3, 0, NOTE_A3, 0, NOTE_C4, 0, 
	NOTE_F3, 0, NOTE_C4, 0, NOTE_C4, 0, NOTE_G3, 0, NOTE_D4, 0, 
	NOTE_D4, 0, NOTE_G3, 0, NOTE_D4, 0, NOTE_D4, 0, NOTE_G3, 0, 
	NOTE_D4, 0, NOTE_D4, 0, NOTE_G3, 0, NOTE_B3, 0, NOTE_D4, 0, 
	NOTE_C3, 0, NOTE_E3, 0, NOTE_E3, 0, NOTE_C3, 0, NOTE_E3, 0, 
	NOTE_G3, 0, NOTE_C3, 0, NOTE_G3, 0, NOTE_G3, 0, NOTE_C3, 0, 
	NOTE_G3, 0, NOTE_G3, 0, NOTE_C5, 0, NOTE_CS5, 0, NOTE_D5, 0, 
	NOTE_DS5, 0, NOTE_E5, 0, NOTE_F5, 0, NOTE_FS5, 0, NOTE_G5, 0, 
	NOTE_GS5, 0, NOTE_A5, 0, NOTE_AS5, 0, NOTE_AS5, 0, NOTE_A5, 0, 
	NOTE_GS5, 0, NOTE_G5, 0, NOTE_FS5, 0, NOTE_F5, 0, NOTE_E5, 0, 
	NOTE_DS5, 0, NOTE_D5, 0, NOTE_CS5, 0, NOTE_C5, 0, NOTE_B4, 0, 
	NOTE_C5, 0
};
const PROGMEM int delays1[] = {
	378, 21, 378, 21, 378, 21, 378, 21, 378, 21, 
	378, 21, 378, 21, 378, 21, 378, 21, 378, 21, 
	378, 21, 378, 21, 378, 21, 378, 21, 378, 21, 
	378, 21, 378, 21, 378, 21, 378, 21, 378, 21, 
	378, 21, 378, 21, 378, 21, 188, 211, 378, 21, 
	378, 21, 378, 21, 378, 21, 378, 21, 378, 21, 
	378, 21, 378, 21, 378, 21, 378, 21, 378, 21, 
	378, 21, 2278, 121, 1138, 61, 1138, 61, 2278, 121, 
	2278, 121, 378, 21, 378, 21, 378, 21, 378, 21, 
	378, 21, 378, 21, 378, 21, 378, 21, 378, 21, 
	378, 21, 378, 21, 378, 21, 378, 21, 378, 21, 
	378, 21, 378, 21, 378, 21, 378, 21, 378, 21, 
	378, 21, 378, 21, 378, 21, 378, 21, 378, 21, 
	378, 21, 378, 21, 378, 21, 378, 21, 378, 21, 
	378, 21, 378, 21, 378, 21, 378, 21, 378, 21, 
	378, 21, 378, 9821, 188, 11, 188, 11, 188, 11, 
	188, 11, 188, 11, 188, 11, 188, 11, 188, 11, 
	188, 11, 188, 11, 188, 11, 188, 11, 188, 11, 
	188, 11, 188, 11, 188, 11, 188, 11, 188, 11, 
	188, 11, 188, 11, 188, 11, 188, 11, 188, 11, 
	1138, 0
};

const PROGMEM int melody2[] = {
	NOTE_F4, 0, NOTE_F4, 0, NOTE_E4, 0, NOTE_E4, 0, NOTE_D4, 0, 
	NOTE_D4, 0, NOTE_C4, 0, NOTE_F5, 0, NOTE_A5, 0, NOTE_F5, 0, 
	NOTE_E5, 0, NOTE_C4, 0, NOTE_C4, 0, NOTE_C4, 0, NOTE_F5, 0, 
	NOTE_A5, 0, NOTE_F5, 0, NOTE_D5, 0, NOTE_C4, 0, NOTE_D5, 0, 
	NOTE_F5, 0, NOTE_D5, 0, NOTE_C5, 0, NOTE_C4, 0, NOTE_C4, 0, 
	NOTE_D5, 0, NOTE_A5, 0, NOTE_G5, 0, NOTE_D5, 0, NOTE_A5, 0, 
	NOTE_G5, 0, NOTE_F5, 0, NOTE_D5, 0, NOTE_D4, 0, NOTE_D4, 0, 
	NOTE_D4, 0, NOTE_F5, 0, NOTE_G5, 0, NOTE_F5, 0, NOTE_E5, 0, 
	NOTE_E5, 0, NOTE_G5, 0, NOTE_E5, 0, NOTE_C5, 0, NOTE_C5, 0, 
	NOTE_E5, 0, NOTE_C5, 0, NOTE_AS4, 0, NOTE_A4, 0, NOTE_AS4, 0, 
	NOTE_C5, 0, NOTE_D5, 0, NOTE_E5, 0, NOTE_C5, 0, NOTE_D5, 0, 
	NOTE_E5, 0, NOTE_F5, 0, NOTE_A5, 0, NOTE_F5, 0, NOTE_E5, 0, 
	NOTE_C4, 0, NOTE_C4, 0, NOTE_C4, 0, NOTE_A5, 0, NOTE_F5, 0, 
	NOTE_D5, 0, NOTE_C4, 0, NOTE_F5, 0, NOTE_A5, 0, NOTE_D6, 0, 
	NOTE_E6, 0, NOTE_D6, 0, NOTE_F6, 0, NOTE_E6, 0, NOTE_D6, 0, 
	NOTE_A5, 0, NOTE_B5, 0, NOTE_D6, 0, NOTE_DS6, 0, NOTE_E6, 0, 
	NOTE_F6, 0, NOTE_E6, 0, NOTE_DS6, 0, NOTE_D6, 0, NOTE_D5, 0, 
	NOTE_F6, 0, NOTE_G6, 0, NOTE_F6, 0, NOTE_E6, 0, NOTE_G4, 0, 
	NOTE_G4, 0, NOTE_E6, 0, NOTE_G4, 0, NOTE_E6, 0, NOTE_G6, 0, 
	NOTE_E6, 0, NOTE_C6, 0, NOTE_C6, 0, NOTE_E6, 0, NOTE_C6, 0, 
	NOTE_AS5, 0, NOTE_C6, 0, NOTE_D6, 0, NOTE_FS6, 0, NOTE_G6, 0, 
	NOTE_A6, 0, NOTE_AS6, 0, NOTE_C7, 0, NOTE_AS6, 0, NOTE_C7, 0, 
	NOTE_AS6, NOTE_C5, 0, NOTE_C7, 0, NOTE_AS6, 0, NOTE_C7, 0, NOTE_AS6, 
	0, NOTE_C7, 0, 0, NOTE_AS6, NOTE_A4, 0, NOTE_C7, 0, 0, 
	NOTE_G4, 0, NOTE_A4, 0, NOTE_AS4, 0, NOTE_A4, 0, NOTE_G4, 0, 
	NOTE_D5, 0, NOTE_A4, 0, NOTE_G4, 0, NOTE_A4, 0, NOTE_GS4, 0, 
	NOTE_G4, 0, NOTE_F4, 0, NOTE_F4, 0, NOTE_A4, 0, NOTE_G4, 0, 
	NOTE_F4, 0, NOTE_A4, 0, NOTE_FS4, 0, NOTE_D4, 0, NOTE_B3, 0, 
	NOTE_A4, 0, NOTE_G4, 0, NOTE_D4, 0, NOTE_F4, 0, NOTE_G4, 0, 
	NOTE_D4, 0
};
const PROGMEM int delays2[] = {
	378, 21, 378, 421, 378, 21, 378, 421, 378, 21, 
	378, 421, 188, 11, 188, 11, 188, 11, 188, 11, 
	378, 21, 378, 21, 378, 421, 188, 11, 188, 11, 
	188, 11, 188, 11, 378, 21, 188, 11, 188, 11, 
	188, 11, 188, 11, 378, 21, 378, 21, 188, 11, 
	188, 11, 378, 21, 568, 31, 188, 11, 378, 21, 
	378, 21, 378, 21, 378, 21, 378, 21, 378, 421, 
	188, 11, 188, 11, 188, 11, 188, 11, 1518, 281, 
	188, 11, 188, 11, 188, 11, 568, 31, 188, 11, 
	188, 11, 188, 11, 1138, 461, 378, 21, 378, 21, 
	568, 31, 188, 11, 378, 421, 378, 21, 378, 21, 
	378, 221, 188, 11, 188, 11, 188, 11, 378, 21, 
	378, 21, 378, 421, 378, 21, 188, 11, 188, 11, 
	378, 21, 188, 11, 188, 11, 188, 11, 188, 11, 
	948, 51, 188, 11, 378, 21, 568, 31, 188, 11, 
	378, 21, 378, 21, 251, 15, 61, 4, 61, 4, 
	1011, 54, 61, 4, 61, 4, 378, 21, 188, 11, 
	188, 11, 188, 11, 188, 11, 378, 21, 378, 21, 
	378, 21, 378, 21, 188, 11, 188, 11, 188, 11, 
	188, 11, 568, 31, 188, 11, 188, 11, 188, 11, 
	188, 11, 188, 11, 188, 11, 188, 11, 188, 11, 
	188, 11, 91, 6, 91, 8, 91, 9, 91, 6, 
	1, 90, 8, 91, 9, 91, 6, 91, 8, 91, 
	9, 68, 23, 6, 1, 90, 8, 90, 1, 9, 
	948, 51, 188, 11, 378, 21, 568, 31, 188, 11, 
	378, 21, 378, 21, 378, 21, 1011, 54, 61, 4, 
	61, 4, 758, 241, 188, 11, 378, 21, 378, 221, 
	188, 11, 378, 21, 378, 21, 378, 21, 378, 21, 
	378, 21, 758, 41, 378, 21, 378, 21, 1138, 61, 
	1138, 0
};

