const PROGMEM int melody1[] = {
	NOTE_GS2, 0, NOTE_GS3, 0, NOTE_DS3, 0, NOTE_GS2, 0, NOTE_GS3, 0, 
	NOTE_DS3, 0, NOTE_GS2, 0, NOTE_GS3, 0, NOTE_DS3, 0, NOTE_GS2, 0, 
	NOTE_GS3, 0, NOTE_DS3, 0, NOTE_GS2, 0, NOTE_GS3, 0, NOTE_DS3, 0, 
	NOTE_GS2, 0, NOTE_GS3, 0, NOTE_DS3, 0, NOTE_GS2, 0, NOTE_GS3, 0, 
	NOTE_DS3, 0, NOTE_GS2, 0, NOTE_GS3, 0, NOTE_DS3, 0, NOTE_GS2, 0, 
	NOTE_GS3, 0, NOTE_DS3, 0, NOTE_GS2, 0, NOTE_GS3, 0, NOTE_DS3, 0, 
	NOTE_GS2, 0, NOTE_GS3, 0, NOTE_DS3, 0, NOTE_GS2, 0, NOTE_GS3, 0, 
	NOTE_DS3, 0, NOTE_E2, 0, NOTE_E3, 0, NOTE_B2, 0, NOTE_E2, 0, 
	NOTE_E3, 0, NOTE_B2, 0, NOTE_E2, 0, NOTE_E3, 0, NOTE_B2, 0, 
	NOTE_E2, 0, NOTE_E3, 0, NOTE_B2, 0, NOTE_FS2, 0, NOTE_FS3, 0, 
	NOTE_CS3, 0, NOTE_FS2, 0, NOTE_FS3, 0, NOTE_CS3, 0, NOTE_FS2, 0, 
	NOTE_FS3, 0, NOTE_CS3, 0, NOTE_FS2, 0, NOTE_FS3, 0, NOTE_CS3, 0, 
	NOTE_E2, 0, NOTE_E3, 0, NOTE_B2, 0, NOTE_E2, 0, NOTE_E3, 0, 
	NOTE_B2, 0, NOTE_DS2, 0, NOTE_DS3, 0, NOTE_AS2, 0, NOTE_DS2, 0, 
	NOTE_DS3, 0, NOTE_AS2, 0, NOTE_GS2, 0, NOTE_GS3, 0, NOTE_DS3, 0, 
	NOTE_GS2, 0, NOTE_GS3, 0, NOTE_DS3, 0, NOTE_GS2, 0, NOTE_GS3, 0, 
	NOTE_DS3, 0, NOTE_GS2, 0, NOTE_GS3, 0, NOTE_DS3, 0, NOTE_E2, 0, 
	NOTE_E3, 0, NOTE_B2, 0, NOTE_E2, 0, NOTE_E3, 0, NOTE_B2, 0, 
	NOTE_E2, 0, NOTE_E3, 0, NOTE_B2, 0, NOTE_E2, 0, NOTE_E3, 0, 
	NOTE_B2, 0, NOTE_FS2, 0, NOTE_FS3, 0, NOTE_CS3, 0, NOTE_FS2, 0, 
	NOTE_FS3, 0, NOTE_CS3, 0, NOTE_FS2, 0, NOTE_FS3, 0, NOTE_CS3, 0, 
	NOTE_FS2, 0, NOTE_FS3, 0, NOTE_CS3, 0, NOTE_E2, 0, NOTE_E3, 0, 
	NOTE_B2, 0, NOTE_E2, 0, NOTE_E3, 0, NOTE_B2, 0, NOTE_DS2, 0, 
	NOTE_DS3, 0, NOTE_AS2, 0, NOTE_DS2, 0, NOTE_DS3, 0, NOTE_AS2, 0, 
	NOTE_CS2, 0, NOTE_CS3, 0, NOTE_GS2, 0, NOTE_CS2, 0, NOTE_CS3, 0, 
	NOTE_GS2, 0, NOTE_CS2, 0, NOTE_CS3, 0, NOTE_GS2, 0, NOTE_CS2, 0, 
	NOTE_CS3, 0, NOTE_GS2, 0, NOTE_GS2, 0, NOTE_GS3, 0, NOTE_DS3, 0, 
	NOTE_GS2, 0, NOTE_GS3, 0, NOTE_DS3, 0, NOTE_FS2, 0, NOTE_FS3, 0, 
	NOTE_CS3, 0, NOTE_FS2, 0, NOTE_FS3, 0, NOTE_CS3, 0, NOTE_E2, 0, 
	NOTE_E3, 0, NOTE_B2, 0, NOTE_E2, 0, NOTE_E3, 0, NOTE_B2, 0, 
	NOTE_E2, 0, NOTE_E3, 0, NOTE_B2, 0, NOTE_E2, 0, NOTE_E3, 0, 
	NOTE_B2, 0, NOTE_B2, 0, NOTE_B3, 0, NOTE_FS3, 0, NOTE_B2, 0, 
	NOTE_B3, 0, NOTE_FS3, 0, NOTE_DS2, 0, NOTE_DS3, 0, NOTE_AS2, 0, 
	NOTE_DS2, 0, NOTE_DS3, 0, NOTE_AS2, 0
};
const PROGMEM int delays1[] = {
	213, 0, 106, 0, 106, 0, 213, 0, 106, 0, 
	106, 0, 213, 0, 106, 0, 106, 0, 213, 0, 
	106, 0, 106, 0, 213, 0, 106, 0, 106, 0, 
	213, 0, 106, 0, 106, 0, 213, 0, 106, 0, 
	106, 0, 213, 0, 106, 0, 106, 0, 213, 0, 
	106, 0, 106, 0, 213, 0, 106, 0, 106, 0, 
	213, 0, 106, 0, 106, 0, 213, 0, 106, 0, 
	106, 0, 213, 0, 106, 0, 106, 0, 213, 0, 
	106, 0, 106, 0, 213, 0, 106, 0, 106, 0, 
	213, 0, 106, 0, 106, 0, 213, 0, 106, 0, 
	106, 0, 213, 0, 106, 0, 106, 0, 213, 0, 
	106, 0, 106, 0, 213, 0, 106, 0, 106, 0, 
	213, 0, 106, 0, 106, 0, 213, 0, 106, 0, 
	106, 0, 213, 0, 106, 0, 106, 0, 213, 0, 
	106, 0, 106, 0, 213, 0, 106, 0, 106, 0, 
	213, 0, 106, 0, 106, 0, 213, 0, 106, 0, 
	106, 0, 213, 0, 106, 0, 106, 0, 213, 0, 
	106, 0, 106, 0, 213, 0, 106, 0, 106, 0, 
	213, 0, 106, 0, 106, 0, 213, 0, 106, 0, 
	106, 0, 213, 0, 106, 0, 106, 0, 213, 0, 
	106, 0, 106, 0, 213, 0, 106, 0, 106, 0, 
	213, 0, 106, 0, 106, 0, 213, 0, 106, 0, 
	106, 0, 213, 0, 106, 0, 106, 0, 213, 0, 
	106, 0, 106, 0, 213, 0, 106, 0, 106, 0, 
	213, 0, 106, 0, 106, 0, 213, 0, 106, 0, 
	106, 0, 213, 0, 106, 0, 106, 0, 213, 0, 
	106, 0, 106, 0, 213, 0, 106, 0, 106, 0, 
	213, 0, 106, 0, 106, 0, 213, 0, 106, 0, 
	106, 0, 213, 0, 106, 0, 106, 0, 213, 0, 
	106, 0, 106, 0, 213, 0, 106, 0, 106, 0, 
	213, 0, 106, 0, 106, 0, 213, 0, 106, 0, 
	106, 0, 213, 0, 106, 0, 106, 0, 213, 0, 
	106, 0, 106, 0, 213, 0, 106, 0, 106, 0, 
	213, 0, 106, 0, 106, 0
};
const PROGMEM int melody2[] = {
	NOTE_GS4, 0, NOTE_GS4, 0, NOTE_AS4, 0, NOTE_B4, 0, NOTE_CS5, 0, 
	NOTE_B4, 0, NOTE_AS4, 0, NOTE_B4, 0, NOTE_AS4, 0, NOTE_FS4, 0, 
	NOTE_AS4, 0, NOTE_FS4, 0, NOTE_A4, 0, NOTE_AS4, 0, NOTE_B4, 0, 
	NOTE_GS4, 0, NOTE_B4, 0, NOTE_AS4, 0, NOTE_GS4, 0, NOTE_G4, 0, 
	NOTE_DS5, 0, NOTE_B4, 0, NOTE_GS4, 0, NOTE_AS4, 0, NOTE_B4, 0, 
	NOTE_CS5, 0, NOTE_B4, 0, NOTE_AS4, 0, NOTE_B4, 0, NOTE_AS4, 0, 
	NOTE_FS4, 0, NOTE_AS4, 0, NOTE_FS4, 0, NOTE_A4, 0, NOTE_AS4, 0, 
	NOTE_B4, 0, NOTE_GS4, 0, NOTE_B4, 0, NOTE_AS4, 0, NOTE_GS4, 0, 
	NOTE_G4, 0, NOTE_GS4, 0, NOTE_GS4, 0, NOTE_GS4, 0, NOTE_GS4, 0, 
	NOTE_B4, 0, NOTE_AS4, 0, NOTE_FS4, 0, NOTE_GS4, 0, NOTE_FS4, 0, 
	NOTE_GS4, 0, NOTE_GS4, 0, NOTE_GS4, 0, NOTE_GS4, 0, NOTE_B4, 0, 
	NOTE_GS4, 0, NOTE_E4, 0, NOTE_FS4, 0, NOTE_B4, 0, NOTE_AS4, 0
};
const PROGMEM int delays2[] = {
	213, 0, 427, 0, 427, 0, 641, 0, 641, 0, 
	106, 0, 106, 0, 427, 0, 213, 0, 213, 0, 
	213, 0, 427, 0, 52, 0, 374, 0, 641, 0, 
	641, 0, 106, 0, 106, 0, 427, 0, 427, 0, 
	106, 0, 106, 0, 427, 0, 427, 0, 641, 0, 
	641, 0, 106, 0, 106, 0, 427, 0, 213, 0, 
	213, 0, 213, 0, 427, 0, 52, 0, 374, 0, 
	641, 0, 641, 0, 106, 0, 106, 0, 427, 0, 
	427, 0, 213, 0, 213, 0, 213, 0, 427, 0, 
	213, 0, 213, 0, 213, 0, 856, 0, 856, 0, 
	213, 0, 213, 0, 213, 0, 427, 0, 213, 0, 
	213, 0, 213, 0, 427, 0, 213, 0, 1070, 0
};
