const PROGMEM int melody1[] = {
	NOTE_D4, 0, NOTE_CS4, 0, NOTE_C4, 0, NOTE_B3, 0, NOTE_C4, 0, 
	NOTE_CS4, 0, NOTE_D4, 0, NOTE_D4, 0, NOTE_D4, 0, NOTE_E4, 0, 
	NOTE_F4, 0, NOTE_G4, 0, NOTE_G4, 0, NOTE_G3, 0, NOTE_C4, 0, 
	NOTE_FS4, 0, NOTE_G3, 0, NOTE_B3, 0, NOTE_G4, 0, NOTE_G3, 0, 
	NOTE_C4, 0, NOTE_E3, 0, NOTE_G3, 0, NOTE_C4, 0, NOTE_G4, 0, 
	NOTE_G3, 0, NOTE_C4, 0, NOTE_FS4, 0, NOTE_G3, 0, NOTE_B3, 0, 
	NOTE_G4, 0, NOTE_G3, 0, NOTE_C4, 0, NOTE_E3, 0, NOTE_G3, 0, 
	NOTE_C4, 0, NOTE_F4, 0, NOTE_G3, 0, NOTE_B3, 0, NOTE_E4, 0, 
	NOTE_FS3, 0, NOTE_AS3, 0, NOTE_F4, 0, NOTE_G3, 0, NOTE_B3, 0, 
	NOTE_B2, 0, NOTE_G3, 0, NOTE_B3, 0, NOTE_F4, 0, NOTE_G3, 0, 
	NOTE_B3, 0, NOTE_F4, 0, NOTE_G3, 0, NOTE_B3, 0, NOTE_G4, 0, 
	NOTE_G3, 0, NOTE_C4, 0, NOTE_G2, 0, NOTE_G3, 0, NOTE_C4, 0, 
	NOTE_E5, 0, NOTE_G3, 0, NOTE_E4, 0, NOTE_D5, 0, NOTE_G3, 0, 
	NOTE_D4, 0, NOTE_CS5, 0, NOTE_G3, 0, NOTE_CS4, 0, NOTE_CS3, 0, 
	NOTE_G3, 0, NOTE_CS4, 0, NOTE_D5, 0, NOTE_A3, 0, NOTE_F4, 0, 
	NOTE_CS5, 0, NOTE_A3, 0, NOTE_F4, 0, NOTE_C5, 0, NOTE_A3, 0, 
	NOTE_F4, 0, NOTE_B2, 0, NOTE_G3, 0, NOTE_F4, 0, NOTE_C5, 0, 
	NOTE_G3, 0, NOTE_E4, 0, NOTE_G2, 0, NOTE_G3, 0, NOTE_G3, 0, 
	NOTE_B4, 0, NOTE_B4, 0, NOTE_B4, 0, NOTE_F4, 0, NOTE_E4, 0, 
	NOTE_D4, 0, NOTE_CS4, 0, NOTE_C4, 0, NOTE_B3, 0, NOTE_C4, 0, 
	NOTE_CS4, 0, NOTE_D4, 0, NOTE_D4, 0, NOTE_D4, 0, NOTE_E4, 0, 
	NOTE_F4, 0, NOTE_G4, 0, NOTE_G4, 0, NOTE_G3, 0, NOTE_C4, 0, 
	NOTE_FS4, 0, NOTE_G3, 0, NOTE_B3, 0, NOTE_G4, 0, NOTE_G3, 0, 
	NOTE_C4, 0, NOTE_E3, 0, NOTE_G3, 0, NOTE_C4, 0, NOTE_G4, 0, 
	NOTE_G3, 0, NOTE_C4, 0, NOTE_FS4, 0, NOTE_G3, 0, NOTE_B3, 0, 
	NOTE_G4, 0, NOTE_G3, 0, NOTE_C4, 0, NOTE_E3, 0, NOTE_G3, 0, 
	NOTE_C4, 0, NOTE_F4, 0, NOTE_G3, 0, NOTE_B3, 0, NOTE_E4, 0, 
	NOTE_FS3, 0, NOTE_AS3, 0, NOTE_F4, 0, NOTE_G3, 0, NOTE_B3, 0, 
	NOTE_B2, 0, NOTE_G3, 0, NOTE_B3, 0, NOTE_F4, 0, NOTE_G3, 0, 
	NOTE_B3, 0, NOTE_F4, 0, NOTE_G3, 0, NOTE_B3, 0, NOTE_G4, 0, 
	NOTE_G3, 0, NOTE_C4, 0, NOTE_G2, 0, NOTE_G3, 0, NOTE_C4, 0, 
	NOTE_E5, 0, NOTE_G3, 0, NOTE_E4, 0, NOTE_D5, 0, NOTE_G3, 0, 
	NOTE_D4, 0, NOTE_CS5, 0, NOTE_G3, 0, NOTE_CS4, 0, NOTE_CS3, 0, 
	NOTE_G3, 0, NOTE_CS4, 0, NOTE_D5, 0, NOTE_A3, 0, NOTE_F4, 0, 
	NOTE_CS5, 0, NOTE_A3, 0, NOTE_F4, 0, NOTE_C5, 0, NOTE_A3, 0, 
	NOTE_F4, 0, NOTE_B2, 0, NOTE_G3, 0, NOTE_F4, 0, NOTE_C5, 0, 
	NOTE_G3, 0, NOTE_E4, 0, NOTE_G2, 0, NOTE_G3, 0, NOTE_G3, 0, 
	NOTE_B4, 0, NOTE_B4, 0, NOTE_B4, 0, NOTE_F4, 0, NOTE_E4, 0
};
const PROGMEM int delays1[] = {
	252, 14, 252, 14, 252, 14, 252, 14, 252, 14, 
	252, 14, 125, 7, 125, 7, 252, 14, 252, 14, 
	505, 27, 252, 14, 252, 14, 252, 14, 252, 14, 
	252, 14, 252, 14, 252, 14, 252, 14, 252, 14, 
	252, 14, 252, 14, 252, 14, 252, 14, 252, 14, 
	252, 14, 252, 14, 252, 14, 252, 14, 252, 14, 
	252, 14, 252, 14, 252, 14, 252, 14, 252, 14, 
	252, 14, 252, 14, 252, 14, 252, 14, 252, 14, 
	252, 14, 252, 14, 252, 14, 252, 14, 252, 14, 
	252, 14, 252, 14, 252, 14, 252, 14, 252, 14, 
	252, 14, 252, 14, 252, 14, 252, 14, 252, 14, 
	252, 14, 252, 14, 252, 14, 252, 14, 252, 14, 
	252, 14, 252, 14, 252, 14, 252, 14, 252, 14, 
	252, 14, 252, 14, 252, 14, 252, 14, 252, 14, 
	252, 14, 252, 14, 252, 14, 252, 14, 252, 14, 
	252, 14, 252, 14, 252, 14, 252, 14, 252, 14, 
	252, 14, 252, 14, 252, 14, 252, 14, 252, 14, 
	252, 14, 252, 14, 252, 14, 252, 14, 252, 14, 
	125, 7, 125, 7, 378, 21, 125, 7, 758, 41, 
	252, 14, 252, 14, 252, 14, 252, 14, 252, 14, 
	252, 14, 125, 7, 125, 7, 252, 14, 252, 14, 
	505, 27, 252, 14, 252, 14, 252, 14, 252, 14, 
	252, 14, 252, 14, 252, 14, 252, 14, 252, 14, 
	252, 14, 252, 14, 252, 14, 252, 14, 252, 14, 
	252, 14, 252, 14, 252, 14, 252, 14, 252, 14, 
	252, 14, 252, 14, 252, 14, 252, 14, 252, 14, 
	252, 14, 252, 14, 252, 14, 252, 14, 252, 14, 
	252, 14, 252, 14, 252, 14, 252, 14, 252, 14, 
	252, 14, 252, 14, 252, 14, 252, 14, 252, 14, 
	252, 14, 252, 14, 252, 14, 252, 14, 252, 14, 
	252, 14, 252, 14, 252, 14, 252, 14, 252, 14, 
	252, 14, 252, 14, 252, 14, 252, 14, 252, 14, 
	252, 14, 252, 14, 252, 14, 252, 14, 252, 14, 
	252, 14, 252, 14, 252, 14, 252, 14, 252, 14, 
	252, 14, 252, 14, 252, 14, 252, 14, 252, 14, 
	252, 14, 252, 14, 252, 14, 252, 14, 252, 14, 
	252, 14, 252, 14, 252, 14, 252, 14, 252, 14, 
	125, 7, 125, 7, 378, 21, 125, 7, 758, 0
};
const PROGMEM int melody2[] = {
	NOTE_D4, 0, NOTE_E4, 0, NOTE_FS4, 0, NOTE_G4, 0, NOTE_A4, 0, 
	NOTE_AS4, 0, NOTE_B4, 0, NOTE_B4, 0, NOTE_B4, 0, NOTE_B4, 0, 
	NOTE_B4, 0, NOTE_G4, 0, NOTE_E5, 0, NOTE_DS5, 0, NOTE_E5, 0, 
	NOTE_G4, 0, NOTE_A4, 0, NOTE_B4, 0, NOTE_C5, 0, NOTE_D5, 0, 
	NOTE_E5, 0, NOTE_DS5, 0, NOTE_F5, 0, NOTE_E5, 0, NOTE_G4, 0, 
	NOTE_D5, 0, NOTE_CS5, 0, NOTE_D5, 0, NOTE_G4, 0, NOTE_A4, 0, 
	NOTE_B4, 0, NOTE_C5, 0, NOTE_CS5, 0, NOTE_D5, 0, NOTE_G4, 0, 
	NOTE_A4, NOTE_F5, 0, NOTE_E5, 0, NOTE_G4, 0, NOTE_G5, 0, NOTE_G5, 
	0, NOTE_G5, 0, NOTE_G5, 0, NOTE_A5, 0, NOTE_G5, 0, NOTE_F5, 
	0, NOTE_F5, 0, NOTE_F5, 0, NOTE_F5, 0, NOTE_G5, 0, NOTE_F5, 
	0, NOTE_E5, 0, NOTE_G4, 0, NOTE_A4, 0, NOTE_F5, 0, NOTE_E5, 
	0, NOTE_E5, 0, NOTE_E5, 0, NOTE_B4, 0, NOTE_C5, 0, NOTE_D4, 
	0, NOTE_E4, 0, NOTE_FS4, 0, NOTE_G4, 0, NOTE_A4, 0, NOTE_AS4, 
	0, NOTE_B4, 0, NOTE_B4, 0, NOTE_B4, 0, NOTE_B4, 0, NOTE_B4, 
	0, NOTE_G4, 0, NOTE_E5, 0, NOTE_DS5, 0, NOTE_E5, 0, NOTE_G4, 
	0, NOTE_A4, 0, NOTE_B4, 0, NOTE_C5, 0, NOTE_D5, 0, NOTE_E5, 
	0, NOTE_DS5, 0, NOTE_F5, 0, NOTE_E5, 0, NOTE_G4, 0, NOTE_D5, 
	0, NOTE_CS5, 0, NOTE_D5, 0, NOTE_G4, 0, NOTE_A4, 0, NOTE_B4, 
	0, NOTE_C5, 0, NOTE_CS5, 0, NOTE_D5, 0, NOTE_G4, 0, NOTE_A4, 
	NOTE_F5, 0, NOTE_E5, 0, NOTE_G4, 0, NOTE_G5, 0, NOTE_G5, 0, 
	NOTE_G5, 0, NOTE_G5, 0, NOTE_A5, 0, NOTE_G5, 0, NOTE_F5, 0, 
	NOTE_F5, 0, NOTE_F5, 0, NOTE_F5, 0, NOTE_G5, 0, NOTE_F5, 0, 
	NOTE_E5, 0, NOTE_G4, 0, NOTE_A4, 0, NOTE_F5, 0, NOTE_E5, 0, 
	NOTE_E5, 0, NOTE_E5, 0, NOTE_B4, 0, NOTE_C5, 0
};
const PROGMEM int delays2[] = {
	252, 14, 252, 14, 252, 14, 252, 14, 252, 14, 
	252, 14, 125, 7, 125, 7, 252, 14, 252, 14, 
	505, 27, 252, 14, 758, 41, 758, 41, 758, 174, 
	125, 7, 125, 7, 125, 7, 125, 7, 125, 7, 
	758, 41, 505, 27, 252, 14, 505, 961, 125, 7, 
	758, 41, 758, 41, 758, 174, 125, 7, 125, 7, 
	125, 7, 125, 7, 125, 7, 758, 41, 505, 27, 
	0, 252, 14, 505, 961, 125, 7, 758, 41, 758, 
	41, 758, 41, 252, 14, 378, 21, 125, 7, 758, 
	41, 758, 41, 758, 41, 252, 14, 378, 21, 125, 
	7, 758, 41, 252, 14, 252, 14, 252, 14, 125, 
	7, 125, 7, 378, 21, 125, 7, 758, 41, 252, 
	14, 252, 14, 252, 14, 252, 14, 252, 14, 252, 
	14, 125, 7, 125, 7, 252, 14, 252, 14, 505, 
	27, 252, 14, 758, 41, 758, 41, 758, 174, 125, 
	7, 125, 7, 125, 7, 125, 7, 125, 7, 758, 
	41, 505, 27, 252, 14, 505, 961, 125, 7, 758, 
	41, 758, 41, 758, 174, 125, 7, 125, 7, 125, 
	7, 125, 7, 125, 7, 758, 41, 505, 27, 0, 
	252, 14, 505, 961, 125, 7, 758, 41, 758, 41, 
	758, 41, 252, 14, 378, 21, 125, 7, 758, 41, 
	758, 41, 758, 41, 252, 14, 378, 21, 125, 7, 
	758, 41, 252, 14, 252, 14, 252, 14, 125, 7, 
	125, 7, 378, 21, 125, 7, 758, 0
};
