const PROGMEM int melody1[] = {
	NOTE_F2, 0, NOTE_F2, 0, NOTE_G2, 0, NOTE_G2, 0, NOTE_E2, 0, 
	NOTE_E2, 0, NOTE_A2, 0, NOTE_A2, 0, NOTE_F2, 0, NOTE_F2, 0, 
	NOTE_G2, 0, NOTE_G2, 0, NOTE_E2, 0, NOTE_E2, 0, NOTE_A2, 0, 
	NOTE_A2, 0, NOTE_F2, 0, NOTE_F2, 0, NOTE_G2, 0, NOTE_G2, 0, 
	NOTE_E2, 0, NOTE_E2, 0, NOTE_A2, 0, NOTE_A2, 0, NOTE_F2, 0, 
	NOTE_F2, 0, NOTE_G2, 0, NOTE_G2, 0, NOTE_E2, 0, NOTE_A2, 0, 
	NOTE_F2, 0, NOTE_F2, 0, NOTE_G2, 0, NOTE_G2, 0, NOTE_FS2, 0, 
	NOTE_F2, 0, NOTE_F2, 0, NOTE_G2, 0, NOTE_G2, 0, NOTE_FS2, 0, 
	NOTE_F2, 0, NOTE_F2, 0, NOTE_G2, 0, NOTE_G2, 0, NOTE_FS2, 0, 
	NOTE_F2, 0, NOTE_F2, 0, NOTE_G2, 0, NOTE_G2, 0, NOTE_FS2, 0, 
	NOTE_F2, 0, NOTE_F2, 0, NOTE_F2, 0, NOTE_F2, 0, NOTE_G2, 0, 
	NOTE_G2, 0, NOTE_G2, 0, NOTE_G2, 0, NOTE_F2, 0, NOTE_F2, 0, 
	NOTE_F2, 0, NOTE_F2, 0, NOTE_G2, 0, NOTE_G2, 0, NOTE_G2, 0, 
	NOTE_F2, 0, NOTE_F2, 0, NOTE_G2, 0, NOTE_E2, 0, NOTE_A2, 0, 
	NOTE_F2, 0, NOTE_G2, 0, NOTE_E2, 0, NOTE_A2, 0
};
const PROGMEM int delays1[] = {
	498, 27, 498, 27, 498, 27, 498, 27, 498, 27, 
	498, 27, 498, 27, 498, 27, 498, 27, 498, 27, 
	498, 27, 498, 27, 498, 27, 498, 27, 498, 27, 
	498, 27, 498, 27, 498, 27, 498, 27, 498, 27, 
	498, 27, 498, 27, 498, 27, 498, 27, 498, 27, 
	498, 27, 498, 27, 498, 27, 998, 53, 998, 53, 
	998, 53, 998, 53, 998, 53, 498, 27, 498, 27, 
	998, 53, 998, 53, 998, 53, 498, 27, 498, 27, 
	998, 53, 998, 53, 998, 53, 498, 27, 498, 27, 
	998, 53, 998, 53, 998, 53, 498, 27, 498, 27, 
	498, 27, 498, 27, 498, 27, 498, 27, 498, 27, 
	498, 27, 498, 27, 498, 27, 498, 27, 498, 27, 
	498, 27, 498, 27, 498, 27, 498, 27, 498, 553, 
	373, 20, 373, 20, 248, 1066, 748, 40, 248, 1066, 
	748, 40, 748, 566, 498, 27, 998, 0
};
const PROGMEM int melody2[] = {
	NOTE_C5, 0, NOTE_D5, 0, NOTE_D5, 0, NOTE_E5, 0, NOTE_G5, 0, 
	NOTE_F5, 0, NOTE_E5, 0, NOTE_C5, 0, NOTE_D5, 0, NOTE_B4, 0, 
	NOTE_G4, 0, NOTE_G4, 0, NOTE_A4, 0, NOTE_C5, 0, NOTE_C5, 0, 
	NOTE_D5, 0, NOTE_D5, 0, NOTE_E5, 0, NOTE_G5, 0, NOTE_F5, 0, 
	NOTE_E5, 0, NOTE_C5, 0, NOTE_D5, 0, NOTE_B4, 0, NOTE_C5, 0, 
	NOTE_C5, 0, NOTE_A4, 0, NOTE_C5, 0, NOTE_C5, 0, NOTE_D5, 0, 
	NOTE_B4, 0, NOTE_A4, 0, NOTE_G4, 0, NOTE_A4, 0, NOTE_A4, 0, 
	NOTE_B4, 0, NOTE_C5, 0, NOTE_A4, 0, NOTE_G4, 0, NOTE_G5, 0, 
	NOTE_G5, 0, NOTE_D5, 0, NOTE_A4, 0, NOTE_A4, 0, NOTE_B4, 0, 
	NOTE_C5, 0, NOTE_A4, 0, NOTE_C5, 0, NOTE_D5, 0, NOTE_B4, 0, 
	NOTE_A4, 0, NOTE_G4, 0, NOTE_A4, 0, NOTE_A4, 0, NOTE_B4, 0, 
	NOTE_C5, 0, NOTE_A4, 0, NOTE_G4, 0, NOTE_D5, 0, NOTE_D5, 0, 
	NOTE_D5, 0, NOTE_E5, 0, NOTE_D5, 0, NOTE_C5, 0, NOTE_D5, 0, 
	NOTE_E5, 0, NOTE_C5, 0, NOTE_D5, 0, NOTE_D5, 0, NOTE_D5, 0, 
	NOTE_E5, 0, NOTE_D5, 0, NOTE_G4, 0, NOTE_A4, 0, NOTE_B4, 0, 
	NOTE_C5, 0, NOTE_A4, 0, NOTE_D5, 0, NOTE_E5, 0, NOTE_D5, 0, 
	NOTE_G4, 0, NOTE_A4, 0, NOTE_C5, 0, NOTE_A4, 0, NOTE_E5, 0, 
	NOTE_E5, 0, NOTE_D5, 0, NOTE_G4, 0, NOTE_A4, 0, NOTE_C5, 0, 
	NOTE_A4, 0, NOTE_G5, 0, NOTE_B4, 0, NOTE_C5, 0, NOTE_B4, 0, 
	NOTE_A4, 0, NOTE_G4, 0, NOTE_A4, 0, NOTE_C5, 0, NOTE_A4, 0, 
	NOTE_C5, 0, NOTE_D5, 0, NOTE_B4, 0, NOTE_A4, 0, NOTE_G4, 0, 
	NOTE_G4, 0, NOTE_D5, 0, NOTE_C5, 0
};
const PROGMEM int delays2[] = {
	748, 40, 1248, 66, 748, 40, 748, 40, 123, 7, 
	123, 7, 248, 14, 748, 40, 1248, 66, 498, 27, 
	498, 290, 248, 14, 123, 7, 373, 20, 748, 40, 
	1248, 66, 748, 40, 748, 40, 123, 7, 123, 7, 
	248, 14, 748, 40, 1248, 66, 248, 14, 248, 14, 
	498, 1606, 248, 14, 498, 27, 248, 14, 248, 14, 
	373, 20, 123, 7, 1248, 856, 248, 14, 248, 14, 
	248, 14, 248, 14, 498, 27, 248, 14, 248, 277, 
	248, 14, 248, 1330, 248, 14, 248, 14, 248, 14, 
	248, 14, 248, 14, 248, 14, 248, 277, 248, 14, 
	248, 14, 748, 830, 248, 14, 248, 14, 248, 14, 
	248, 14, 248, 14, 498, 27, 248, 14, 248, 14, 
	248, 14, 248, 14, 498, 553, 1248, 66, 248, 14, 
	248, 14, 248, 14, 248, 14, 248, 14, 248, 14, 
	248, 14, 498, 27, 498, 1080, 248, 14, 248, 14, 
	248, 14, 248, 277, 248, 14, 248, 14, 748, 40, 
	123, 7, 123, 7, 123, 7, 123, 7, 373, 20, 
	373, 20, 248, 540, 123, 7, 123, 7, 123, 7, 
	123, 7, 498, 27, 248, 14, 373, 20, 123, 7, 
	248, 14, 123, 7, 123, 7, 123, 7, 123, 7, 
	498, 27, 248, 14, 373, 20, 123, 7, 498, 27, 
	248, 14, 498, 27, 998, 0
};
